<?xml version="1.0"?>
<VTKFile type="UnstructuredGrid"  version="0.1"  >
<UnstructuredGrid>
<Piece  NumberOfPoints="1092" NumberOfCells="2040">
<Points>
<DataArray  type="Float64"  NumberOfComponents="3"  format="ascii">0 0 0  0.1 0 0  0.2 0 0  0.3 0 0  0.4 0 0  0.5 0 0  0.6000000000000001 0 0  0.7000000000000001 0 0  0.8 0 0  0.9 0 0  1 0 0  1.1 0 0  1.2 0 0  1.3 0 0  1.4 0 0  1.5 0 0  1.6 0 0  1.7 0 0  1.8 0 0  1.9 0 0  2 0 0  0 0.001708980888246768 0  0.1 0.001708980888246768 0  0.2 0.001708980888246768 0  0.3 0.001708980888246768 0  0.4 0.001708980888246768 0  0.5 0.001708980888246768 0  0.6000000000000001 0.001708980888246768 0  0.7000000000000001 0.001708980888246768 0  0.8 0.001708980888246768 0  0.9 0.001708980888246768 0  1 0.001708980888246768 0  1.1 0.001708980888246768 0  1.2 0.001708980888246768 0  1.3 0.001708980888246768 0  1.4 0.001708980888246768 0  1.5 0.001708980888246768 0  1.6 0.001708980888246768 0  1.7 0.001708980888246768 0  1.8 0.001708980888246768 0  1.9 0.001708980888246768 0  2 0.001708980888246768 0  0 0.004016105087379904 0  0.1 0.004016105087379904 0  0.2 0.004016105087379904 0  0.3 0.004016105087379904 0  0.4 0.004016105087379904 0  0.5 0.004016105087379904 0  0.6000000000000001 0.004016105087379904 0  0.7000000000000001 0.004016105087379904 0  0.8 0.004016105087379904 0  0.9 0.004016105087379904 0  1 0.004016105087379904 0  1.1 0.004016105087379904 0  1.2 0.004016105087379904 0  1.3 0.004016105087379904 0  1.4 0.004016105087379904 0  1.5 0.004016105087379904 0  1.6 0.004016105087379904 0  1.7 0.004016105087379904 0  1.8 0.004016105087379904 0  1.9 0.004016105087379904 0  2 0.004016105087379904 0  0 0.007130722756209639 0  0.1 0.007130722756209639 0  0.2 0.007130722756209639 0  0.3 0.007130722756209639 0  0.4 0.007130722756209639 0  0.5 0.007130722756209639 0  0.6000000000000001 0.007130722756209639 0  0.7000000000000001 0.007130722756209639 0  0.8 0.007130722756209639 0  0.9 0.007130722756209639 0  1 0.007130722756209639 0  1.1 0.007130722756209639 0  1.2 0.007130722756209639 0  1.3 0.007130722756209639 0  1.4 0.007130722756209639 0  1.5 0.007130722756209639 0  1.6 0.007130722756209639 0  1.7 0.007130722756209639 0  1.8 0.007130722756209639 0  1.9 0.007130722756209639 0  2 0.007130722756209639 0  0 0.01133545660912978 0  0.1 0.01133545660912978 0  0.2 0.01133545660912978 0  0.3 0.01133545660912978 0  0.4 0.01133545660912978 0  0.5 0.01133545660912978 0  0.6000000000000001 0.01133545660912978 0  0.7000000000000001 0.01133545660912978 0  0.8 0.01133545660912978 0  0.9 0.01133545660912978 0  1 0.01133545660912978 0  1.1 0.01133545660912978 0  1.2 0.01133545660912978 0  1.3 0.01133545660912978 0  1.4 0.01133545660912978 0  1.5 0.01133545660912978 0  1.6 0.01133545660912978 0  1.7 0.01133545660912978 0  1.8 0.01133545660912978 0  1.9 0.01133545660912978 0  2 0.01133545660912978 0  0 0.01701184731057197 0  0.1 0.01701184731057197 0  0.2 0.01701184731057197 0  0.3 0.01701184731057197 0  0.4 0.01701184731057197 0  0.5 0.01701184731057197 0  0.6000000000000001 0.01701184731057197 0  0.7000000000000001 0.01701184731057197 0  0.8 0.01701184731057197 0  0.9 0.01701184731057197 0  1 0.01701184731057197 0  1.1 0.01701184731057197 0  1.2 0.01701184731057197 0  1.3 0.01701184731057197 0  1.4 0.01701184731057197 0  1.5 0.01701184731057197 0  1.6 0.01701184731057197 0  1.7 0.01701184731057197 0  1.8 0.01701184731057197 0  1.9 0.01701184731057197 0  2 0.01701184731057197 0  0 0.02467497475751893 0  0.1 0.02467497475751893 0  0.2 0.02467497475751893 0  0.3 0.02467497475751893 0  0.4 0.02467497475751893 0  0.5 0.02467497475751893 0  0.6000000000000001 0.02467497475751893 0  0.7000000000000001 0.02467497475751893 0  0.8 0.02467497475751893 0  0.9 0.02467497475751893 0  1 0.02467497475751893 0  1.1 0.02467497475751893 0  1.2 0.02467497475751893 0  1.3 0.02467497475751893 0  1.4 0.02467497475751893 0  1.5 0.02467497475751893 0  1.6 0.02467497475751893 0  1.7 0.02467497475751893 0  1.8 0.02467497475751893 0  1.9 0.02467497475751893 0  2 0.02467497475751893 0  0 0.03502019681089732 0  0.1 0.03502019681089732 0  0.2 0.03502019681089732 0  0.3 0.03502019681089732 0  0.4 0.03502019681089732 0  0.5 0.03502019681089732 0  0.6000000000000001 0.03502019681089732 0  0.7000000000000001 0.03502019681089732 0  0.8 0.03502019681089732 0  0.9 0.03502019681089732 0  1 0.03502019681089732 0  1.1 0.03502019681089732 0  1.2 0.03502019681089732 0  1.3 0.03502019681089732 0  1.4 0.03502019681089732 0  1.5 0.03502019681089732 0  1.6 0.03502019681089732 0  1.7 0.03502019681089732 0  1.8 0.03502019681089732 0  1.9 0.03502019681089732 0  2 0.03502019681089732 0  0 0.04898624658295816 0  0.1 0.04898624658295816 0  0.2 0.04898624658295816 0  0.3 0.04898624658295816 0  0.4 0.04898624658295816 0  0.5 0.04898624658295816 0  0.6000000000000001 0.04898624658295816 0  0.7000000000000001 0.04898624658295816 0  0.8 0.04898624658295816 0  0.9 0.04898624658295816 0  1 0.04898624658295816 0  1.1 0.04898624658295816 0  1.2 0.04898624658295816 0  1.3 0.04898624658295816 0  1.4 0.04898624658295816 0  1.5 0.04898624658295816 0  1.6 0.04898624658295816 0  1.7 0.04898624658295816 0  1.8 0.04898624658295816 0  1.9 0.04898624658295816 0  2 0.04898624658295816 0  0 0.06784041377524028 0  0.1 0.06784041377524028 0  0.2 0.06784041377524028 0  0.3 0.06784041377524028 0  0.4 0.06784041377524028 0  0.5 0.06784041377524028 0  0.6000000000000001 0.06784041377524028 0  0.7000000000000001 0.06784041377524028 0  0.8 0.06784041377524028 0  0.9 0.06784041377524028 0  1 0.06784041377524028 0  1.1 0.06784041377524028 0  1.2 0.06784041377524028 0  1.3 0.06784041377524028 0  1.4 0.06784041377524028 0  1.5 0.06784041377524028 0  1.6 0.06784041377524028 0  1.7 0.06784041377524028 0  1.8 0.06784041377524028 0  1.9 0.06784041377524028 0  2 0.06784041377524028 0  0 0.09329353948482115 0  0.1 0.09329353948482115 0  0.2 0.09329353948482115 0  0.3 0.09329353948482115 0  0.4 0.09329353948482115 0  0.5 0.09329353948482115 0  0.6000000000000001 0.09329353948482115 0  0.7000000000000001 0.09329353948482115 0  0.8 0.09329353948482115 0  0.9 0.09329353948482115 0  1 0.09329353948482115 0  1.1 0.09329353948482115 0  1.2 0.09329353948482115 0  1.3 0.09329353948482115 0  1.4 0.09329353948482115 0  1.5 0.09329353948482115 0  1.6 0.09329353948482115 0  1.7 0.09329353948482115 0  1.8 0.09329353948482115 0  1.9 0.09329353948482115 0  2 0.09329353948482115 0  0 0.1276552591927553 0  0.1 0.1276552591927553 0  0.2 0.1276552591927553 0  0.3 0.1276552591927553 0  0.4 0.1276552591927553 0  0.5 0.1276552591927553 0  0.6000000000000001 0.1276552591927553 0  0.7000000000000001 0.1276552591927553 0  0.8 0.1276552591927553 0  0.9 0.1276552591927553 0  1 0.1276552591927553 0  1.1 0.1276552591927553 0  1.2 0.1276552591927553 0  1.3 0.1276552591927553 0  1.4 0.1276552591927553 0  1.5 0.1276552591927553 0  1.6 0.1276552591927553 0  1.7 0.1276552591927553 0  1.8 0.1276552591927553 0  1.9 0.1276552591927553 0  2 0.1276552591927553 0  0 0.1740435807984665 0  0.1 0.1740435807984665 0  0.2 0.1740435807984665 0  0.3 0.1740435807984665 0  0.4 0.1740435807984665 0  0.5 0.1740435807984665 0  0.6000000000000001 0.1740435807984665 0  0.7000000000000001 0.1740435807984665 0  0.8 0.1740435807984665 0  0.9 0.1740435807984665 0  1 0.1740435807984665 0  1.1 0.1740435807984665 0  1.2 0.1740435807984665 0  1.3 0.1740435807984665 0  1.4 0.1740435807984665 0  1.5 0.1740435807984665 0  1.6 0.1740435807984665 0  1.7 0.1740435807984665 0  1.8 0.1740435807984665 0  1.9 0.1740435807984665 0  2 0.1740435807984665 0  0 0.2366678149661765 0  0.1 0.2366678149661765 0  0.2 0.2366678149661765 0  0.3 0.2366678149661765 0  0.4 0.2366678149661765 0  0.5 0.2366678149661765 0  0.6000000000000001 0.2366678149661765 0  0.7000000000000001 0.2366678149661765 0  0.8 0.2366678149661765 0  0.9 0.2366678149661765 0  1 0.2366678149661765 0  1.1 0.2366678149661765 0  1.2 0.2366678149661765 0  1.3 0.2366678149661765 0  1.4 0.2366678149661765 0  1.5 0.2366678149661765 0  1.6 0.2366678149661765 0  1.7 0.2366678149661765 0  1.8 0.2366678149661765 0  1.9 0.2366678149661765 0  2 0.2366678149661765 0  0 0.3212105310925851 0  0.1 0.3212105310925851 0  0.2 0.3212105310925851 0  0.3 0.3212105310925851 0  0.4 0.3212105310925851 0  0.5 0.3212105310925851 0  0.6000000000000001 0.3212105310925851 0  0.7000000000000001 0.3212105310925851 0  0.8 0.3212105310925851 0  0.9 0.3212105310925851 0  1 0.3212105310925851 0  1.1 0.3212105310925851 0  1.2 0.3212105310925851 0  1.3 0.3212105310925851 0  1.4 0.3212105310925851 0  1.5 0.3212105310925851 0  1.6 0.3212105310925851 0  1.7 0.3212105310925851 0  1.8 0.3212105310925851 0  1.9 0.3212105310925851 0  2 0.3212105310925851 0  0 0.3802357023019255 0  0.1 0.3802357023019255 0  0.2 0.3802357023019255 0  0.3 0.3802357023019255 0  0.4 0.3802357023019255 0  0.5 0.3802357023019255 0  0.6000000000000001 0.3802357023019255 0  0.7000000000000001 0.3802357023019255 0  0.8 0.3802357023019255 0  0.9 0.3802357023019255 0  1 0.3802357023019255 0  1.1 0.3802357023019255 0  1.2 0.3802357023019255 0  1.3 0.3802357023019255 0  1.4 0.3802357023019255 0  1.5 0.3802357023019255 0  1.6 0.3802357023019255 0  1.7 0.3802357023019255 0  1.8 0.3802357023019255 0  1.9 0.3802357023019255 0  2 0.3802357023019255 0  0 0.439260873511266 0  0.1 0.439260873511266 0  0.2 0.439260873511266 0  0.3 0.439260873511266 0  0.4 0.439260873511266 0  0.5 0.439260873511266 0  0.6000000000000001 0.439260873511266 0  0.7000000000000001 0.439260873511266 0  0.8 0.439260873511266 0  0.9 0.439260873511266 0  1 0.439260873511266 0  1.1 0.439260873511266 0  1.2 0.439260873511266 0  1.3 0.439260873511266 0  1.4 0.439260873511266 0  1.5 0.439260873511266 0  1.6 0.439260873511266 0  1.7 0.439260873511266 0  1.8 0.439260873511266 0  1.9 0.439260873511266 0  2 0.439260873511266 0  0 0.4982860447206064 0  0.1 0.4982860447206064 0  0.2 0.4982860447206064 0  0.3 0.4982860447206064 0  0.4 0.4982860447206064 0  0.5 0.4982860447206064 0  0.6000000000000001 0.4982860447206064 0  0.7000000000000001 0.4982860447206064 0  0.8 0.4982860447206064 0  0.9 0.4982860447206064 0  1 0.4982860447206064 0  1.1 0.4982860447206064 0  1.2 0.4982860447206064 0  1.3 0.4982860447206064 0  1.4 0.4982860447206064 0  1.5 0.4982860447206064 0  1.6 0.4982860447206064 0  1.7 0.4982860447206064 0  1.8 0.4982860447206064 0  1.9 0.4982860447206064 0  2 0.4982860447206064 0  0 0.5573112159299468 0  0.1 0.5573112159299468 0  0.2 0.5573112159299468 0  0.3 0.5573112159299468 0  0.4 0.5573112159299468 0  0.5 0.5573112159299468 0  0.6000000000000001 0.5573112159299468 0  0.7000000000000001 0.5573112159299468 0  0.8 0.5573112159299468 0  0.9 0.5573112159299468 0  1 0.5573112159299468 0  1.1 0.5573112159299468 0  1.2 0.5573112159299468 0  1.3 0.5573112159299468 0  1.4 0.5573112159299468 0  1.5 0.5573112159299468 0  1.6 0.5573112159299468 0  1.7 0.5573112159299468 0  1.8 0.5573112159299468 0  1.9 0.5573112159299468 0  2 0.5573112159299468 0  0 0.6163363871392873 0  0.1 0.6163363871392873 0  0.2 0.6163363871392873 0  0.3 0.6163363871392873 0  0.4 0.6163363871392873 0  0.5 0.6163363871392873 0  0.6000000000000001 0.6163363871392873 0  0.7000000000000001 0.6163363871392873 0  0.8 0.6163363871392873 0  0.9 0.6163363871392873 0  1 0.6163363871392873 0  1.1 0.6163363871392873 0  1.2 0.6163363871392873 0  1.3 0.6163363871392873 0  1.4 0.6163363871392873 0  1.5 0.6163363871392873 0  1.6 0.6163363871392873 0  1.7 0.6163363871392873 0  1.8 0.6163363871392873 0  1.9 0.6163363871392873 0  2 0.6163363871392873 0  0 0.6753615583486277 0  0.1 0.6753615583486277 0  0.2 0.6753615583486277 0  0.3 0.6753615583486277 0  0.4 0.6753615583486277 0  0.5 0.6753615583486277 0  0.6000000000000001 0.6753615583486277 0  0.7000000000000001 0.6753615583486277 0  0.8 0.6753615583486277 0  0.9 0.6753615583486277 0  1 0.6753615583486277 0  1.1 0.6753615583486277 0  1.2 0.6753615583486277 0  1.3 0.6753615583486277 0  1.4 0.6753615583486277 0  1.5 0.6753615583486277 0  1.6 0.6753615583486277 0  1.7 0.6753615583486277 0  1.8 0.6753615583486277 0  1.9 0.6753615583486277 0  2 0.6753615583486277 0  0 0.7343867295579681 0  0.1 0.7343867295579681 0  0.2 0.7343867295579681 0  0.3 0.7343867295579681 0  0.4 0.7343867295579681 0  0.5 0.7343867295579681 0  0.6000000000000001 0.7343867295579681 0  0.7000000000000001 0.7343867295579681 0  0.8 0.7343867295579681 0  0.9 0.7343867295579681 0  1 0.7343867295579681 0  1.1 0.7343867295579681 0  1.2 0.7343867295579681 0  1.3 0.7343867295579681 0  1.4 0.7343867295579681 0  1.5 0.7343867295579681 0  1.6 0.7343867295579681 0  1.7 0.7343867295579681 0  1.8 0.7343867295579681 0  1.9 0.7343867295579681 0  2 0.7343867295579681 0  0 0.7934119007673086 0  0.1 0.7934119007673086 0  0.2 0.7934119007673086 0  0.3 0.7934119007673086 0  0.4 0.7934119007673086 0  0.5 0.7934119007673086 0  0.6000000000000001 0.7934119007673086 0  0.7000000000000001 0.7934119007673086 0  0.8 0.7934119007673086 0  0.9 0.7934119007673086 0  1 0.7934119007673086 0  1.1 0.7934119007673086 0  1.2 0.7934119007673086 0  1.3 0.7934119007673086 0  1.4 0.7934119007673086 0  1.5 0.7934119007673086 0  1.6 0.7934119007673086 0  1.7 0.7934119007673086 0  1.8 0.7934119007673086 0  1.9 0.7934119007673086 0  2 0.7934119007673086 0  0 0.852437071976649 0  0.1 0.852437071976649 0  0.2 0.852437071976649 0  0.3 0.852437071976649 0  0.4 0.852437071976649 0  0.5 0.852437071976649 0  0.6000000000000001 0.852437071976649 0  0.7000000000000001 0.852437071976649 0  0.8 0.852437071976649 0  0.9 0.852437071976649 0  1 0.852437071976649 0  1.1 0.852437071976649 0  1.2 0.852437071976649 0  1.3 0.852437071976649 0  1.4 0.852437071976649 0  1.5 0.852437071976649 0  1.6 0.852437071976649 0  1.7 0.852437071976649 0  1.8 0.852437071976649 0  1.9 0.852437071976649 0  2 0.852437071976649 0  0 0.9114622431859893 0  0.1 0.9114622431859893 0  0.2 0.9114622431859893 0  0.3 0.9114622431859893 0  0.4 0.9114622431859893 0  0.5 0.9114622431859893 0  0.6000000000000001 0.9114622431859893 0  0.7000000000000001 0.9114622431859893 0  0.8 0.9114622431859893 0  0.9 0.9114622431859893 0  1 0.9114622431859893 0  1.1 0.9114622431859893 0  1.2 0.9114622431859893 0  1.3 0.9114622431859893 0  1.4 0.9114622431859893 0  1.5 0.9114622431859893 0  1.6 0.9114622431859893 0  1.7 0.9114622431859893 0  1.8 0.9114622431859893 0  1.9 0.9114622431859893 0  2 0.9114622431859893 0  0 0.9704874143953299 0  0.1 0.9704874143953299 0  0.2 0.9704874143953299 0  0.3 0.9704874143953299 0  0.4 0.9704874143953299 0  0.5 0.9704874143953299 0  0.6000000000000001 0.9704874143953299 0  0.7000000000000001 0.9704874143953299 0  0.8 0.9704874143953299 0  0.9 0.9704874143953299 0  1 0.9704874143953299 0  1.1 0.9704874143953299 0  1.2 0.9704874143953299 0  1.3 0.9704874143953299 0  1.4 0.9704874143953299 0  1.5 0.9704874143953299 0  1.6 0.9704874143953299 0  1.7 0.9704874143953299 0  1.8 0.9704874143953299 0  1.9 0.9704874143953299 0  2 0.9704874143953299 0  0 1.02951258560467 0  0.1 1.02951258560467 0  0.2 1.02951258560467 0  0.3 1.02951258560467 0  0.4 1.02951258560467 0  0.5 1.02951258560467 0  0.6000000000000001 1.02951258560467 0  0.7000000000000001 1.02951258560467 0  0.8 1.02951258560467 0  0.9 1.02951258560467 0  1 1.02951258560467 0  1.1 1.02951258560467 0  1.2 1.02951258560467 0  1.3 1.02951258560467 0  1.4 1.02951258560467 0  1.5 1.02951258560467 0  1.6 1.02951258560467 0  1.7 1.02951258560467 0  1.8 1.02951258560467 0  1.9 1.02951258560467 0  2 1.02951258560467 0  0 1.088537756814011 0  0.1 1.088537756814011 0  0.2 1.088537756814011 0  0.3 1.088537756814011 0  0.4 1.088537756814011 0  0.5 1.088537756814011 0  0.6000000000000001 1.088537756814011 0  0.7000000000000001 1.088537756814011 0  0.8 1.088537756814011 0  0.9 1.088537756814011 0  1 1.088537756814011 0  1.1 1.088537756814011 0  1.2 1.088537756814011 0  1.3 1.088537756814011 0  1.4 1.088537756814011 0  1.5 1.088537756814011 0  1.6 1.088537756814011 0  1.7 1.088537756814011 0  1.8 1.088537756814011 0  1.9 1.088537756814011 0  2 1.088537756814011 0  0 1.147562928023351 0  0.1 1.147562928023351 0  0.2 1.147562928023351 0  0.3 1.147562928023351 0  0.4 1.147562928023351 0  0.5 1.147562928023351 0  0.6000000000000001 1.147562928023351 0  0.7000000000000001 1.147562928023351 0  0.8 1.147562928023351 0  0.9 1.147562928023351 0  1 1.147562928023351 0  1.1 1.147562928023351 0  1.2 1.147562928023351 0  1.3 1.147562928023351 0  1.4 1.147562928023351 0  1.5 1.147562928023351 0  1.6 1.147562928023351 0  1.7 1.147562928023351 0  1.8 1.147562928023351 0  1.9 1.147562928023351 0  2 1.147562928023351 0  0 1.206588099232692 0  0.1 1.206588099232692 0  0.2 1.206588099232692 0  0.3 1.206588099232692 0  0.4 1.206588099232692 0  0.5 1.206588099232692 0  0.6000000000000001 1.206588099232692 0  0.7000000000000001 1.206588099232692 0  0.8 1.206588099232692 0  0.9 1.206588099232692 0  1 1.206588099232692 0  1.1 1.206588099232692 0  1.2 1.206588099232692 0  1.3 1.206588099232692 0  1.4 1.206588099232692 0  1.5 1.206588099232692 0  1.6 1.206588099232692 0  1.7 1.206588099232692 0  1.8 1.206588099232692 0  1.9 1.206588099232692 0  2 1.206588099232692 0  0 1.265613270442032 0  0.1 1.265613270442032 0  0.2 1.265613270442032 0  0.3 1.265613270442032 0  0.4 1.265613270442032 0  0.5 1.265613270442032 0  0.6000000000000001 1.265613270442032 0  0.7000000000000001 1.265613270442032 0  0.8 1.265613270442032 0  0.9 1.265613270442032 0  1 1.265613270442032 0  1.1 1.265613270442032 0  1.2 1.265613270442032 0  1.3 1.265613270442032 0  1.4 1.265613270442032 0  1.5 1.265613270442032 0  1.6 1.265613270442032 0  1.7 1.265613270442032 0  1.8 1.265613270442032 0  1.9 1.265613270442032 0  2 1.265613270442032 0  0 1.324638441651372 0  0.1 1.324638441651372 0  0.2 1.324638441651372 0  0.3 1.324638441651372 0  0.4 1.324638441651372 0  0.5 1.324638441651372 0  0.6000000000000001 1.324638441651372 0  0.7000000000000001 1.324638441651372 0  0.8 1.324638441651372 0  0.9 1.324638441651372 0  1 1.324638441651372 0  1.1 1.324638441651372 0  1.2 1.324638441651372 0  1.3 1.324638441651372 0  1.4 1.324638441651372 0  1.5 1.324638441651372 0  1.6 1.324638441651372 0  1.7 1.324638441651372 0  1.8 1.324638441651372 0  1.9 1.324638441651372 0  2 1.324638441651372 0  0 1.383663612860713 0  0.1 1.383663612860713 0  0.2 1.383663612860713 0  0.3 1.383663612860713 0  0.4 1.383663612860713 0  0.5 1.383663612860713 0  0.6000000000000001 1.383663612860713 0  0.7000000000000001 1.383663612860713 0  0.8 1.383663612860713 0  0.9 1.383663612860713 0  1 1.383663612860713 0  1.1 1.383663612860713 0  1.2 1.383663612860713 0  1.3 1.383663612860713 0  1.4 1.383663612860713 0  1.5 1.383663612860713 0  1.6 1.383663612860713 0  1.7 1.383663612860713 0  1.8 1.383663612860713 0  1.9 1.383663612860713 0  2 1.383663612860713 0  0 1.442688784070053 0  0.1 1.442688784070053 0  0.2 1.442688784070053 0  0.3 1.442688784070053 0  0.4 1.442688784070053 0  0.5 1.442688784070053 0  0.6000000000000001 1.442688784070053 0  0.7000000000000001 1.442688784070053 0  0.8 1.442688784070053 0  0.9 1.442688784070053 0  1 1.442688784070053 0  1.1 1.442688784070053 0  1.2 1.442688784070053 0  1.3 1.442688784070053 0  1.4 1.442688784070053 0  1.5 1.442688784070053 0  1.6 1.442688784070053 0  1.7 1.442688784070053 0  1.8 1.442688784070053 0  1.9 1.442688784070053 0  2 1.442688784070053 0  0 1.501713955279394 0  0.1 1.501713955279394 0  0.2 1.501713955279394 0  0.3 1.501713955279394 0  0.4 1.501713955279394 0  0.5 1.501713955279394 0  0.6000000000000001 1.501713955279394 0  0.7000000000000001 1.501713955279394 0  0.8 1.501713955279394 0  0.9 1.501713955279394 0  1 1.501713955279394 0  1.1 1.501713955279394 0  1.2 1.501713955279394 0  1.3 1.501713955279394 0  1.4 1.501713955279394 0  1.5 1.501713955279394 0  1.6 1.501713955279394 0  1.7 1.501713955279394 0  1.8 1.501713955279394 0  1.9 1.501713955279394 0  2 1.501713955279394 0  0 1.560739126488734 0  0.1 1.560739126488734 0  0.2 1.560739126488734 0  0.3 1.560739126488734 0  0.4 1.560739126488734 0  0.5 1.560739126488734 0  0.6000000000000001 1.560739126488734 0  0.7000000000000001 1.560739126488734 0  0.8 1.560739126488734 0  0.9 1.560739126488734 0  1 1.560739126488734 0  1.1 1.560739126488734 0  1.2 1.560739126488734 0  1.3 1.560739126488734 0  1.4 1.560739126488734 0  1.5 1.560739126488734 0  1.6 1.560739126488734 0  1.7 1.560739126488734 0  1.8 1.560739126488734 0  1.9 1.560739126488734 0  2 1.560739126488734 0  0 1.619764297698075 0  0.1 1.619764297698075 0  0.2 1.619764297698075 0  0.3 1.619764297698075 0  0.4 1.619764297698075 0  0.5 1.619764297698075 0  0.6000000000000001 1.619764297698075 0  0.7000000000000001 1.619764297698075 0  0.8 1.619764297698075 0  0.9 1.619764297698075 0  1 1.619764297698075 0  1.1 1.619764297698075 0  1.2 1.619764297698075 0  1.3 1.619764297698075 0  1.4 1.619764297698075 0  1.5 1.619764297698075 0  1.6 1.619764297698075 0  1.7 1.619764297698075 0  1.8 1.619764297698075 0  1.9 1.619764297698075 0  2 1.619764297698075 0  0 1.678789468907415 0  0.1 1.678789468907415 0  0.2 1.678789468907415 0  0.3 1.678789468907415 0  0.4 1.678789468907415 0  0.5 1.678789468907415 0  0.6000000000000001 1.678789468907415 0  0.7000000000000001 1.678789468907415 0  0.8 1.678789468907415 0  0.9 1.678789468907415 0  1 1.678789468907415 0  1.1 1.678789468907415 0  1.2 1.678789468907415 0  1.3 1.678789468907415 0  1.4 1.678789468907415 0  1.5 1.678789468907415 0  1.6 1.678789468907415 0  1.7 1.678789468907415 0  1.8 1.678789468907415 0  1.9 1.678789468907415 0  2 1.678789468907415 0  0 1.763332185033823 0  0.1 1.763332185033823 0  0.2 1.763332185033823 0  0.3 1.763332185033823 0  0.4 1.763332185033823 0  0.5 1.763332185033823 0  0.6000000000000001 1.763332185033823 0  0.7000000000000001 1.763332185033823 0  0.8 1.763332185033823 0  0.9 1.763332185033823 0  1 1.763332185033823 0  1.1 1.763332185033823 0  1.2 1.763332185033823 0  1.3 1.763332185033823 0  1.4 1.763332185033823 0  1.5 1.763332185033823 0  1.6 1.763332185033823 0  1.7 1.763332185033823 0  1.8 1.763332185033823 0  1.9 1.763332185033823 0  2 1.763332185033823 0  0 1.825956419201534 0  0.1 1.825956419201534 0  0.2 1.825956419201534 0  0.3 1.825956419201534 0  0.4 1.825956419201534 0  0.5 1.825956419201534 0  0.6000000000000001 1.825956419201534 0  0.7000000000000001 1.825956419201534 0  0.8 1.825956419201534 0  0.9 1.825956419201534 0  1 1.825956419201534 0  1.1 1.825956419201534 0  1.2 1.825956419201534 0  1.3 1.825956419201534 0  1.4 1.825956419201534 0  1.5 1.825956419201534 0  1.6 1.825956419201534 0  1.7 1.825956419201534 0  1.8 1.825956419201534 0  1.9 1.825956419201534 0  2 1.825956419201534 0  0 1.872344740807245 0  0.1 1.872344740807245 0  0.2 1.872344740807245 0  0.3 1.872344740807245 0  0.4 1.872344740807245 0  0.5 1.872344740807245 0  0.6000000000000001 1.872344740807245 0  0.7000000000000001 1.872344740807245 0  0.8 1.872344740807245 0  0.9 1.872344740807245 0  1 1.872344740807245 0  1.1 1.872344740807245 0  1.2 1.872344740807245 0  1.3 1.872344740807245 0  1.4 1.872344740807245 0  1.5 1.872344740807245 0  1.6 1.872344740807245 0  1.7 1.872344740807245 0  1.8 1.872344740807245 0  1.9 1.872344740807245 0  2 1.872344740807245 0  0 1.906706460515179 0  0.1 1.906706460515179 0  0.2 1.906706460515179 0  0.3 1.906706460515179 0  0.4 1.906706460515179 0  0.5 1.906706460515179 0  0.6000000000000001 1.906706460515179 0  0.7000000000000001 1.906706460515179 0  0.8 1.906706460515179 0  0.9 1.906706460515179 0  1 1.906706460515179 0  1.1 1.906706460515179 0  1.2 1.906706460515179 0  1.3 1.906706460515179 0  1.4 1.906706460515179 0  1.5 1.906706460515179 0  1.6 1.906706460515179 0  1.7 1.906706460515179 0  1.8 1.906706460515179 0  1.9 1.906706460515179 0  2 1.906706460515179 0  0 1.93215958622476 0  0.1 1.93215958622476 0  0.2 1.93215958622476 0  0.3 1.93215958622476 0  0.4 1.93215958622476 0  0.5 1.93215958622476 0  0.6000000000000001 1.93215958622476 0  0.7000000000000001 1.93215958622476 0  0.8 1.93215958622476 0  0.9 1.93215958622476 0  1 1.93215958622476 0  1.1 1.93215958622476 0  1.2 1.93215958622476 0  1.3 1.93215958622476 0  1.4 1.93215958622476 0  1.5 1.93215958622476 0  1.6 1.93215958622476 0  1.7 1.93215958622476 0  1.8 1.93215958622476 0  1.9 1.93215958622476 0  2 1.93215958622476 0  0 1.951013753417042 0  0.1 1.951013753417042 0  0.2 1.951013753417042 0  0.3 1.951013753417042 0  0.4 1.951013753417042 0  0.5 1.951013753417042 0  0.6000000000000001 1.951013753417042 0  0.7000000000000001 1.951013753417042 0  0.8 1.951013753417042 0  0.9 1.951013753417042 0  1 1.951013753417042 0  1.1 1.951013753417042 0  1.2 1.951013753417042 0  1.3 1.951013753417042 0  1.4 1.951013753417042 0  1.5 1.951013753417042 0  1.6 1.951013753417042 0  1.7 1.951013753417042 0  1.8 1.951013753417042 0  1.9 1.951013753417042 0  2 1.951013753417042 0  0 1.964979803189103 0  0.1 1.964979803189103 0  0.2 1.964979803189103 0  0.3 1.964979803189103 0  0.4 1.964979803189103 0  0.5 1.964979803189103 0  0.6000000000000001 1.964979803189103 0  0.7000000000000001 1.964979803189103 0  0.8 1.964979803189103 0  0.9 1.964979803189103 0  1 1.964979803189103 0  1.1 1.964979803189103 0  1.2 1.964979803189103 0  1.3 1.964979803189103 0  1.4 1.964979803189103 0  1.5 1.964979803189103 0  1.6 1.964979803189103 0  1.7 1.964979803189103 0  1.8 1.964979803189103 0  1.9 1.964979803189103 0  2 1.964979803189103 0  0 1.975325025242481 0  0.1 1.975325025242481 0  0.2 1.975325025242481 0  0.3 1.975325025242481 0  0.4 1.975325025242481 0  0.5 1.975325025242481 0  0.6000000000000001 1.975325025242481 0  0.7000000000000001 1.975325025242481 0  0.8 1.975325025242481 0  0.9 1.975325025242481 0  1 1.975325025242481 0  1.1 1.975325025242481 0  1.2 1.975325025242481 0  1.3 1.975325025242481 0  1.4 1.975325025242481 0  1.5 1.975325025242481 0  1.6 1.975325025242481 0  1.7 1.975325025242481 0  1.8 1.975325025242481 0  1.9 1.975325025242481 0  2 1.975325025242481 0  0 1.982988152689428 0  0.1 1.982988152689428 0  0.2 1.982988152689428 0  0.3 1.982988152689428 0  0.4 1.982988152689428 0  0.5 1.982988152689428 0  0.6000000000000001 1.982988152689428 0  0.7000000000000001 1.982988152689428 0  0.8 1.982988152689428 0  0.9 1.982988152689428 0  1 1.982988152689428 0  1.1 1.982988152689428 0  1.2 1.982988152689428 0  1.3 1.982988152689428 0  1.4 1.982988152689428 0  1.5 1.982988152689428 0  1.6 1.982988152689428 0  1.7 1.982988152689428 0  1.8 1.982988152689428 0  1.9 1.982988152689428 0  2 1.982988152689428 0  0 1.98866454339087 0  0.1 1.98866454339087 0  0.2 1.98866454339087 0  0.3 1.98866454339087 0  0.4 1.98866454339087 0  0.5 1.98866454339087 0  0.6000000000000001 1.98866454339087 0  0.7000000000000001 1.98866454339087 0  0.8 1.98866454339087 0  0.9 1.98866454339087 0  1 1.98866454339087 0  1.1 1.98866454339087 0  1.2 1.98866454339087 0  1.3 1.98866454339087 0  1.4 1.98866454339087 0  1.5 1.98866454339087 0  1.6 1.98866454339087 0  1.7 1.98866454339087 0  1.8 1.98866454339087 0  1.9 1.98866454339087 0  2 1.98866454339087 0  0 1.99286927724379 0  0.1 1.99286927724379 0  0.2 1.99286927724379 0  0.3 1.99286927724379 0  0.4 1.99286927724379 0  0.5 1.99286927724379 0  0.6000000000000001 1.99286927724379 0  0.7000000000000001 1.99286927724379 0  0.8 1.99286927724379 0  0.9 1.99286927724379 0  1 1.99286927724379 0  1.1 1.99286927724379 0  1.2 1.99286927724379 0  1.3 1.99286927724379 0  1.4 1.99286927724379 0  1.5 1.99286927724379 0  1.6 1.99286927724379 0  1.7 1.99286927724379 0  1.8 1.99286927724379 0  1.9 1.99286927724379 0  2 1.99286927724379 0  0 1.99598389491262 0  0.1 1.99598389491262 0  0.2 1.99598389491262 0  0.3 1.99598389491262 0  0.4 1.99598389491262 0  0.5 1.99598389491262 0  0.6000000000000001 1.99598389491262 0  0.7000000000000001 1.99598389491262 0  0.8 1.99598389491262 0  0.9 1.99598389491262 0  1 1.99598389491262 0  1.1 1.99598389491262 0  1.2 1.99598389491262 0  1.3 1.99598389491262 0  1.4 1.99598389491262 0  1.5 1.99598389491262 0  1.6 1.99598389491262 0  1.7 1.99598389491262 0  1.8 1.99598389491262 0  1.9 1.99598389491262 0  2 1.99598389491262 0  0 1.998291019111753 0  0.1 1.998291019111753 0  0.2 1.998291019111753 0  0.3 1.998291019111753 0  0.4 1.998291019111753 0  0.5 1.998291019111753 0  0.6000000000000001 1.998291019111753 0  0.7000000000000001 1.998291019111753 0  0.8 1.998291019111753 0  0.9 1.998291019111753 0  1 1.998291019111753 0  1.1 1.998291019111753 0  1.2 1.998291019111753 0  1.3 1.998291019111753 0  1.4 1.998291019111753 0  1.5 1.998291019111753 0  1.6 1.998291019111753 0  1.7 1.998291019111753 0  1.8 1.998291019111753 0  1.9 1.998291019111753 0  2 1.998291019111753 0  0 2 0  0.1 2 0  0.2 2 0  0.3 2 0  0.4 2 0  0.5 2 0  0.6000000000000001 2 0  0.7000000000000001 2 0  0.8 2 0  0.9 2 0  1 2 0  1.1 2 0  1.2 2 0  1.3 2 0  1.4 2 0  1.5 2 0  1.6 2 0  1.7 2 0  1.8 2 0  1.9 2 0  2 2 0  </DataArray>
</Points>
<Cells>
<DataArray  type="UInt32"  Name="connectivity"  format="ascii">0 1 22  0 21 22  1 2 23  1 22 23  2 3 24  2 23 24  3 4 25  3 24 25  4 5 26  4 25 26  5 6 27  5 26 27  6 7 28  6 27 28  7 8 29  7 28 29  8 9 30  8 29 30  9 10 31  9 30 31  10 11 32  10 31 32  11 12 33  11 32 33  12 13 34  12 33 34  13 14 35  13 34 35  14 15 36  14 35 36  15 16 37  15 36 37  16 17 38  16 37 38  17 18 39  17 38 39  18 19 40  18 39 40  19 20 41  19 40 41  21 22 43  21 42 43  22 23 44  22 43 44  23 24 45  23 44 45  24 25 46  24 45 46  25 26 47  25 46 47  26 27 48  26 47 48  27 28 49  27 48 49  28 29 50  28 49 50  29 30 51  29 50 51  30 31 52  30 51 52  31 32 53  31 52 53  32 33 54  32 53 54  33 34 55  33 54 55  34 35 56  34 55 56  35 36 57  35 56 57  36 37 58  36 57 58  37 38 59  37 58 59  38 39 60  38 59 60  39 40 61  39 60 61  40 41 62  40 61 62  42 43 64  42 63 64  43 44 65  43 64 65  44 45 66  44 65 66  45 46 67  45 66 67  46 47 68  46 67 68  47 48 69  47 68 69  48 49 70  48 69 70  49 50 71  49 70 71  50 51 72  50 71 72  51 52 73  51 72 73  52 53 74  52 73 74  53 54 75  53 74 75  54 55 76  54 75 76  55 56 77  55 76 77  56 57 78  56 77 78  57 58 79  57 78 79  58 59 80  58 79 80  59 60 81  59 80 81  60 61 82  60 81 82  61 62 83  61 82 83  63 64 85  63 84 85  64 65 86  64 85 86  65 66 87  65 86 87  66 67 88  66 87 88  67 68 89  67 88 89  68 69 90  68 89 90  69 70 91  69 90 91  70 71 92  70 91 92  71 72 93  71 92 93  72 73 94  72 93 94  73 74 95  73 94 95  74 75 96  74 95 96  75 76 97  75 96 97  76 77 98  76 97 98  77 78 99  77 98 99  78 79 100  78 99 100  79 80 101  79 100 101  80 81 102  80 101 102  81 82 103  81 102 103  82 83 104  82 103 104  84 85 106  84 105 106  85 86 107  85 106 107  86 87 108  86 107 108  87 88 109  87 108 109  88 89 110  88 109 110  89 90 111  89 110 111  90 91 112  90 111 112  91 92 113  91 112 113  92 93 114  92 113 114  93 94 115  93 114 115  94 95 116  94 115 116  95 96 117  95 116 117  96 97 118  96 117 118  97 98 119  97 118 119  98 99 120  98 119 120  99 100 121  99 120 121  100 101 122  100 121 122  101 102 123  101 122 123  102 103 124  102 123 124  103 104 125  103 124 125  105 106 127  105 126 127  106 107 128  106 127 128  107 108 129  107 128 129  108 109 130  108 129 130  109 110 131  109 130 131  110 111 132  110 131 132  111 112 133  111 132 133  112 113 134  112 133 134  113 114 135  113 134 135  114 115 136  114 135 136  115 116 137  115 136 137  116 117 138  116 137 138  117 118 139  117 138 139  118 119 140  118 139 140  119 120 141  119 140 141  120 121 142  120 141 142  121 122 143  121 142 143  122 123 144  122 143 144  123 124 145  123 144 145  124 125 146  124 145 146  126 127 148  126 147 148  127 128 149  127 148 149  128 129 150  128 149 150  129 130 151  129 150 151  130 131 152  130 151 152  131 132 153  131 152 153  132 133 154  132 153 154  133 134 155  133 154 155  134 135 156  134 155 156  135 136 157  135 156 157  136 137 158  136 157 158  137 138 159  137 158 159  138 139 160  138 159 160  139 140 161  139 160 161  140 141 162  140 161 162  141 142 163  141 162 163  142 143 164  142 163 164  143 144 165  143 164 165  144 145 166  144 165 166  145 146 167  145 166 167  147 148 169  147 168 169  148 149 170  148 169 170  149 150 171  149 170 171  150 151 172  150 171 172  151 152 173  151 172 173  152 153 174  152 173 174  153 154 175  153 174 175  154 155 176  154 175 176  155 156 177  155 176 177  156 157 178  156 177 178  157 158 179  157 178 179  158 159 180  158 179 180  159 160 181  159 180 181  160 161 182  160 181 182  161 162 183  161 182 183  162 163 184  162 183 184  163 164 185  163 184 185  164 165 186  164 185 186  165 166 187  165 186 187  166 167 188  166 187 188  168 169 190  168 189 190  169 170 191  169 190 191  170 171 192  170 191 192  171 172 193  171 192 193  172 173 194  172 193 194  173 174 195  173 194 195  174 175 196  174 195 196  175 176 197  175 196 197  176 177 198  176 197 198  177 178 199  177 198 199  178 179 200  178 199 200  179 180 201  179 200 201  180 181 202  180 201 202  181 182 203  181 202 203  182 183 204  182 203 204  183 184 205  183 204 205  184 185 206  184 205 206  185 186 207  185 206 207  186 187 208  186 207 208  187 188 209  187 208 209  189 190 211  189 210 211  190 191 212  190 211 212  191 192 213  191 212 213  192 193 214  192 213 214  193 194 215  193 214 215  194 195 216  194 215 216  195 196 217  195 216 217  196 197 218  196 217 218  197 198 219  197 218 219  198 199 220  198 219 220  199 200 221  199 220 221  200 201 222  200 221 222  201 202 223  201 222 223  202 203 224  202 223 224  203 204 225  203 224 225  204 205 226  204 225 226  205 206 227  205 226 227  206 207 228  206 227 228  207 208 229  207 228 229  208 209 230  208 229 230  210 211 232  210 231 232  211 212 233  211 232 233  212 213 234  212 233 234  213 214 235  213 234 235  214 215 236  214 235 236  215 216 237  215 236 237  216 217 238  216 237 238  217 218 239  217 238 239  218 219 240  218 239 240  219 220 241  219 240 241  220 221 242  220 241 242  221 222 243  221 242 243  222 223 244  222 243 244  223 224 245  223 244 245  224 225 246  224 245 246  225 226 247  225 246 247  226 227 248  226 247 248  227 228 249  227 248 249  228 229 250  228 249 250  229 230 251  229 250 251  231 232 253  231 252 253  232 233 254  232 253 254  233 234 255  233 254 255  234 235 256  234 255 256  235 236 257  235 256 257  236 237 258  236 257 258  237 238 259  237 258 259  238 239 260  238 259 260  239 240 261  239 260 261  240 241 262  240 261 262  241 242 263  241 262 263  242 243 264  242 263 264  243 244 265  243 264 265  244 245 266  244 265 266  245 246 267  245 266 267  246 247 268  246 267 268  247 248 269  247 268 269  248 249 270  248 269 270  249 250 271  249 270 271  250 251 272  250 271 272  252 253 274  252 273 274  253 254 275  253 274 275  254 255 276  254 275 276  255 256 277  255 276 277  256 257 278  256 277 278  257 258 279  257 278 279  258 259 280  258 279 280  259 260 281  259 280 281  260 261 282  260 281 282  261 262 283  261 282 283  262 263 284  262 283 284  263 264 285  263 284 285  264 265 286  264 285 286  265 266 287  265 286 287  266 267 288  266 287 288  267 268 289  267 288 289  268 269 290  268 289 290  269 270 291  269 290 291  270 271 292  270 291 292  271 272 293  271 292 293  273 274 295  273 294 295  274 275 296  274 295 296  275 276 297  275 296 297  276 277 298  276 297 298  277 278 299  277 298 299  278 279 300  278 299 300  279 280 301  279 300 301  280 281 302  280 301 302  281 282 303  281 302 303  282 283 304  282 303 304  283 284 305  283 304 305  284 285 306  284 305 306  285 286 307  285 306 307  286 287 308  286 307 308  287 288 309  287 308 309  288 289 310  288 309 310  289 290 311  289 310 311  290 291 312  290 311 312  291 292 313  291 312 313  292 293 314  292 313 314  294 295 316  294 315 316  295 296 317  295 316 317  296 297 318  296 317 318  297 298 319  297 318 319  298 299 320  298 319 320  299 300 321  299 320 321  300 301 322  300 321 322  301 302 323  301 322 323  302 303 324  302 323 324  303 304 325  303 324 325  304 305 326  304 325 326  305 306 327  305 326 327  306 307 328  306 327 328  307 308 329  307 328 329  308 309 330  308 329 330  309 310 331  309 330 331  310 311 332  310 331 332  311 312 333  311 332 333  312 313 334  312 333 334  313 314 335  313 334 335  315 316 337  315 336 337  316 317 338  316 337 338  317 318 339  317 338 339  318 319 340  318 339 340  319 320 341  319 340 341  320 321 342  320 341 342  321 322 343  321 342 343  322 323 344  322 343 344  323 324 345  323 344 345  324 325 346  324 345 346  325 326 347  325 346 347  326 327 348  326 347 348  327 328 349  327 348 349  328 329 350  328 349 350  329 330 351  329 350 351  330 331 352  330 351 352  331 332 353  331 352 353  332 333 354  332 353 354  333 334 355  333 354 355  334 335 356  334 355 356  336 337 358  336 357 358  337 338 359  337 358 359  338 339 360  338 359 360  339 340 361  339 360 361  340 341 362  340 361 362  341 342 363  341 362 363  342 343 364  342 363 364  343 344 365  343 364 365  344 345 366  344 365 366  345 346 367  345 366 367  346 347 368  346 367 368  347 348 369  347 368 369  348 349 370  348 369 370  349 350 371  349 370 371  350 351 372  350 371 372  351 352 373  351 372 373  352 353 374  352 373 374  353 354 375  353 374 375  354 355 376  354 375 376  355 356 377  355 376 377  357 358 379  357 378 379  358 359 380  358 379 380  359 360 381  359 380 381  360 361 382  360 381 382  361 362 383  361 382 383  362 363 384  362 383 384  363 364 385  363 384 385  364 365 386  364 385 386  365 366 387  365 386 387  366 367 388  366 387 388  367 368 389  367 388 389  368 369 390  368 389 390  369 370 391  369 390 391  370 371 392  370 391 392  371 372 393  371 392 393  372 373 394  372 393 394  373 374 395  373 394 395  374 375 396  374 395 396  375 376 397  375 396 397  376 377 398  376 397 398  378 379 400  378 399 400  379 380 401  379 400 401  380 381 402  380 401 402  381 382 403  381 402 403  382 383 404  382 403 404  383 384 405  383 404 405  384 385 406  384 405 406  385 386 407  385 406 407  386 387 408  386 407 408  387 388 409  387 408 409  388 389 410  388 409 410  389 390 411  389 410 411  390 391 412  390 411 412  391 392 413  391 412 413  392 393 414  392 413 414  393 394 415  393 414 415  394 395 416  394 415 416  395 396 417  395 416 417  396 397 418  396 417 418  397 398 419  397 418 419  399 400 421  399 420 421  400 401 422  400 421 422  401 402 423  401 422 423  402 403 424  402 423 424  403 404 425  403 424 425  404 405 426  404 425 426  405 406 427  405 426 427  406 407 428  406 427 428  407 408 429  407 428 429  408 409 430  408 429 430  409 410 431  409 430 431  410 411 432  410 431 432  411 412 433  411 432 433  412 413 434  412 433 434  413 414 435  413 434 435  414 415 436  414 435 436  415 416 437  415 436 437  416 417 438  416 437 438  417 418 439  417 438 439  418 419 440  418 439 440  420 421 442  420 441 442  421 422 443  421 442 443  422 423 444  422 443 444  423 424 445  423 444 445  424 425 446  424 445 446  425 426 447  425 446 447  426 427 448  426 447 448  427 428 449  427 448 449  428 429 450  428 449 450  429 430 451  429 450 451  430 431 452  430 451 452  431 432 453  431 452 453  432 433 454  432 453 454  433 434 455  433 454 455  434 435 456  434 455 456  435 436 457  435 456 457  436 437 458  436 457 458  437 438 459  437 458 459  438 439 460  438 459 460  439 440 461  439 460 461  441 442 463  441 462 463  442 443 464  442 463 464  443 444 465  443 464 465  444 445 466  444 465 466  445 446 467  445 466 467  446 447 468  446 467 468  447 448 469  447 468 469  448 449 470  448 469 470  449 450 471  449 470 471  450 451 472  450 471 472  451 452 473  451 472 473  452 453 474  452 473 474  453 454 475  453 474 475  454 455 476  454 475 476  455 456 477  455 476 477  456 457 478  456 477 478  457 458 479  457 478 479  458 459 480  458 479 480  459 460 481  459 480 481  460 461 482  460 481 482  462 463 484  462 483 484  463 464 485  463 484 485  464 465 486  464 485 486  465 466 487  465 486 487  466 467 488  466 487 488  467 468 489  467 488 489  468 469 490  468 489 490  469 470 491  469 490 491  470 471 492  470 491 492  471 472 493  471 492 493  472 473 494  472 493 494  473 474 495  473 494 495  474 475 496  474 495 496  475 476 497  475 496 497  476 477 498  476 497 498  477 478 499  477 498 499  478 479 500  478 499 500  479 480 501  479 500 501  480 481 502  480 501 502  481 482 503  481 502 503  483 484 505  483 504 505  484 485 506  484 505 506  485 486 507  485 506 507  486 487 508  486 507 508  487 488 509  487 508 509  488 489 510  488 509 510  489 490 511  489 510 511  490 491 512  490 511 512  491 492 513  491 512 513  492 493 514  492 513 514  493 494 515  493 514 515  494 495 516  494 515 516  495 496 517  495 516 517  496 497 518  496 517 518  497 498 519  497 518 519  498 499 520  498 519 520  499 500 521  499 520 521  500 501 522  500 521 522  501 502 523  501 522 523  502 503 524  502 523 524  504 505 526  504 525 526  505 506 527  505 526 527  506 507 528  506 527 528  507 508 529  507 528 529  508 509 530  508 529 530  509 510 531  509 530 531  510 511 532  510 531 532  511 512 533  511 532 533  512 513 534  512 533 534  513 514 535  513 534 535  514 515 536  514 535 536  515 516 537  515 536 537  516 517 538  516 537 538  517 518 539  517 538 539  518 519 540  518 539 540  519 520 541  519 540 541  520 521 542  520 541 542  521 522 543  521 542 543  522 523 544  522 543 544  523 524 545  523 544 545  525 526 547  525 546 547  526 527 548  526 547 548  527 528 549  527 548 549  528 529 550  528 549 550  529 530 551  529 550 551  530 531 552  530 551 552  531 532 553  531 552 553  532 533 554  532 553 554  533 534 555  533 554 555  534 535 556  534 555 556  535 536 557  535 556 557  536 537 558  536 557 558  537 538 559  537 558 559  538 539 560  538 559 560  539 540 561  539 560 561  540 541 562  540 561 562  541 542 563  541 562 563  542 543 564  542 563 564  543 544 565  543 564 565  544 545 566  544 565 566  546 547 568  546 567 568  547 548 569  547 568 569  548 549 570  548 569 570  549 550 571  549 570 571  550 551 572  550 571 572  551 552 573  551 572 573  552 553 574  552 573 574  553 554 575  553 574 575  554 555 576  554 575 576  555 556 577  555 576 577  556 557 578  556 577 578  557 558 579  557 578 579  558 559 580  558 579 580  559 560 581  559 580 581  560 561 582  560 581 582  561 562 583  561 582 583  562 563 584  562 583 584  563 564 585  563 584 585  564 565 586  564 585 586  565 566 587  565 586 587  567 568 589  567 588 589  568 569 590  568 589 590  569 570 591  569 590 591  570 571 592  570 591 592  571 572 593  571 592 593  572 573 594  572 593 594  573 574 595  573 594 595  574 575 596  574 595 596  575 576 597  575 596 597  576 577 598  576 597 598  577 578 599  577 598 599  578 579 600  578 599 600  579 580 601  579 600 601  580 581 602  580 601 602  581 582 603  581 602 603  582 583 604  582 603 604  583 584 605  583 604 605  584 585 606  584 605 606  585 586 607  585 606 607  586 587 608  586 607 608  588 589 610  588 609 610  589 590 611  589 610 611  590 591 612  590 611 612  591 592 613  591 612 613  592 593 614  592 613 614  593 594 615  593 614 615  594 595 616  594 615 616  595 596 617  595 616 617  596 597 618  596 617 618  597 598 619  597 618 619  598 599 620  598 619 620  599 600 621  599 620 621  600 601 622  600 621 622  601 602 623  601 622 623  602 603 624  602 623 624  603 604 625  603 624 625  604 605 626  604 625 626  605 606 627  605 626 627  606 607 628  606 627 628  607 608 629  607 628 629  609 610 631  609 630 631  610 611 632  610 631 632  611 612 633  611 632 633  612 613 634  612 633 634  613 614 635  613 634 635  614 615 636  614 635 636  615 616 637  615 636 637  616 617 638  616 637 638  617 618 639  617 638 639  618 619 640  618 639 640  619 620 641  619 640 641  620 621 642  620 641 642  621 622 643  621 642 643  622 623 644  622 643 644  623 624 645  623 644 645  624 625 646  624 645 646  625 626 647  625 646 647  626 627 648  626 647 648  627 628 649  627 648 649  628 629 650  628 649 650  630 631 652  630 651 652  631 632 653  631 652 653  632 633 654  632 653 654  633 634 655  633 654 655  634 635 656  634 655 656  635 636 657  635 656 657  636 637 658  636 657 658  637 638 659  637 658 659  638 639 660  638 659 660  639 640 661  639 660 661  640 641 662  640 661 662  641 642 663  641 662 663  642 643 664  642 663 664  643 644 665  643 664 665  644 645 666  644 665 666  645 646 667  645 666 667  646 647 668  646 667 668  647 648 669  647 668 669  648 649 670  648 669 670  649 650 671  649 670 671  651 652 673  651 672 673  652 653 674  652 673 674  653 654 675  653 674 675  654 655 676  654 675 676  655 656 677  655 676 677  656 657 678  656 677 678  657 658 679  657 678 679  658 659 680  658 679 680  659 660 681  659 680 681  660 661 682  660 681 682  661 662 683  661 682 683  662 663 684  662 683 684  663 664 685  663 684 685  664 665 686  664 685 686  665 666 687  665 686 687  666 667 688  666 687 688  667 668 689  667 688 689  668 669 690  668 689 690  669 670 691  669 690 691  670 671 692  670 691 692  672 673 694  672 693 694  673 674 695  673 694 695  674 675 696  674 695 696  675 676 697  675 696 697  676 677 698  676 697 698  677 678 699  677 698 699  678 679 700  678 699 700  679 680 701  679 700 701  680 681 702  680 701 702  681 682 703  681 702 703  682 683 704  682 703 704  683 684 705  683 704 705  684 685 706  684 705 706  685 686 707  685 706 707  686 687 708  686 707 708  687 688 709  687 708 709  688 689 710  688 709 710  689 690 711  689 710 711  690 691 712  690 711 712  691 692 713  691 712 713  693 694 715  693 714 715  694 695 716  694 715 716  695 696 717  695 716 717  696 697 718  696 717 718  697 698 719  697 718 719  698 699 720  698 719 720  699 700 721  699 720 721  700 701 722  700 721 722  701 702 723  701 722 723  702 703 724  702 723 724  703 704 725  703 724 725  704 705 726  704 725 726  705 706 727  705 726 727  706 707 728  706 727 728  707 708 729  707 728 729  708 709 730  708 729 730  709 710 731  709 730 731  710 711 732  710 731 732  711 712 733  711 732 733  712 713 734  712 733 734  714 715 736  714 735 736  715 716 737  715 736 737  716 717 738  716 737 738  717 718 739  717 738 739  718 719 740  718 739 740  719 720 741  719 740 741  720 721 742  720 741 742  721 722 743  721 742 743  722 723 744  722 743 744  723 724 745  723 744 745  724 725 746  724 745 746  725 726 747  725 746 747  726 727 748  726 747 748  727 728 749  727 748 749  728 729 750  728 749 750  729 730 751  729 750 751  730 731 752  730 751 752  731 732 753  731 752 753  732 733 754  732 753 754  733 734 755  733 754 755  735 736 757  735 756 757  736 737 758  736 757 758  737 738 759  737 758 759  738 739 760  738 759 760  739 740 761  739 760 761  740 741 762  740 761 762  741 742 763  741 762 763  742 743 764  742 763 764  743 744 765  743 764 765  744 745 766  744 765 766  745 746 767  745 766 767  746 747 768  746 767 768  747 748 769  747 768 769  748 749 770  748 769 770  749 750 771  749 770 771  750 751 772  750 771 772  751 752 773  751 772 773  752 753 774  752 773 774  753 754 775  753 774 775  754 755 776  754 775 776  756 757 778  756 777 778  757 758 779  757 778 779  758 759 780  758 779 780  759 760 781  759 780 781  760 761 782  760 781 782  761 762 783  761 782 783  762 763 784  762 783 784  763 764 785  763 784 785  764 765 786  764 785 786  765 766 787  765 786 787  766 767 788  766 787 788  767 768 789  767 788 789  768 769 790  768 789 790  769 770 791  769 790 791  770 771 792  770 791 792  771 772 793  771 792 793  772 773 794  772 793 794  773 774 795  773 794 795  774 775 796  774 795 796  775 776 797  775 796 797  777 778 799  777 798 799  778 779 800  778 799 800  779 780 801  779 800 801  780 781 802  780 801 802  781 782 803  781 802 803  782 783 804  782 803 804  783 784 805  783 804 805  784 785 806  784 805 806  785 786 807  785 806 807  786 787 808  786 807 808  787 788 809  787 808 809  788 789 810  788 809 810  789 790 811  789 810 811  790 791 812  790 811 812  791 792 813  791 812 813  792 793 814  792 813 814  793 794 815  793 814 815  794 795 816  794 815 816  795 796 817  795 816 817  796 797 818  796 817 818  798 799 820  798 819 820  799 800 821  799 820 821  800 801 822  800 821 822  801 802 823  801 822 823  802 803 824  802 823 824  803 804 825  803 824 825  804 805 826  804 825 826  805 806 827  805 826 827  806 807 828  806 827 828  807 808 829  807 828 829  808 809 830  808 829 830  809 810 831  809 830 831  810 811 832  810 831 832  811 812 833  811 832 833  812 813 834  812 833 834  813 814 835  813 834 835  814 815 836  814 835 836  815 816 837  815 836 837  816 817 838  816 837 838  817 818 839  817 838 839  819 820 841  819 840 841  820 821 842  820 841 842  821 822 843  821 842 843  822 823 844  822 843 844  823 824 845  823 844 845  824 825 846  824 845 846  825 826 847  825 846 847  826 827 848  826 847 848  827 828 849  827 848 849  828 829 850  828 849 850  829 830 851  829 850 851  830 831 852  830 851 852  831 832 853  831 852 853  832 833 854  832 853 854  833 834 855  833 854 855  834 835 856  834 855 856  835 836 857  835 856 857  836 837 858  836 857 858  837 838 859  837 858 859  838 839 860  838 859 860  840 841 862  840 861 862  841 842 863  841 862 863  842 843 864  842 863 864  843 844 865  843 864 865  844 845 866  844 865 866  845 846 867  845 866 867  846 847 868  846 867 868  847 848 869  847 868 869  848 849 870  848 869 870  849 850 871  849 870 871  850 851 872  850 871 872  851 852 873  851 872 873  852 853 874  852 873 874  853 854 875  853 874 875  854 855 876  854 875 876  855 856 877  855 876 877  856 857 878  856 877 878  857 858 879  857 878 879  858 859 880  858 879 880  859 860 881  859 880 881  861 862 883  861 882 883  862 863 884  862 883 884  863 864 885  863 884 885  864 865 886  864 885 886  865 866 887  865 886 887  866 867 888  866 887 888  867 868 889  867 888 889  868 869 890  868 889 890  869 870 891  869 890 891  870 871 892  870 891 892  871 872 893  871 892 893  872 873 894  872 893 894  873 874 895  873 894 895  874 875 896  874 895 896  875 876 897  875 896 897  876 877 898  876 897 898  877 878 899  877 898 899  878 879 900  878 899 900  879 880 901  879 900 901  880 881 902  880 901 902  882 883 904  882 903 904  883 884 905  883 904 905  884 885 906  884 905 906  885 886 907  885 906 907  886 887 908  886 907 908  887 888 909  887 908 909  888 889 910  888 909 910  889 890 911  889 910 911  890 891 912  890 911 912  891 892 913  891 912 913  892 893 914  892 913 914  893 894 915  893 914 915  894 895 916  894 915 916  895 896 917  895 916 917  896 897 918  896 917 918  897 898 919  897 918 919  898 899 920  898 919 920  899 900 921  899 920 921  900 901 922  900 921 922  901 902 923  901 922 923  903 904 925  903 924 925  904 905 926  904 925 926  905 906 927  905 926 927  906 907 928  906 927 928  907 908 929  907 928 929  908 909 930  908 929 930  909 910 931  909 930 931  910 911 932  910 931 932  911 912 933  911 932 933  912 913 934  912 933 934  913 914 935  913 934 935  914 915 936  914 935 936  915 916 937  915 936 937  916 917 938  916 937 938  917 918 939  917 938 939  918 919 940  918 939 940  919 920 941  919 940 941  920 921 942  920 941 942  921 922 943  921 942 943  922 923 944  922 943 944  924 925 946  924 945 946  925 926 947  925 946 947  926 927 948  926 947 948  927 928 949  927 948 949  928 929 950  928 949 950  929 930 951  929 950 951  930 931 952  930 951 952  931 932 953  931 952 953  932 933 954  932 953 954  933 934 955  933 954 955  934 935 956  934 955 956  935 936 957  935 956 957  936 937 958  936 957 958  937 938 959  937 958 959  938 939 960  938 959 960  939 940 961  939 960 961  940 941 962  940 961 962  941 942 963  941 962 963  942 943 964  942 963 964  943 944 965  943 964 965  945 946 967  945 966 967  946 947 968  946 967 968  947 948 969  947 968 969  948 949 970  948 969 970  949 950 971  949 970 971  950 951 972  950 971 972  951 952 973  951 972 973  952 953 974  952 973 974  953 954 975  953 974 975  954 955 976  954 975 976  955 956 977  955 976 977  956 957 978  956 977 978  957 958 979  957 978 979  958 959 980  958 979 980  959 960 981  959 980 981  960 961 982  960 981 982  961 962 983  961 982 983  962 963 984  962 983 984  963 964 985  963 984 985  964 965 986  964 985 986  966 967 988  966 987 988  967 968 989  967 988 989  968 969 990  968 989 990  969 970 991  969 990 991  970 971 992  970 991 992  971 972 993  971 992 993  972 973 994  972 993 994  973 974 995  973 994 995  974 975 996  974 995 996  975 976 997  975 996 997  976 977 998  976 997 998  977 978 999  977 998 999  978 979 1000  978 999 1000  979 980 1001  979 1000 1001  980 981 1002  980 1001 1002  981 982 1003  981 1002 1003  982 983 1004  982 1003 1004  983 984 1005  983 1004 1005  984 985 1006  984 1005 1006  985 986 1007  985 1006 1007  987 988 1009  987 1008 1009  988 989 1010  988 1009 1010  989 990 1011  989 1010 1011  990 991 1012  990 1011 1012  991 992 1013  991 1012 1013  992 993 1014  992 1013 1014  993 994 1015  993 1014 1015  994 995 1016  994 1015 1016  995 996 1017  995 1016 1017  996 997 1018  996 1017 1018  997 998 1019  997 1018 1019  998 999 1020  998 1019 1020  999 1000 1021  999 1020 1021  1000 1001 1022  1000 1021 1022  1001 1002 1023  1001 1022 1023  1002 1003 1024  1002 1023 1024  1003 1004 1025  1003 1024 1025  1004 1005 1026  1004 1025 1026  1005 1006 1027  1005 1026 1027  1006 1007 1028  1006 1027 1028  1008 1009 1030  1008 1029 1030  1009 1010 1031  1009 1030 1031  1010 1011 1032  1010 1031 1032  1011 1012 1033  1011 1032 1033  1012 1013 1034  1012 1033 1034  1013 1014 1035  1013 1034 1035  1014 1015 1036  1014 1035 1036  1015 1016 1037  1015 1036 1037  1016 1017 1038  1016 1037 1038  1017 1018 1039  1017 1038 1039  1018 1019 1040  1018 1039 1040  1019 1020 1041  1019 1040 1041  1020 1021 1042  1020 1041 1042  1021 1022 1043  1021 1042 1043  1022 1023 1044  1022 1043 1044  1023 1024 1045  1023 1044 1045  1024 1025 1046  1024 1045 1046  1025 1026 1047  1025 1046 1047  1026 1027 1048  1026 1047 1048  1027 1028 1049  1027 1048 1049  1029 1030 1051  1029 1050 1051  1030 1031 1052  1030 1051 1052  1031 1032 1053  1031 1052 1053  1032 1033 1054  1032 1053 1054  1033 1034 1055  1033 1054 1055  1034 1035 1056  1034 1055 1056  1035 1036 1057  1035 1056 1057  1036 1037 1058  1036 1057 1058  1037 1038 1059  1037 1058 1059  1038 1039 1060  1038 1059 1060  1039 1040 1061  1039 1060 1061  1040 1041 1062  1040 1061 1062  1041 1042 1063  1041 1062 1063  1042 1043 1064  1042 1063 1064  1043 1044 1065  1043 1064 1065  1044 1045 1066  1044 1065 1066  1045 1046 1067  1045 1066 1067  1046 1047 1068  1046 1067 1068  1047 1048 1069  1047 1068 1069  1048 1049 1070  1048 1069 1070  1050 1051 1072  1050 1071 1072  1051 1052 1073  1051 1072 1073  1052 1053 1074  1052 1073 1074  1053 1054 1075  1053 1074 1075  1054 1055 1076  1054 1075 1076  1055 1056 1077  1055 1076 1077  1056 1057 1078  1056 1077 1078  1057 1058 1079  1057 1078 1079  1058 1059 1080  1058 1079 1080  1059 1060 1081  1059 1080 1081  1060 1061 1082  1060 1081 1082  1061 1062 1083  1061 1082 1083  1062 1063 1084  1062 1083 1084  1063 1064 1085  1063 1084 1085  1064 1065 1086  1064 1085 1086  1065 1066 1087  1065 1086 1087  1066 1067 1088  1066 1087 1088  1067 1068 1089  1067 1088 1089  1068 1069 1090  1068 1089 1090  1069 1070 1091  1069 1090 1091  </DataArray>
<DataArray  type="UInt32"  Name="offsets"  format="ascii">3 6 9 12 15 18 21 24 27 30 33 36 39 42 45 48 51 54 57 60 63 66 69 72 75 78 81 84 87 90 93 96 99 102 105 108 111 114 117 120 123 126 129 132 135 138 141 144 147 150 153 156 159 162 165 168 171 174 177 180 183 186 189 192 195 198 201 204 207 210 213 216 219 222 225 228 231 234 237 240 243 246 249 252 255 258 261 264 267 270 273 276 279 282 285 288 291 294 297 300 303 306 309 312 315 318 321 324 327 330 333 336 339 342 345 348 351 354 357 360 363 366 369 372 375 378 381 384 387 390 393 396 399 402 405 408 411 414 417 420 423 426 429 432 435 438 441 444 447 450 453 456 459 462 465 468 471 474 477 480 483 486 489 492 495 498 501 504 507 510 513 516 519 522 525 528 531 534 537 540 543 546 549 552 555 558 561 564 567 570 573 576 579 582 585 588 591 594 597 600 603 606 609 612 615 618 621 624 627 630 633 636 639 642 645 648 651 654 657 660 663 666 669 672 675 678 681 684 687 690 693 696 699 702 705 708 711 714 717 720 723 726 729 732 735 738 741 744 747 750 753 756 759 762 765 768 771 774 777 780 783 786 789 792 795 798 801 804 807 810 813 816 819 822 825 828 831 834 837 840 843 846 849 852 855 858 861 864 867 870 873 876 879 882 885 888 891 894 897 900 903 906 909 912 915 918 921 924 927 930 933 936 939 942 945 948 951 954 957 960 963 966 969 972 975 978 981 984 987 990 993 996 999 1002 1005 1008 1011 1014 1017 1020 1023 1026 1029 1032 1035 1038 1041 1044 1047 1050 1053 1056 1059 1062 1065 1068 1071 1074 1077 1080 1083 1086 1089 1092 1095 1098 1101 1104 1107 1110 1113 1116 1119 1122 1125 1128 1131 1134 1137 1140 1143 1146 1149 1152 1155 1158 1161 1164 1167 1170 1173 1176 1179 1182 1185 1188 1191 1194 1197 1200 1203 1206 1209 1212 1215 1218 1221 1224 1227 1230 1233 1236 1239 1242 1245 1248 1251 1254 1257 1260 1263 1266 1269 1272 1275 1278 1281 1284 1287 1290 1293 1296 1299 1302 1305 1308 1311 1314 1317 1320 1323 1326 1329 1332 1335 1338 1341 1344 1347 1350 1353 1356 1359 1362 1365 1368 1371 1374 1377 1380 1383 1386 1389 1392 1395 1398 1401 1404 1407 1410 1413 1416 1419 1422 1425 1428 1431 1434 1437 1440 1443 1446 1449 1452 1455 1458 1461 1464 1467 1470 1473 1476 1479 1482 1485 1488 1491 1494 1497 1500 1503 1506 1509 1512 1515 1518 1521 1524 1527 1530 1533 1536 1539 1542 1545 1548 1551 1554 1557 1560 1563 1566 1569 1572 1575 1578 1581 1584 1587 1590 1593 1596 1599 1602 1605 1608 1611 1614 1617 1620 1623 1626 1629 1632 1635 1638 1641 1644 1647 1650 1653 1656 1659 1662 1665 1668 1671 1674 1677 1680 1683 1686 1689 1692 1695 1698 1701 1704 1707 1710 1713 1716 1719 1722 1725 1728 1731 1734 1737 1740 1743 1746 1749 1752 1755 1758 1761 1764 1767 1770 1773 1776 1779 1782 1785 1788 1791 1794 1797 1800 1803 1806 1809 1812 1815 1818 1821 1824 1827 1830 1833 1836 1839 1842 1845 1848 1851 1854 1857 1860 1863 1866 1869 1872 1875 1878 1881 1884 1887 1890 1893 1896 1899 1902 1905 1908 1911 1914 1917 1920 1923 1926 1929 1932 1935 1938 1941 1944 1947 1950 1953 1956 1959 1962 1965 1968 1971 1974 1977 1980 1983 1986 1989 1992 1995 1998 2001 2004 2007 2010 2013 2016 2019 2022 2025 2028 2031 2034 2037 2040 2043 2046 2049 2052 2055 2058 2061 2064 2067 2070 2073 2076 2079 2082 2085 2088 2091 2094 2097 2100 2103 2106 2109 2112 2115 2118 2121 2124 2127 2130 2133 2136 2139 2142 2145 2148 2151 2154 2157 2160 2163 2166 2169 2172 2175 2178 2181 2184 2187 2190 2193 2196 2199 2202 2205 2208 2211 2214 2217 2220 2223 2226 2229 2232 2235 2238 2241 2244 2247 2250 2253 2256 2259 2262 2265 2268 2271 2274 2277 2280 2283 2286 2289 2292 2295 2298 2301 2304 2307 2310 2313 2316 2319 2322 2325 2328 2331 2334 2337 2340 2343 2346 2349 2352 2355 2358 2361 2364 2367 2370 2373 2376 2379 2382 2385 2388 2391 2394 2397 2400 2403 2406 2409 2412 2415 2418 2421 2424 2427 2430 2433 2436 2439 2442 2445 2448 2451 2454 2457 2460 2463 2466 2469 2472 2475 2478 2481 2484 2487 2490 2493 2496 2499 2502 2505 2508 2511 2514 2517 2520 2523 2526 2529 2532 2535 2538 2541 2544 2547 2550 2553 2556 2559 2562 2565 2568 2571 2574 2577 2580 2583 2586 2589 2592 2595 2598 2601 2604 2607 2610 2613 2616 2619 2622 2625 2628 2631 2634 2637 2640 2643 2646 2649 2652 2655 2658 2661 2664 2667 2670 2673 2676 2679 2682 2685 2688 2691 2694 2697 2700 2703 2706 2709 2712 2715 2718 2721 2724 2727 2730 2733 2736 2739 2742 2745 2748 2751 2754 2757 2760 2763 2766 2769 2772 2775 2778 2781 2784 2787 2790 2793 2796 2799 2802 2805 2808 2811 2814 2817 2820 2823 2826 2829 2832 2835 2838 2841 2844 2847 2850 2853 2856 2859 2862 2865 2868 2871 2874 2877 2880 2883 2886 2889 2892 2895 2898 2901 2904 2907 2910 2913 2916 2919 2922 2925 2928 2931 2934 2937 2940 2943 2946 2949 2952 2955 2958 2961 2964 2967 2970 2973 2976 2979 2982 2985 2988 2991 2994 2997 3000 3003 3006 3009 3012 3015 3018 3021 3024 3027 3030 3033 3036 3039 3042 3045 3048 3051 3054 3057 3060 3063 3066 3069 3072 3075 3078 3081 3084 3087 3090 3093 3096 3099 3102 3105 3108 3111 3114 3117 3120 3123 3126 3129 3132 3135 3138 3141 3144 3147 3150 3153 3156 3159 3162 3165 3168 3171 3174 3177 3180 3183 3186 3189 3192 3195 3198 3201 3204 3207 3210 3213 3216 3219 3222 3225 3228 3231 3234 3237 3240 3243 3246 3249 3252 3255 3258 3261 3264 3267 3270 3273 3276 3279 3282 3285 3288 3291 3294 3297 3300 3303 3306 3309 3312 3315 3318 3321 3324 3327 3330 3333 3336 3339 3342 3345 3348 3351 3354 3357 3360 3363 3366 3369 3372 3375 3378 3381 3384 3387 3390 3393 3396 3399 3402 3405 3408 3411 3414 3417 3420 3423 3426 3429 3432 3435 3438 3441 3444 3447 3450 3453 3456 3459 3462 3465 3468 3471 3474 3477 3480 3483 3486 3489 3492 3495 3498 3501 3504 3507 3510 3513 3516 3519 3522 3525 3528 3531 3534 3537 3540 3543 3546 3549 3552 3555 3558 3561 3564 3567 3570 3573 3576 3579 3582 3585 3588 3591 3594 3597 3600 3603 3606 3609 3612 3615 3618 3621 3624 3627 3630 3633 3636 3639 3642 3645 3648 3651 3654 3657 3660 3663 3666 3669 3672 3675 3678 3681 3684 3687 3690 3693 3696 3699 3702 3705 3708 3711 3714 3717 3720 3723 3726 3729 3732 3735 3738 3741 3744 3747 3750 3753 3756 3759 3762 3765 3768 3771 3774 3777 3780 3783 3786 3789 3792 3795 3798 3801 3804 3807 3810 3813 3816 3819 3822 3825 3828 3831 3834 3837 3840 3843 3846 3849 3852 3855 3858 3861 3864 3867 3870 3873 3876 3879 3882 3885 3888 3891 3894 3897 3900 3903 3906 3909 3912 3915 3918 3921 3924 3927 3930 3933 3936 3939 3942 3945 3948 3951 3954 3957 3960 3963 3966 3969 3972 3975 3978 3981 3984 3987 3990 3993 3996 3999 4002 4005 4008 4011 4014 4017 4020 4023 4026 4029 4032 4035 4038 4041 4044 4047 4050 4053 4056 4059 4062 4065 4068 4071 4074 4077 4080 4083 4086 4089 4092 4095 4098 4101 4104 4107 4110 4113 4116 4119 4122 4125 4128 4131 4134 4137 4140 4143 4146 4149 4152 4155 4158 4161 4164 4167 4170 4173 4176 4179 4182 4185 4188 4191 4194 4197 4200 4203 4206 4209 4212 4215 4218 4221 4224 4227 4230 4233 4236 4239 4242 4245 4248 4251 4254 4257 4260 4263 4266 4269 4272 4275 4278 4281 4284 4287 4290 4293 4296 4299 4302 4305 4308 4311 4314 4317 4320 4323 4326 4329 4332 4335 4338 4341 4344 4347 4350 4353 4356 4359 4362 4365 4368 4371 4374 4377 4380 4383 4386 4389 4392 4395 4398 4401 4404 4407 4410 4413 4416 4419 4422 4425 4428 4431 4434 4437 4440 4443 4446 4449 4452 4455 4458 4461 4464 4467 4470 4473 4476 4479 4482 4485 4488 4491 4494 4497 4500 4503 4506 4509 4512 4515 4518 4521 4524 4527 4530 4533 4536 4539 4542 4545 4548 4551 4554 4557 4560 4563 4566 4569 4572 4575 4578 4581 4584 4587 4590 4593 4596 4599 4602 4605 4608 4611 4614 4617 4620 4623 4626 4629 4632 4635 4638 4641 4644 4647 4650 4653 4656 4659 4662 4665 4668 4671 4674 4677 4680 4683 4686 4689 4692 4695 4698 4701 4704 4707 4710 4713 4716 4719 4722 4725 4728 4731 4734 4737 4740 4743 4746 4749 4752 4755 4758 4761 4764 4767 4770 4773 4776 4779 4782 4785 4788 4791 4794 4797 4800 4803 4806 4809 4812 4815 4818 4821 4824 4827 4830 4833 4836 4839 4842 4845 4848 4851 4854 4857 4860 4863 4866 4869 4872 4875 4878 4881 4884 4887 4890 4893 4896 4899 4902 4905 4908 4911 4914 4917 4920 4923 4926 4929 4932 4935 4938 4941 4944 4947 4950 4953 4956 4959 4962 4965 4968 4971 4974 4977 4980 4983 4986 4989 4992 4995 4998 5001 5004 5007 5010 5013 5016 5019 5022 5025 5028 5031 5034 5037 5040 5043 5046 5049 5052 5055 5058 5061 5064 5067 5070 5073 5076 5079 5082 5085 5088 5091 5094 5097 5100 5103 5106 5109 5112 5115 5118 5121 5124 5127 5130 5133 5136 5139 5142 5145 5148 5151 5154 5157 5160 5163 5166 5169 5172 5175 5178 5181 5184 5187 5190 5193 5196 5199 5202 5205 5208 5211 5214 5217 5220 5223 5226 5229 5232 5235 5238 5241 5244 5247 5250 5253 5256 5259 5262 5265 5268 5271 5274 5277 5280 5283 5286 5289 5292 5295 5298 5301 5304 5307 5310 5313 5316 5319 5322 5325 5328 5331 5334 5337 5340 5343 5346 5349 5352 5355 5358 5361 5364 5367 5370 5373 5376 5379 5382 5385 5388 5391 5394 5397 5400 5403 5406 5409 5412 5415 5418 5421 5424 5427 5430 5433 5436 5439 5442 5445 5448 5451 5454 5457 5460 5463 5466 5469 5472 5475 5478 5481 5484 5487 5490 5493 5496 5499 5502 5505 5508 5511 5514 5517 5520 5523 5526 5529 5532 5535 5538 5541 5544 5547 5550 5553 5556 5559 5562 5565 5568 5571 5574 5577 5580 5583 5586 5589 5592 5595 5598 5601 5604 5607 5610 5613 5616 5619 5622 5625 5628 5631 5634 5637 5640 5643 5646 5649 5652 5655 5658 5661 5664 5667 5670 5673 5676 5679 5682 5685 5688 5691 5694 5697 5700 5703 5706 5709 5712 5715 5718 5721 5724 5727 5730 5733 5736 5739 5742 5745 5748 5751 5754 5757 5760 5763 5766 5769 5772 5775 5778 5781 5784 5787 5790 5793 5796 5799 5802 5805 5808 5811 5814 5817 5820 5823 5826 5829 5832 5835 5838 5841 5844 5847 5850 5853 5856 5859 5862 5865 5868 5871 5874 5877 5880 5883 5886 5889 5892 5895 5898 5901 5904 5907 5910 5913 5916 5919 5922 5925 5928 5931 5934 5937 5940 5943 5946 5949 5952 5955 5958 5961 5964 5967 5970 5973 5976 5979 5982 5985 5988 5991 5994 5997 6000 6003 6006 6009 6012 6015 6018 6021 6024 6027 6030 6033 6036 6039 6042 6045 6048 6051 6054 6057 6060 6063 6066 6069 6072 6075 6078 6081 6084 6087 6090 6093 6096 6099 6102 6105 6108 6111 6114 6117 6120 </DataArray>
<DataArray  type="UInt8"  Name="types"  format="ascii">5 5 5 5 5 5 5 5 5 5 5 5 5 5 5 5 5 5 5 5 5 5 5 5 5 5 5 5 5 5 5 5 5 5 5 5 5 5 5 5 5 5 5 5 5 5 5 5 5 5 5 5 5 5 5 5 5 5 5 5 5 5 5 5 5 5 5 5 5 5 5 5 5 5 5 5 5 5 5 5 5 5 5 5 5 5 5 5 5 5 5 5 5 5 5 5 5 5 5 5 5 5 5 5 5 5 5 5 5 5 5 5 5 5 5 5 5 5 5 5 5 5 5 5 5 5 5 5 5 5 5 5 5 5 5 5 5 5 5 5 5 5 5 5 5 5 5 5 5 5 5 5 5 5 5 5 5 5 5 5 5 5 5 5 5 5 5 5 5 5 5 5 5 5 5 5 5 5 5 5 5 5 5 5 5 5 5 5 5 5 5 5 5 5 5 5 5 5 5 5 5 5 5 5 5 5 5 5 5 5 5 5 5 5 5 5 5 5 5 5 5 5 5 5 5 5 5 5 5 5 5 5 5 5 5 5 5 5 5 5 5 5 5 5 5 5 5 5 5 5 5 5 5 5 5 5 5 5 5 5 5 5 5 5 5 5 5 5 5 5 5 5 5 5 5 5 5 5 5 5 5 5 5 5 5 5 5 5 5 5 5 5 5 5 5 5 5 5 5 5 5 5 5 5 5 5 5 5 5 5 5 5 5 5 5 5 5 5 5 5 5 5 5 5 5 5 5 5 5 5 5 5 5 5 5 5 5 5 5 5 5 5 5 5 5 5 5 5 5 5 5 5 5 5 5 5 5 5 5 5 5 5 5 5 5 5 5 5 5 5 5 5 5 5 5 5 5 5 5 5 5 5 5 5 5 5 5 5 5 5 5 5 5 5 5 5 5 5 5 5 5 5 5 5 5 5 5 5 5 5 5 5 5 5 5 5 5 5 5 5 5 5 5 5 5 5 5 5 5 5 5 5 5 5 5 5 5 5 5 5 5 5 5 5 5 5 5 5 5 5 5 5 5 5 5 5 5 5 5 5 5 5 5 5 5 5 5 5 5 5 5 5 5 5 5 5 5 5 5 5 5 5 5 5 5 5 5 5 5 5 5 5 5 5 5 5 5 5 5 5 5 5 5 5 5 5 5 5 5 5 5 5 5 5 5 5 5 5 5 5 5 5 5 5 5 5 5 5 5 5 5 5 5 5 5 5 5 5 5 5 5 5 5 5 5 5 5 5 5 5 5 5 5 5 5 5 5 5 5 5 5 5 5 5 5 5 5 5 5 5 5 5 5 5 5 5 5 5 5 5 5 5 5 5 5 5 5 5 5 5 5 5 5 5 5 5 5 5 5 5 5 5 5 5 5 5 5 5 5 5 5 5 5 5 5 5 5 5 5 5 5 5 5 5 5 5 5 5 5 5 5 5 5 5 5 5 5 5 5 5 5 5 5 5 5 5 5 5 5 5 5 5 5 5 5 5 5 5 5 5 5 5 5 5 5 5 5 5 5 5 5 5 5 5 5 5 5 5 5 5 5 5 5 5 5 5 5 5 5 5 5 5 5 5 5 5 5 5 5 5 5 5 5 5 5 5 5 5 5 5 5 5 5 5 5 5 5 5 5 5 5 5 5 5 5 5 5 5 5 5 5 5 5 5 5 5 5 5 5 5 5 5 5 5 5 5 5 5 5 5 5 5 5 5 5 5 5 5 5 5 5 5 5 5 5 5 5 5 5 5 5 5 5 5 5 5 5 5 5 5 5 5 5 5 5 5 5 5 5 5 5 5 5 5 5 5 5 5 5 5 5 5 5 5 5 5 5 5 5 5 5 5 5 5 5 5 5 5 5 5 5 5 5 5 5 5 5 5 5 5 5 5 5 5 5 5 5 5 5 5 5 5 5 5 5 5 5 5 5 5 5 5 5 5 5 5 5 5 5 5 5 5 5 5 5 5 5 5 5 5 5 5 5 5 5 5 5 5 5 5 5 5 5 5 5 5 5 5 5 5 5 5 5 5 5 5 5 5 5 5 5 5 5 5 5 5 5 5 5 5 5 5 5 5 5 5 5 5 5 5 5 5 5 5 5 5 5 5 5 5 5 5 5 5 5 5 5 5 5 5 5 5 5 5 5 5 5 5 5 5 5 5 5 5 5 5 5 5 5 5 5 5 5 5 5 5 5 5 5 5 5 5 5 5 5 5 5 5 5 5 5 5 5 5 5 5 5 5 5 5 5 5 5 5 5 5 5 5 5 5 5 5 5 5 5 5 5 5 5 5 5 5 5 5 5 5 5 5 5 5 5 5 5 5 5 5 5 5 5 5 5 5 5 5 5 5 5 5 5 5 5 5 5 5 5 5 5 5 5 5 5 5 5 5 5 5 5 5 5 5 5 5 5 5 5 5 5 5 5 5 5 5 5 5 5 5 5 5 5 5 5 5 5 5 5 5 5 5 5 5 5 5 5 5 5 5 5 5 5 5 5 5 5 5 5 5 5 5 5 5 5 5 5 5 5 5 5 5 5 5 5 5 5 5 5 5 5 5 5 5 5 5 5 5 5 5 5 5 5 5 5 5 5 5 5 5 5 5 5 5 5 5 5 5 5 5 5 5 5 5 5 5 5 5 5 5 5 5 5 5 5 5 5 5 5 5 5 5 5 5 5 5 5 5 5 5 5 5 5 5 5 5 5 5 5 5 5 5 5 5 5 5 5 5 5 5 5 5 5 5 5 5 5 5 5 5 5 5 5 5 5 5 5 5 5 5 5 5 5 5 5 5 5 5 5 5 5 5 5 5 5 5 5 5 5 5 5 5 5 5 5 5 5 5 5 5 5 5 5 5 5 5 5 5 5 5 5 5 5 5 5 5 5 5 5 5 5 5 5 5 5 5 5 5 5 5 5 5 5 5 5 5 5 5 5 5 5 5 5 5 5 5 5 5 5 5 5 5 5 5 5 5 5 5 5 5 5 5 5 5 5 5 5 5 5 5 5 5 5 5 5 5 5 5 5 5 5 5 5 5 5 5 5 5 5 5 5 5 5 5 5 5 5 5 5 5 5 5 5 5 5 5 5 5 5 5 5 5 5 5 5 5 5 5 5 5 5 5 5 5 5 5 5 5 5 5 5 5 5 5 5 5 5 5 5 5 5 5 5 5 5 5 5 5 5 5 5 5 5 5 5 5 5 5 5 5 5 5 5 5 5 5 5 5 5 5 5 5 5 5 5 5 5 5 5 5 5 5 5 5 5 5 5 5 5 5 5 5 5 5 5 5 5 5 5 5 5 5 5 5 5 5 5 5 5 5 5 5 5 5 5 5 5 5 5 5 5 5 5 5 5 5 5 5 5 5 5 5 5 5 5 5 5 5 5 5 5 5 5 5 5 5 5 5 5 5 5 5 5 5 5 5 5 5 5 5 5 5 5 5 5 5 5 5 5 5 5 5 5 5 5 5 5 5 5 5 5 5 5 5 5 5 5 5 5 5 5 5 5 5 5 5 5 5 5 5 5 5 5 5 5 5 5 5 5 5 5 5 5 5 5 5 5 5 5 5 5 5 5 5 5 5 5 5 5 5 5 5 5 5 5 5 5 5 5 5 5 5 5 5 5 5 5 5 5 5 5 5 5 5 5 5 5 5 5 5 5 5 5 5 5 5 5 5 5 5 5 5 5 5 5 5 5 5 5 5 5 5 5 5 5 5 5 5 5 5 5 5 5 5 5 5 5 5 5 5 5 5 5 5 5 5 5 5 5 5 5 5 5 5 5 5 5 5 5 5 5 5 5 5 5 5 5 5 5 5 5 5 5 5 5 5 5 5 5 5 5 5 5 5 5 5 5 5 5 5 5 5 5 5 5 5 5 5 5 5 5 5 5 5 5 5 5 5 5 5 5 5 5 5 5 5 5 5 5 5 5 5 5 5 5 5 5 5 5 5 5 5 5 5 5 5 5 5 5 5 5 5 5 5 5 5 5 5 5 5 5 5 5 5 5 5 5 5 5 5 5 5 5 5 5 5 5 5 5 5 5 5 5 5 5 5 5 5 5 5 5 5 5 5 5 5 5 5 5 5 5 5 5 5 5 5 5 5 5 5 5 5 5 5 5 5 5 5 5 5 5 5 5 5 5 5 5 5 5 5 5 5 5 5 5 5 5 5 5 5 5 5 5 5 5 5 5 5 5 5 5 5 5 5 5 5 5 5 5 5 5 5 5 5 5 5 5 5 5 5 5 5 5 5 5 5 5 5 5 5 5 5 5 5 5 5 5 5 5 5 5 5 5 5 5 5 5 5 5 5 5 5 5 5 5 5 5 5 5 5 5 5 5 5 5 5 5 5 5 5 5 5 5 5 5 5 5 5 5 5 5 5 5 5 5 5 5 5 5 5 5 5 5 5 5 5 5 5 5 5 5 5 5 5 5 5 5 5 5 5 5 5 5 5 5 5 5 5 5 5 5 5 5 5 5 5 5 5 5 5 5 5 5 5 5 5 5 5 5 5 5 5 5 5 5 5 5 5 5 5 5 5 5 5 5 5 5 5 5 5 5 5 5 5 5 5 5 5 5 5 5 5 5 5 5 5 5 5 5 5 5 5 5 5 </DataArray>
</Cells>
<PointData  Scalars="f_177"> 
<DataArray  type="Float64"  Name="f_177"  format="ascii">1.9999999999999998e+00  1.9000000000240858e+00  1.8000000000282468e+00  1.7000000000295847e+00  1.6000000000291046e+00  1.5000000000277121e+00  1.4000000000260615e+00  1.3000000000243808e+00  1.2000000000226070e+00  1.1000000000208026e+00  1.0000000000189249e+00  9.0000000001710201e-01  8.0000000001522364e-01  7.0000000001336848e-01  6.0000000001146025e-01  5.0000000000956057e-01  4.0000000000762265e-01  3.0000000000574067e-01  2.0000000000385104e-01  1.0000000000195111e-01  0.0000000000000000e+00  2.0000000000000000e+00  1.9000000000240860e+00  1.8000000000282452e+00  1.7000000000295847e+00  1.6000000000291044e+00  1.5000000000277121e+00  1.4000000000260617e+00  1.3000000000243803e+00  1.2000000000226070e+00  1.1000000000208026e+00  1.0000000000189251e+00  9.0000000001710223e-01  8.0000000001522342e-01  7.0000000001336815e-01  6.0000000001146025e-01  5.0000000000956024e-01  4.0000000000762265e-01  3.0000000000574062e-01  2.0000000000385096e-01  1.0000000000195100e-01  0.0000000000000000e+00  2.0000000000000000e+00  1.9000000000240902e+00  1.8000000000282401e+00  1.7000000000295845e+00  1.6000000000291035e+00  1.5000000000277118e+00  1.4000000000260617e+00  1.3000000000243801e+00  1.2000000000226072e+00  1.1000000000208023e+00  1.0000000000189251e+00  9.0000000001710201e-01  8.0000000001522342e-01  7.0000000001336804e-01  6.0000000001146014e-01  5.0000000000956013e-01  4.0000000000762259e-01  3.0000000000574051e-01  2.0000000000385074e-01  1.0000000000195063e-01  0.0000000000000000e+00  2.0000000000000000e+00  1.9000000000241064e+00  1.8000000000282310e+00  1.7000000000295825e+00  1.6000000000291001e+00  1.5000000000277109e+00  1.4000000000260613e+00  1.3000000000243794e+00  1.2000000000226072e+00  1.1000000000208019e+00  1.0000000000189249e+00  9.0000000001710156e-01  8.0000000001522276e-01  7.0000000001336748e-01  6.0000000001145959e-01  5.0000000000955991e-01  4.0000000000762248e-01  3.0000000000574023e-01  2.0000000000385032e-01  1.0000000000194996e-01  0.0000000000000000e+00  2.0000000000000000e+00  1.9000000000241415e+00  1.8000000000282175e+00  1.7000000000295776e+00  1.6000000000290948e+00  1.5000000000277092e+00  1.4000000000260604e+00  1.3000000000243777e+00  1.2000000000226065e+00  1.1000000000208014e+00  1.0000000000189242e+00  9.0000000001710112e-01  8.0000000001522231e-01  7.0000000001336682e-01  6.0000000001145926e-01  5.0000000000955969e-01  4.0000000000762198e-01  3.0000000000573956e-01  2.0000000000384957e-01  1.0000000000194942e-01  0.0000000000000000e+00  2.0000000000000000e+00  1.9000000000241983e+00  1.8000000000282090e+00  1.7000000000295605e+00  1.6000000000290815e+00  1.5000000000277036e+00  1.4000000000260588e+00  1.3000000000243739e+00  1.2000000000226063e+00  1.1000000000208003e+00  1.0000000000189235e+00  9.0000000001710045e-01  8.0000000001522142e-01  7.0000000001336571e-01  6.0000000001145848e-01  5.0000000000955935e-01  4.0000000000762159e-01  3.0000000000573818e-01  2.0000000000384846e-01  1.0000000000194896e-01  0.0000000000000000e+00  2.0000000000000000e+00  1.9000000000242758e+00  1.8000000000282310e+00  1.7000000000295226e+00  1.6000000000290509e+00  1.5000000000276883e+00  1.4000000000260522e+00  1.3000000000243659e+00  1.2000000000226043e+00  1.1000000000207977e+00  1.0000000000189220e+00  9.0000000001709868e-01  8.0000000001521876e-01  7.0000000001336382e-01  6.0000000001145715e-01  5.0000000000955858e-01  4.0000000000762065e-01  3.0000000000573618e-01  2.0000000000384646e-01  1.0000000000194770e-01  0.0000000000000000e+00  2.0000000000000000e+00  1.9000000000243560e+00  1.8000000000283101e+00  1.7000000000294762e+00  1.6000000000290007e+00  1.5000000000276583e+00  1.4000000000260377e+00  1.3000000000243523e+00  1.2000000000225979e+00  1.1000000000207928e+00  1.0000000000189193e+00  9.0000000001709368e-01  8.0000000001521376e-01  7.0000000001336093e-01  6.0000000001145415e-01  5.0000000000955569e-01  4.0000000000761876e-01  3.0000000000573285e-01  2.0000000000384330e-01  1.0000000000194484e-01  0.0000000000000000e+00  1.9999999999999998e+00  1.9000000000244135e+00  1.8000000000284502e+00  1.7000000000294493e+00  1.6000000000289394e+00  1.5000000000276166e+00  1.4000000000260138e+00  1.3000000000243330e+00  1.2000000000225852e+00  1.1000000000207841e+00  1.0000000000189151e+00  9.0000000001708402e-01  8.0000000001520688e-01  7.0000000001335516e-01  6.0000000001145071e-01  5.0000000000954892e-01  4.0000000000761493e-01  3.0000000000572757e-01  2.0000000000383902e-01  1.0000000000194140e-01  0.0000000000000000e+00  2.0000000000000000e+00  1.9000000000244264e+00  1.8000000000286358e+00  1.7000000000294571e+00  1.6000000000288799e+00  1.5000000000275715e+00  1.4000000000259831e+00  1.3000000000243115e+00  1.2000000000225688e+00  1.1000000000207726e+00  1.0000000000189089e+00  9.0000000001707170e-01  8.0000000001519855e-01  7.0000000001334617e-01  6.0000000001144604e-01  5.0000000000954159e-01  4.0000000000760894e-01  3.0000000000572241e-01  2.0000000000383278e-01  1.0000000000193807e-01  0.0000000000000000e+00  2.0000000000000000e+00  1.9000000000243802e+00  1.8000000000288496e+00  1.7000000000295030e+00  1.6000000000288352e+00  1.5000000000275320e+00  1.4000000000259492e+00  1.3000000000242895e+00  1.2000000000225512e+00  1.1000000000207573e+00  1.0000000000189024e+00  9.0000000001705804e-01  8.0000000001518579e-01  7.0000000001334051e-01  6.0000000001143505e-01  5.0000000000953071e-01  4.0000000000760166e-01  3.0000000000571825e-01  2.0000000000382254e-01  1.0000000000193565e-01  0.0000000000000000e+00  1.9999999999999998e+00  1.9000000000242683e+00  1.8000000000290681e+00  1.7000000000295912e+00  1.6000000000288170e+00  1.5000000000274996e+00  1.4000000000259283e+00  1.3000000000242669e+00  1.2000000000225366e+00  1.1000000000207437e+00  1.0000000000188884e+00  9.0000000001704428e-01  8.0000000001517757e-01  7.0000000001333007e-01  6.0000000001142484e-01  5.0000000000951805e-01  4.0000000000759511e-01  3.0000000000571481e-01  2.0000000000380547e-01  1.0000000000193643e-01  0.0000000000000000e+00  1.9999999999999998e+00  1.9000000000240806e+00  1.8000000000292704e+00  1.7000000000297346e+00  1.6000000000288528e+00  1.5000000000274842e+00  1.4000000000259196e+00  1.3000000000242518e+00  1.2000000000225215e+00  1.1000000000207331e+00  1.0000000000188694e+00  9.0000000001703195e-01  8.0000000001517568e-01  7.0000000001331886e-01  6.0000000001141118e-01  5.0000000000951417e-01  4.0000000000758773e-01  3.0000000000570592e-01  2.0000000000379303e-01  1.0000000000193167e-01  0.0000000000000000e+00  2.0000000000000000e+00  1.9000000000238317e+00  1.8000000000293921e+00  1.7000000000298989e+00  1.6000000000289398e+00  1.5000000000275218e+00  1.4000000000259241e+00  1.3000000000242566e+00  1.2000000000225053e+00  1.1000000000207013e+00  1.0000000000188558e+00  9.0000000001701452e-01  8.0000000001517435e-01  7.0000000001332252e-01  6.0000000001140275e-01  5.0000000000950884e-01  4.0000000000758174e-01  3.0000000000568922e-01  2.0000000000378071e-01  1.0000000000190608e-01  0.0000000000000000e+00  2.0000000000000000e+00  1.9000000000236470e+00  1.8000000000294867e+00  1.7000000000300608e+00  1.6000000000290981e+00  1.5000000000276423e+00  1.4000000000260004e+00  1.3000000000242871e+00  1.2000000000225131e+00  1.1000000000206782e+00  1.0000000000188531e+00  9.0000000001702041e-01  8.0000000001518279e-01  7.0000000001334206e-01  6.0000000001143139e-01  5.0000000000955025e-01  4.0000000000761754e-01  3.0000000000567550e-01  2.0000000000377147e-01  1.0000000000189940e-01  0.0000000000000000e+00  2.0000000000000004e+00  1.9000000000233532e+00  1.8000000000294420e+00  1.7000000000301578e+00  1.6000000000292056e+00  1.5000000000277034e+00  1.4000000000260309e+00  1.3000000000242948e+00  1.2000000000225168e+00  1.1000000000206578e+00  1.0000000000188396e+00  9.0000000001698932e-01  8.0000000001516658e-01  7.0000000001331730e-01  6.0000000001144771e-01  5.0000000000954958e-01  4.0000000000760944e-01  3.0000000000567945e-01  2.0000000000377402e-01  1.0000000000189728e-01  0.0000000000000000e+00  2.0000000000000000e+00  1.9000000000231076e+00  1.8000000000294034e+00  1.7000000000302282e+00  1.6000000000293029e+00  1.5000000000277518e+00  1.4000000000260580e+00  1.3000000000243188e+00  1.2000000000225146e+00  1.1000000000206567e+00  1.0000000000188423e+00  9.0000000001697489e-01  8.0000000001516347e-01  7.0000000001331342e-01  6.0000000001144815e-01  5.0000000000956091e-01  4.0000000000762220e-01  3.0000000000568811e-01  2.0000000000379461e-01  1.0000000000190604e-01  0.0000000000000000e+00  2.0000000000000004e+00  1.9000000000229018e+00  1.8000000000293619e+00  1.7000000000302824e+00  1.6000000000293793e+00  1.5000000000278029e+00  1.4000000000260919e+00  1.3000000000243539e+00  1.2000000000225239e+00  1.1000000000206716e+00  1.0000000000188445e+00  9.0000000001697600e-01  8.0000000001517546e-01  7.0000000001332174e-01  6.0000000001145415e-01  5.0000000000956346e-01  4.0000000000763292e-01  3.0000000000568028e-01  2.0000000000381879e-01  1.0000000000192069e-01  0.0000000000000000e+00  2.0000000000000004e+00  1.9000000000227164e+00  1.8000000000293235e+00  1.7000000000303221e+00  1.6000000000294503e+00  1.5000000000278804e+00  1.4000000000261354e+00  1.3000000000243639e+00  1.2000000000225357e+00  1.1000000000207084e+00  1.0000000000188427e+00  9.0000000001697888e-01  8.0000000001518734e-01  7.0000000001331197e-01  6.0000000001142717e-01  5.0000000000954103e-01  4.0000000000764879e-01  3.0000000000569649e-01  2.0000000000383794e-01  1.0000000000194817e-01  0.0000000000000000e+00  2.0000000000000004e+00  1.9000000000225510e+00  1.8000000000292484e+00  1.7000000000303448e+00  1.6000000000295009e+00  1.5000000000279434e+00  1.4000000000261934e+00  1.3000000000243617e+00  1.2000000000225506e+00  1.1000000000207346e+00  1.0000000000188574e+00  9.0000000001700697e-01  8.0000000001517890e-01  7.0000000001330009e-01  6.0000000001138853e-01  5.0000000000951950e-01  4.0000000000764224e-01  3.0000000000572308e-01  2.0000000000386037e-01  1.0000000000195099e-01  0.0000000000000000e+00  2.0000000000000004e+00  1.9000000000224462e+00  1.8000000000291656e+00  1.7000000000303435e+00  1.6000000000295447e+00  1.5000000000280105e+00  1.4000000000262462e+00  1.3000000000243952e+00  1.2000000000225761e+00  1.1000000000207575e+00  1.0000000000188585e+00  9.0000000001702407e-01  8.0000000001518778e-01  7.0000000001328244e-01  6.0000000001137987e-01  5.0000000000950462e-01  4.0000000000764269e-01  3.0000000000573440e-01  2.0000000000384516e-01  1.0000000000194784e-01  0.0000000000000000e+00  2.0000000000000000e+00  1.9000000000223503e+00  1.8000000000291085e+00  1.7000000000303517e+00  1.6000000000295953e+00  1.5000000000280613e+00  1.4000000000262869e+00  1.3000000000244185e+00  1.2000000000226139e+00  1.1000000000207775e+00  1.0000000000188769e+00  9.0000000001702363e-01  8.0000000001520177e-01  7.0000000001328844e-01  6.0000000001139175e-01  5.0000000000951494e-01  4.0000000000760466e-01  3.0000000000572730e-01  2.0000000000385876e-01  1.0000000000193764e-01  0.0000000000000000e+00  2.0000000000000004e+00  1.9000000000222559e+00  1.8000000000290748e+00  1.7000000000303372e+00  1.6000000000296184e+00  1.5000000000280937e+00  1.4000000000263020e+00  1.3000000000244623e+00  1.2000000000226234e+00  1.1000000000207910e+00  1.0000000000189098e+00  9.0000000001703029e-01  8.0000000001520055e-01  7.0000000001331009e-01  6.0000000001141052e-01  5.0000000000953837e-01  4.0000000000759789e-01  3.0000000000571103e-01  2.0000000000385318e-01  1.0000000000192213e-01  0.0000000000000000e+00  2.0000000000000000e+00  1.9000000000221950e+00  1.8000000000290419e+00  1.7000000000303299e+00  1.6000000000296237e+00  1.5000000000280993e+00  1.4000000000263224e+00  1.3000000000244822e+00  1.2000000000226341e+00  1.1000000000208037e+00  1.0000000000189280e+00  9.0000000001703639e-01  8.0000000001521454e-01  7.0000000001332996e-01  6.0000000001143061e-01  5.0000000000955847e-01  4.0000000000761232e-01  3.0000000000569649e-01  2.0000000000384982e-01  1.0000000000190527e-01  0.0000000000000000e+00  2.0000000000000000e+00  1.9000000000221537e+00  1.8000000000290244e+00  1.7000000000303253e+00  1.6000000000296046e+00  1.5000000000280984e+00  1.4000000000263551e+00  1.3000000000244969e+00  1.2000000000226350e+00  1.1000000000208057e+00  1.0000000000189320e+00  9.0000000001705516e-01  8.0000000001522442e-01  7.0000000001333651e-01  6.0000000001143705e-01  5.0000000000955203e-01  4.0000000000762520e-01  3.0000000000571059e-01  2.0000000000384649e-01  1.0000000000189611e-01  0.0000000000000000e+00  2.0000000000000000e+00  1.9000000000221176e+00  1.8000000000290073e+00  1.7000000000303235e+00  1.6000000000295918e+00  1.5000000000281142e+00  1.4000000000263630e+00  1.3000000000245044e+00  1.2000000000226194e+00  1.1000000000208066e+00  1.0000000000189375e+00  9.0000000001708291e-01  8.0000000001524629e-01  7.0000000001332896e-01  6.0000000001143861e-01  5.0000000000954692e-01  4.0000000000762431e-01  3.0000000000573757e-01  2.0000000000385063e-01  1.0000000000189373e-01  0.0000000000000000e+00  2.0000000000000000e+00  1.9000000000220842e+00  1.8000000000290024e+00  1.7000000000303375e+00  1.6000000000295989e+00  1.5000000000281231e+00  1.4000000000263395e+00  1.3000000000244898e+00  1.2000000000226074e+00  1.1000000000207961e+00  1.0000000000189564e+00  9.0000000001709768e-01  8.0000000001523108e-01  7.0000000001334151e-01  6.0000000001142006e-01  5.0000000000955014e-01  4.0000000000763086e-01  3.0000000000574184e-01  2.0000000000386600e-01  1.0000000000190985e-01  0.0000000000000000e+00  2.0000000000000000e+00  1.9000000000220709e+00  1.8000000000289997e+00  1.7000000000303530e+00  1.6000000000296140e+00  1.5000000000281342e+00  1.4000000000263275e+00  1.3000000000244667e+00  1.2000000000226092e+00  1.1000000000207921e+00  1.0000000000189599e+00  9.0000000001709513e-01  8.0000000001521188e-01  7.0000000001332729e-01  6.0000000001141462e-01  5.0000000000954359e-01  4.0000000000761976e-01  3.0000000000572802e-01  2.0000000000387080e-01  1.0000000000191907e-01  0.0000000000000000e+00  2.0000000000000000e+00  1.9000000000221078e+00  1.8000000000290208e+00  1.7000000000303461e+00  1.6000000000296148e+00  1.5000000000281251e+00  1.4000000000263237e+00  1.3000000000244563e+00  1.2000000000226094e+00  1.1000000000207857e+00  1.0000000000189453e+00  9.0000000001709712e-01  8.0000000001518545e-01  7.0000000001332463e-01  6.0000000001144183e-01  5.0000000000952238e-01  4.0000000000759589e-01  3.0000000000572202e-01  2.0000000000385754e-01  1.0000000000192484e-01  0.0000000000000000e+00  2.0000000000000000e+00  1.9000000000221635e+00  1.8000000000290426e+00  1.7000000000303463e+00  1.6000000000296024e+00  1.5000000000281071e+00  1.4000000000263089e+00  1.3000000000244434e+00  1.2000000000226088e+00  1.1000000000207721e+00  1.0000000000189213e+00  9.0000000001710068e-01  8.0000000001518046e-01  7.0000000001330809e-01  6.0000000001145093e-01  5.0000000000950962e-01  4.0000000000759484e-01  3.0000000000570531e-01  2.0000000000383070e-01  1.0000000000191607e-01  0.0000000000000000e+00  2.0000000000000000e+00  1.9000000000222284e+00  1.8000000000290703e+00  1.7000000000303566e+00  1.6000000000295778e+00  1.5000000000280638e+00  1.4000000000262702e+00  1.3000000000244076e+00  1.2000000000226072e+00  1.1000000000207693e+00  1.0000000000189233e+00  9.0000000001708091e-01  8.0000000001517702e-01  7.0000000001330565e-01  6.0000000001142195e-01  5.0000000000950784e-01  4.0000000000758962e-01  3.0000000000568527e-01  2.0000000000381679e-01  1.0000000000191522e-01  0.0000000000000000e+00  2.0000000000000000e+00  1.9000000000223152e+00  1.8000000000291090e+00  1.7000000000303466e+00  1.6000000000295607e+00  1.5000000000279987e+00  1.4000000000262347e+00  1.3000000000243812e+00  1.2000000000225783e+00  1.1000000000207610e+00  1.0000000000189213e+00  9.0000000001706171e-01  8.0000000001519911e-01  7.0000000001329377e-01  6.0000000001141152e-01  5.0000000000950395e-01  4.0000000000757729e-01  3.0000000000568822e-01  2.0000000000379500e-01  1.0000000000190699e-01  0.0000000000000000e+00  2.0000000000000000e+00  1.9000000000224406e+00  1.8000000000291643e+00  1.7000000000303193e+00  1.6000000000295005e+00  1.5000000000279534e+00  1.4000000000261892e+00  1.3000000000243481e+00  1.2000000000225504e+00  1.1000000000207384e+00  1.0000000000189144e+00  9.0000000001704950e-01  8.0000000001519589e-01  7.0000000001329787e-01  6.0000000001142106e-01  5.0000000000949085e-01  4.0000000000756430e-01  3.0000000000567917e-01  2.0000000000377219e-01  1.0000000000190598e-01  0.0000000000000000e+00  2.0000000000000000e+00  1.9000000000225967e+00  1.8000000000292200e+00  1.7000000000302866e+00  1.6000000000294210e+00  1.5000000000279119e+00  1.4000000000261532e+00  1.3000000000243197e+00  1.2000000000225213e+00  1.1000000000206955e+00  1.0000000000188893e+00  9.0000000001705682e-01  8.0000000001517935e-01  7.0000000001329943e-01  6.0000000001141074e-01  5.0000000000949918e-01  4.0000000000754465e-01  3.0000000000566057e-01  2.0000000000373322e-01  1.0000000000189170e-01  0.0000000000000000e+00  2.0000000000000000e+00  1.9000000000227779e+00  1.8000000000292820e+00  1.7000000000302351e+00  1.6000000000293211e+00  1.5000000000278326e+00  1.4000000000261255e+00  1.3000000000242975e+00  1.2000000000224893e+00  1.1000000000206573e+00  1.0000000000188449e+00  9.0000000001703828e-01  8.0000000001518379e-01  7.0000000001329876e-01  6.0000000001139175e-01  5.0000000000949696e-01  4.0000000000754687e-01  3.0000000000562599e-01  2.0000000000372092e-01  1.0000000000186807e-01  0.0000000000000000e+00  2.0000000000000000e+00  1.9000000000229922e+00  1.8000000000293492e+00  1.7000000000301647e+00  1.6000000000292292e+00  1.5000000000277500e+00  1.4000000000260551e+00  1.3000000000242722e+00  1.2000000000224551e+00  1.1000000000206211e+00  1.0000000000188063e+00  9.0000000001700320e-01  8.0000000001515814e-01  7.0000000001331220e-01  6.0000000001138087e-01  5.0000000000948996e-01  4.0000000000755437e-01  3.0000000000561461e-01  2.0000000000372320e-01  1.0000000000186776e-01  0.0000000000000000e+00  2.0000000000000000e+00  1.9000000000232000e+00  1.8000000000294185e+00  1.7000000000301285e+00  1.6000000000291237e+00  1.5000000000276612e+00  1.4000000000259702e+00  1.3000000000242091e+00  1.2000000000224176e+00  1.1000000000205736e+00  1.0000000000187712e+00  9.0000000001698066e-01  8.0000000001511617e-01  7.0000000001327800e-01  6.0000000001136888e-01  5.0000000000948441e-01  4.0000000000755981e-01  3.0000000000562915e-01  2.0000000000371526e-01  1.0000000000188332e-01  0.0000000000000000e+00  2.0000000000000000e+00  1.9000000000234225e+00  1.8000000000294685e+00  1.7000000000300601e+00  1.6000000000290167e+00  1.5000000000275446e+00  1.4000000000258777e+00  1.3000000000241367e+00  1.2000000000223647e+00  1.1000000000205479e+00  1.0000000000187295e+00  9.0000000001693747e-01  8.0000000001509186e-01  7.0000000001322571e-01  6.0000000001133857e-01  5.0000000000946643e-01  4.0000000000754943e-01  3.0000000000562832e-01  2.0000000000369722e-01  1.0000000000188700e-01  0.0000000000000000e+00  1.9999999999999998e+00  1.9000000000240345e+00  1.8000000000295187e+00  1.7000000000298723e+00  1.6000000000288568e+00  1.5000000000274198e+00  1.4000000000257651e+00  1.3000000000240923e+00  1.2000000000223299e+00  1.1000000000205123e+00  1.0000000000187024e+00  9.0000000001690528e-01  8.0000000001507465e-01  7.0000000001323825e-01  6.0000000001134501e-01  5.0000000000946965e-01  4.0000000000754637e-01  3.0000000000564053e-01  2.0000000000374882e-01  1.0000000000187188e-01  0.0000000000000000e+00  1.9999999999999998e+00  1.9000000000244552e+00  1.8000000000293885e+00  1.7000000000296458e+00  1.6000000000287093e+00  1.5000000000273364e+00  1.4000000000257327e+00  1.3000000000240501e+00  1.2000000000223219e+00  1.1000000000205008e+00  1.0000000000186891e+00  9.0000000001688507e-01  8.0000000001506943e-01  7.0000000001322693e-01  6.0000000001135612e-01  5.0000000000947420e-01  4.0000000000756547e-01  3.0000000000565613e-01  2.0000000000375767e-01  1.0000000000187505e-01  0.0000000000000000e+00  1.9999999999999998e+00  1.9000000000247408e+00  1.8000000000291783e+00  1.7000000000294873e+00  1.6000000000286385e+00  1.5000000000273279e+00  1.4000000000257418e+00  1.3000000000240424e+00  1.2000000000223283e+00  1.1000000000205032e+00  1.0000000000187006e+00  9.0000000001688307e-01  8.0000000001507032e-01  7.0000000001322205e-01  6.0000000001135056e-01  5.0000000000948930e-01  4.0000000000758795e-01  3.0000000000567117e-01  2.0000000000377741e-01  1.0000000000188386e-01  0.0000000000000000e+00  2.0000000000000000e+00  1.9000000000249213e+00  1.8000000000289162e+00  1.7000000000293771e+00  1.6000000000286521e+00  1.5000000000273539e+00  1.4000000000257535e+00  1.3000000000240555e+00  1.2000000000223383e+00  1.1000000000205055e+00  1.0000000000187106e+00  9.0000000001688873e-01  8.0000000001506710e-01  7.0000000001322205e-01  6.0000000001135601e-01  5.0000000000949463e-01  4.0000000000760855e-01  3.0000000000567872e-01  2.0000000000379142e-01  1.0000000000189366e-01  0.0000000000000000e+00  1.9999999999999998e+00  1.9000000000250086e+00  1.8000000000286467e+00  1.7000000000293252e+00  1.6000000000287016e+00  1.5000000000273921e+00  1.4000000000257717e+00  1.3000000000240726e+00  1.2000000000223512e+00  1.1000000000205135e+00  1.0000000000187226e+00  9.0000000001689762e-01  8.0000000001507010e-01  7.0000000001322482e-01  6.0000000001136233e-01  5.0000000000950562e-01  4.0000000000762131e-01  3.0000000000568677e-01  2.0000000000380000e-01  1.0000000000189579e-01  0.0000000000000000e+00  1.9999999999999998e+00  1.9000000000250257e+00  1.8000000000284031e+00  1.7000000000293265e+00  1.6000000000287704e+00  1.5000000000274327e+00  1.4000000000257948e+00  1.3000000000240886e+00  1.2000000000223656e+00  1.1000000000205226e+00  1.0000000000187343e+00  9.0000000001690805e-01  8.0000000001507465e-01  7.0000000001322871e-01  6.0000000001136822e-01  5.0000000000951816e-01  4.0000000000762775e-01  3.0000000000569227e-01  2.0000000000380658e-01  1.0000000000189914e-01  0.0000000000000000e+00  2.0000000000000000e+00  1.9000000000249919e+00  1.8000000000282106e+00  1.7000000000293711e+00  1.6000000000288428e+00  1.5000000000274696e+00  1.4000000000258124e+00  1.3000000000241023e+00  1.2000000000223787e+00  1.1000000000205292e+00  1.0000000000187450e+00  9.0000000001691616e-01  8.0000000001507765e-01  7.0000000001323193e-01  6.0000000001137266e-01  5.0000000000952660e-01  4.0000000000763286e-01  3.0000000000569516e-01  2.0000000000381096e-01  1.0000000000190185e-01  0.0000000000000000e+00  2.0000000000000000e+00  1.9000000000249306e+00  1.8000000000280854e+00  1.7000000000294391e+00  1.6000000000289036e+00  1.5000000000274938e+00  1.4000000000258228e+00  1.3000000000241121e+00  1.2000000000223883e+00  1.1000000000205323e+00  1.0000000000187508e+00  9.0000000001692182e-01  8.0000000001507854e-01  7.0000000001323348e-01  6.0000000001137554e-01  5.0000000000953193e-01  4.0000000000763580e-01  3.0000000000569732e-01  2.0000000000381299e-01  1.0000000000190372e-01  0.0000000000000000e+00  2.0000000000000000e+00  1.9000000000248656e+00  1.8000000000280254e+00  1.7000000000295021e+00  1.6000000000289385e+00  1.5000000000275042e+00  1.4000000000258268e+00  1.3000000000241170e+00  1.2000000000223934e+00  1.1000000000205328e+00  1.0000000000187537e+00  9.0000000001692471e-01  8.0000000001507798e-01  7.0000000001323492e-01  6.0000000001137654e-01  5.0000000000953482e-01  4.0000000000763680e-01  3.0000000000569843e-01  2.0000000000381413e-01  1.0000000000190525e-01  0.0000000000000000e+00  2.0000000000000000e+00  1.9000000000248156e+00  1.8000000000280096e+00  1.7000000000295410e+00  1.6000000000289509e+00  1.5000000000275071e+00  1.4000000000258277e+00  1.3000000000241196e+00  1.2000000000223956e+00  1.1000000000205328e+00  1.0000000000187554e+00  9.0000000001692571e-01  8.0000000001507721e-01  7.0000000001323581e-01  6.0000000001137677e-01  5.0000000000953648e-01  4.0000000000763702e-01  3.0000000000569876e-01  2.0000000000381468e-01  1.0000000000190705e-01  0.0000000000000000e+00  2.0000000000000000e+00  1.9000000000247843e+00  1.8000000000280127e+00  1.7000000000295579e+00  1.6000000000289534e+00  1.5000000000275084e+00  1.4000000000258281e+00  1.3000000000241203e+00  1.2000000000223972e+00  1.1000000000205326e+00  1.0000000000187566e+00  9.0000000001692615e-01  8.0000000001507687e-01  7.0000000001323626e-01  6.0000000001137699e-01  5.0000000000953726e-01  4.0000000000763719e-01  3.0000000000569910e-01  2.0000000000381490e-01  1.0000000000190838e-01  0.0000000000000000e+00  2.0000000000000000e+00  1.9000000000247692e+00  1.8000000000280196e+00  1.7000000000295641e+00  1.6000000000289536e+00  1.5000000000275096e+00  1.4000000000258281e+00  1.3000000000241205e+00  1.2000000000223976e+00  1.1000000000205323e+00  1.0000000000187572e+00  9.0000000001692659e-01  8.0000000001507687e-01  7.0000000001323681e-01  6.0000000001137710e-01  5.0000000000953759e-01  4.0000000000763741e-01  3.0000000000569926e-01  2.0000000000381504e-01  1.0000000000190906e-01  0.0000000000000000e+00  2.0000000000000000e+00  1.9000000000247643e+00  1.8000000000280243e+00  1.7000000000295665e+00  1.6000000000289540e+00  1.5000000000275102e+00  1.4000000000258284e+00  1.3000000000241205e+00  1.2000000000223976e+00  1.1000000000205323e+00  1.0000000000187577e+00  9.0000000001692682e-01  8.0000000001507654e-01  7.0000000001323670e-01  6.0000000001137710e-01  5.0000000000953770e-01  4.0000000000763752e-01  3.0000000000569937e-01  2.0000000000381510e-01  1.0000000000190921e-01  0.0000000000000000e+00  1.9999999999999998e+00  1.9000000000247634e+00  1.8000000000280258e+00  1.7000000000295674e+00  1.6000000000289540e+00  1.5000000000275102e+00  1.4000000000258288e+00  1.3000000000241207e+00  1.2000000000223978e+00  1.1000000000205323e+00  1.0000000000187577e+00  9.0000000001692670e-01  8.0000000001507621e-01  7.0000000001323692e-01  6.0000000001137699e-01  5.0000000000953759e-01  4.0000000000763747e-01  3.0000000000569937e-01  2.0000000000381513e-01  1.0000000000190924e-01  0.0000000000000000e+00  </DataArray> 
</PointData> 
</Piece>
</UnstructuredGrid>
</VTKFile>