<?xml version="1.0" encoding="UTF-8"?>
<svg xmlns="http://www.w3.org/2000/svg" width="920" height="520" viewBox="0 0 920 520">
  <rect x="0" y="0" width="920" height="520" fill="white"/>
  <text x="85" y="32" font-size="20" font-family="monospace" fill="#111111">0023_stage01_iter001_picard03_attempt03</text>
  <text x="85" y="52" font-size="13" font-family="monospace" fill="#555555">IPCS residual history (log10 scale)</text>
  <rect x="85" y="65" width="805" height="390" fill="none" stroke="#222222" stroke-width="1.2"/>
  <line x1="85" y1="455.00" x2="890" y2="455.00" stroke="#d9d9d9" stroke-width="1"/>
  <text x="75" y="455.00" font-size="12" font-family="monospace" fill="#333333" text-anchor="end" dominant-baseline="middle">1.0e-05</text>
  <line x1="85" y1="325.00" x2="890" y2="325.00" stroke="#d9d9d9" stroke-width="1"/>
  <text x="75" y="325.00" font-size="12" font-family="monospace" fill="#333333" text-anchor="end" dominant-baseline="middle">1.0e-04</text>
  <line x1="85" y1="195.00" x2="890" y2="195.00" stroke="#d9d9d9" stroke-width="1"/>
  <text x="75" y="195.00" font-size="12" font-family="monospace" fill="#333333" text-anchor="end" dominant-baseline="middle">1.0e-03</text>
  <line x1="85" y1="65.00" x2="890" y2="65.00" stroke="#d9d9d9" stroke-width="1"/>
  <text x="75" y="65.00" font-size="12" font-family="monospace" fill="#333333" text-anchor="end" dominant-baseline="middle">1.0e-02</text>
  <line x1="85.00" y1="65" x2="85.00" y2="455" stroke="#e6e6e6" stroke-width="1"/>
  <text x="85.00" y="479" font-size="12" font-family="monospace" fill="#333333" text-anchor="middle">1</text>
  <line x1="246.00" y1="65" x2="246.00" y2="455" stroke="#e6e6e6" stroke-width="1"/>
  <text x="246.00" y="479" font-size="12" font-family="monospace" fill="#333333" text-anchor="middle">7</text>
  <line x1="407.00" y1="65" x2="407.00" y2="455" stroke="#e6e6e6" stroke-width="1"/>
  <text x="407.00" y="479" font-size="12" font-family="monospace" fill="#333333" text-anchor="middle">14</text>
  <line x1="568.00" y1="65" x2="568.00" y2="455" stroke="#e6e6e6" stroke-width="1"/>
  <text x="568.00" y="479" font-size="12" font-family="monospace" fill="#333333" text-anchor="middle">20</text>
  <line x1="729.00" y1="65" x2="729.00" y2="455" stroke="#e6e6e6" stroke-width="1"/>
  <text x="729.00" y="479" font-size="12" font-family="monospace" fill="#333333" text-anchor="middle">27</text>
  <line x1="890.00" y1="65" x2="890.00" y2="455" stroke="#e6e6e6" stroke-width="1"/>
  <text x="890.00" y="479" font-size="12" font-family="monospace" fill="#333333" text-anchor="middle">33</text>
  <line x1="85" y1="325.00" x2="890" y2="325.00" stroke="#0b6efd" stroke-width="1.2" stroke-dasharray="6 4"/>
  <line x1="85" y1="195.00" x2="890" y2="195.00" stroke="#d63384" stroke-width="1.2" stroke-dasharray="6 4"/>
  <polyline fill="none" stroke="#0b6efd" stroke-width="2.2" points="85.00,344.26 110.16,344.26 135.31,344.26 160.47,344.26 185.62,344.26 210.78,344.26 235.94,344.26 261.09,344.26 286.25,344.26 311.41,344.26 336.56,344.26 361.72,344.26 386.88,344.26 412.03,344.26 437.19,344.26 462.34,344.26 487.50,344.26 512.66,344.27 537.81,344.27 562.97,344.27 588.12,344.27 613.28,344.27 638.44,344.27 663.59,344.27 688.75,344.27 713.91,344.27 739.06,344.27 764.22,344.27 789.38,344.27 814.53,344.27 839.69,344.27 864.84,344.27 890.00,344.27"/>
  <polyline fill="none" stroke="#d63384" stroke-width="2.2" points="85.00,120.13 110.16,121.79 135.31,123.52 160.47,125.31 185.62,127.17 210.78,129.09 235.94,131.07 261.09,133.10 286.25,135.19 311.41,137.33 336.56,139.51 361.72,141.75 386.88,144.03 412.03,146.35 437.19,148.72 462.34,151.12 487.50,153.57 512.66,156.06 537.81,158.59 562.97,161.15 588.12,163.75 613.28,166.38 638.44,169.05 663.59,171.76 688.75,174.50 713.91,177.27 739.06,180.08 764.22,182.92 789.38,185.79 814.53,188.69 839.69,191.63 864.84,194.60 890.00,197.60"/>
  <text x="882" y="503" font-size="12" font-family="monospace" fill="#222222">step</text>
  <text x="24" y="260.0" font-size="12" font-family="monospace" fill="#222222" transform="rotate(-90 24,260.0)">residual</text>
  <line x1="85" y1="494" x2="121" y2="494" stroke="#0b6efd" stroke-width="2.2"/>
  <text x="129" y="498" font-size="12" font-family="monospace" fill="#222222">u residual</text>
  <line x1="255" y1="494" x2="291" y2="494" stroke="#d63384" stroke-width="2.2"/>
  <text x="299" y="498" font-size="12" font-family="monospace" fill="#222222">p residual</text>
</svg>
