<?xml version="1.0" encoding="UTF-8"?>
<svg xmlns="http://www.w3.org/2000/svg" width="920" height="520" viewBox="0 0 920 520">
  <rect x="0" y="0" width="920" height="520" fill="white"/>
  <text x="85" y="32" font-size="20" font-family="monospace" fill="#111111">0052_stage01_iter004_picard01_attempt02</text>
  <text x="85" y="52" font-size="13" font-family="monospace" fill="#555555">IPCS residual history (log10 scale)</text>
  <rect x="85" y="65" width="805" height="390" fill="none" stroke="#222222" stroke-width="1.2"/>
  <line x1="85" y1="455.00" x2="890" y2="455.00" stroke="#d9d9d9" stroke-width="1"/>
  <text x="75" y="455.00" font-size="12" font-family="monospace" fill="#333333" text-anchor="end" dominant-baseline="middle">1.0e-04</text>
  <line x1="85" y1="260.00" x2="890" y2="260.00" stroke="#d9d9d9" stroke-width="1"/>
  <text x="75" y="260.00" font-size="12" font-family="monospace" fill="#333333" text-anchor="end" dominant-baseline="middle">1.0e-03</text>
  <line x1="85" y1="65.00" x2="890" y2="65.00" stroke="#d9d9d9" stroke-width="1"/>
  <text x="75" y="65.00" font-size="12" font-family="monospace" fill="#333333" text-anchor="end" dominant-baseline="middle">1.0e-02</text>
  <line x1="85.00" y1="65" x2="85.00" y2="455" stroke="#e6e6e6" stroke-width="1"/>
  <text x="85.00" y="479" font-size="12" font-family="monospace" fill="#333333" text-anchor="middle">1</text>
  <line x1="246.00" y1="65" x2="246.00" y2="455" stroke="#e6e6e6" stroke-width="1"/>
  <text x="246.00" y="479" font-size="12" font-family="monospace" fill="#333333" text-anchor="middle">121</text>
  <line x1="407.00" y1="65" x2="407.00" y2="455" stroke="#e6e6e6" stroke-width="1"/>
  <text x="407.00" y="479" font-size="12" font-family="monospace" fill="#333333" text-anchor="middle">241</text>
  <line x1="568.00" y1="65" x2="568.00" y2="455" stroke="#e6e6e6" stroke-width="1"/>
  <text x="568.00" y="479" font-size="12" font-family="monospace" fill="#333333" text-anchor="middle">360</text>
  <line x1="729.00" y1="65" x2="729.00" y2="455" stroke="#e6e6e6" stroke-width="1"/>
  <text x="729.00" y="479" font-size="12" font-family="monospace" fill="#333333" text-anchor="middle">480</text>
  <line x1="890.00" y1="65" x2="890.00" y2="455" stroke="#e6e6e6" stroke-width="1"/>
  <text x="890.00" y="479" font-size="12" font-family="monospace" fill="#333333" text-anchor="middle">600</text>
  <line x1="85" y1="455.00" x2="890" y2="455.00" stroke="#0b6efd" stroke-width="1.2" stroke-dasharray="6 4"/>
  <line x1="85" y1="260.00" x2="890" y2="260.00" stroke="#d63384" stroke-width="1.2" stroke-dasharray="6 4"/>
  <polyline fill="none" stroke="#0b6efd" stroke-width="2.2" points="85.00,441.49 86.34,441.49 87.69,441.49 89.03,441.49 90.38,441.49 91.72,441.49 93.06,441.49 94.41,441.49 95.75,441.49 97.10,441.49 98.44,441.50 99.78,441.50 101.13,441.50 102.47,441.50 103.81,441.50 105.16,441.50 106.50,441.50 107.85,441.50 109.19,441.50 110.53,441.50 111.88,441.50 113.22,441.50 114.57,441.50 115.91,441.50 117.25,441.50 118.60,441.50 119.94,441.50 121.29,441.50 122.63,441.51 123.97,441.51 125.32,441.51 126.66,441.51 128.01,441.51 129.35,441.51 130.69,441.51 132.04,441.51 133.38,441.51 134.72,441.51 136.07,441.51 137.41,441.51 138.76,441.51 140.10,441.51 141.44,441.51 142.79,441.51 144.13,441.51 145.48,441.51 146.82,441.51 148.16,441.52 149.51,441.52 150.85,441.52 152.20,441.52 153.54,441.52 154.88,441.52 156.23,441.52 157.57,441.52 158.91,441.52 160.26,441.52 161.60,441.52 162.95,441.52 164.29,441.52 165.63,441.52 166.98,441.52 168.32,441.52 169.67,441.52 171.01,441.52 172.35,441.52 173.70,441.53 175.04,441.53 176.39,441.53 177.73,441.53 179.07,441.53 180.42,441.53 181.76,441.53 183.11,441.53 184.45,441.53 185.79,441.53 187.14,441.53 188.48,441.53 189.82,441.53 191.17,441.53 192.51,441.53 193.86,441.53 195.20,441.53 196.54,441.53 197.89,441.53 199.23,441.54 200.58,441.54 201.92,441.54 203.26,441.54 204.61,441.54 205.95,441.54 207.30,441.54 208.64,441.54 209.98,441.54 211.33,441.54 212.67,441.54 214.02,441.54 215.36,441.54 216.70,441.54 218.05,441.54 219.39,441.54 220.73,441.54 222.08,441.54 223.42,441.54 224.77,441.55 226.11,441.55 227.45,441.55 228.80,441.55 230.14,441.55 231.49,441.55 232.83,441.55 234.17,441.55 235.52,441.55 236.86,441.55 238.21,441.55 239.55,441.55 240.89,441.55 242.24,441.55 243.58,441.55 244.92,441.55 246.27,441.55 247.61,441.55 248.96,441.55 250.30,441.55 251.64,441.56 252.99,441.56 254.33,441.56 255.68,441.56 257.02,441.56 258.36,441.56 259.71,441.56 261.05,441.56 262.40,441.56 263.74,441.56 265.08,441.56 266.43,441.56 267.77,441.56 269.12,441.56 270.46,441.56 271.80,441.56 273.15,441.56 274.49,441.56 275.83,441.56 277.18,441.56 278.52,441.57 279.87,441.57 281.21,441.57 282.55,441.57 283.90,441.57 285.24,441.57 286.59,441.57 287.93,441.57 289.27,441.57 290.62,441.57 291.96,441.57 293.31,441.57 294.65,441.57 295.99,441.57 297.34,441.57 298.68,441.57 300.03,441.57 301.37,441.57 302.71,441.57 304.06,441.57 305.40,441.58 306.74,441.58 308.09,441.58 309.43,441.58 310.78,441.58 312.12,441.58 313.46,441.58 314.81,441.58 316.15,441.58 317.50,441.58 318.84,441.58 320.18,441.58 321.53,441.58 322.87,441.58 324.22,441.58 325.56,441.58 326.90,441.58 328.25,441.58 329.59,441.58 330.93,441.58 332.28,441.59 333.62,441.59 334.97,441.59 336.31,441.59 337.65,441.59 339.00,441.59 340.34,441.59 341.69,441.59 343.03,441.59 344.37,441.59 345.72,441.59 347.06,441.59 348.41,441.59 349.75,441.59 351.09,441.59 352.44,441.59 353.78,441.59 355.13,441.59 356.47,441.59 357.81,441.59 359.16,441.60 360.50,441.60 361.84,441.60 363.19,441.60 364.53,441.60 365.88,441.60 367.22,441.60 368.56,441.60 369.91,441.60 371.25,441.60 372.60,441.60 373.94,441.60 375.28,441.60 376.63,441.60 377.97,441.60 379.32,441.60 380.66,441.60 382.00,441.60 383.35,441.60 384.69,441.60 386.04,441.61 387.38,441.61 388.72,441.61 390.07,441.61 391.41,441.61 392.75,441.61 394.10,441.61 395.44,441.61 396.79,441.61 398.13,441.61 399.47,441.61 400.82,441.61 402.16,441.61 403.51,441.61 404.85,441.61 406.19,441.61 407.54,441.61 408.88,441.61 410.23,441.61 411.57,441.61 412.91,441.62 414.26,441.62 415.60,441.62 416.94,441.62 418.29,441.62 419.63,441.62 420.98,441.62 422.32,441.62 423.66,441.62 425.01,441.62 426.35,441.62 427.70,441.62 429.04,441.62 430.38,441.62 431.73,441.62 433.07,441.62 434.42,441.62 435.76,441.62 437.10,441.62 438.45,441.62 439.79,441.63 441.14,441.63 442.48,441.63 443.82,441.63 445.17,441.63 446.51,441.63 447.85,441.63 449.20,441.63 450.54,441.63 451.89,441.63 453.23,441.63 454.57,441.63 455.92,441.63 457.26,441.63 458.61,441.63 459.95,441.63 461.29,441.63 462.64,441.63 463.98,441.63 465.33,441.63 466.67,441.63 468.01,441.64 469.36,441.64 470.70,441.64 472.05,441.64 473.39,441.64 474.73,441.64 476.08,441.64 477.42,441.64 478.76,441.64 480.11,441.64 481.45,441.64 482.80,441.64 484.14,441.64 485.48,441.64 486.83,441.64 488.17,441.64 489.52,441.64 490.86,441.64 492.20,441.64 493.55,441.64 494.89,441.65 496.24,441.65 497.58,441.65 498.92,441.65 500.27,441.65 501.61,441.65 502.95,441.65 504.30,441.65 505.64,441.65 506.99,441.65 508.33,441.65 509.67,441.65 511.02,441.65 512.36,441.65 513.71,441.65 515.05,441.65 516.39,441.65 517.74,441.65 519.08,441.65 520.43,441.65 521.77,441.65 523.11,441.66 524.46,441.66 525.80,441.66 527.15,441.66 528.49,441.66 529.83,441.66 531.18,441.66 532.52,441.66 533.86,441.66 535.21,441.66 536.55,441.66 537.90,441.66 539.24,441.66 540.58,441.66 541.93,441.66 543.27,441.66 544.62,441.66 545.96,441.66 547.30,441.66 548.65,441.66 549.99,441.67 551.34,441.67 552.68,441.67 554.02,441.67 555.37,441.67 556.71,441.67 558.06,441.67 559.40,441.67 560.74,441.67 562.09,441.67 563.43,441.67 564.77,441.67 566.12,441.67 567.46,441.67 568.81,441.67 570.15,441.67 571.49,441.67 572.84,441.67 574.18,441.67 575.53,441.67 576.87,441.67 578.21,441.68 579.56,441.68 580.90,441.68 582.25,441.68 583.59,441.68 584.93,441.68 586.28,441.68 587.62,441.68 588.96,441.68 590.31,441.68 591.65,441.68 593.00,441.68 594.34,441.68 595.68,441.68 597.03,441.68 598.37,441.68 599.72,441.68 601.06,441.68 602.40,441.68 603.75,441.68 605.09,441.69 606.44,441.69 607.78,441.69 609.12,441.69 610.47,441.69 611.81,441.69 613.16,441.69 614.50,441.69 615.84,441.69 617.19,441.69 618.53,441.69 619.87,441.69 621.22,441.69 622.56,441.69 623.91,441.69 625.25,441.69 626.59,441.69 627.94,441.69 629.28,441.69 630.63,441.69 631.97,441.69 633.31,441.70 634.66,441.70 636.00,441.70 637.35,441.70 638.69,441.70 640.03,441.70 641.38,441.70 642.72,441.70 644.07,441.70 645.41,441.70 646.75,441.70 648.10,441.70 649.44,441.70 650.78,441.70 652.13,441.70 653.47,441.70 654.82,441.70 656.16,441.70 657.50,441.70 658.85,441.70 660.19,441.70 661.54,441.71 662.88,441.71 664.22,441.71 665.57,441.71 666.91,441.71 668.26,441.71 669.60,441.71 670.94,441.71 672.29,441.71 673.63,441.71 674.97,441.71 676.32,441.71 677.66,441.71 679.01,441.71 680.35,441.71 681.69,441.71 683.04,441.71 684.38,441.71 685.73,441.71 687.07,441.71 688.41,441.72 689.76,441.72 691.10,441.72 692.45,441.72 693.79,441.72 695.13,441.72 696.48,441.72 697.82,441.72 699.17,441.72 700.51,441.72 701.85,441.72 703.20,441.72 704.54,441.72 705.88,441.72 707.23,441.72 708.57,441.72 709.92,441.72 711.26,441.72 712.60,441.72 713.95,441.72 715.29,441.72 716.64,441.73 717.98,441.73 719.32,441.73 720.67,441.73 722.01,441.73 723.36,441.73 724.70,441.73 726.04,441.73 727.39,441.73 728.73,441.73 730.08,441.73 731.42,441.73 732.76,441.73 734.11,441.73 735.45,441.73 736.79,441.73 738.14,441.73 739.48,441.73 740.83,441.73 742.17,441.73 743.51,441.73 744.86,441.74 746.20,441.74 747.55,441.74 748.89,441.74 750.23,441.74 751.58,441.74 752.92,441.74 754.27,441.74 755.61,441.74 756.95,441.74 758.30,441.74 759.64,441.74 760.98,441.74 762.33,441.74 763.67,441.74 765.02,441.74 766.36,441.74 767.70,441.74 769.05,441.74 770.39,441.74 771.74,441.74 773.08,441.75 774.42,441.75 775.77,441.75 777.11,441.75 778.46,441.75 779.80,441.75 781.14,441.75 782.49,441.75 783.83,441.75 785.18,441.75 786.52,441.75 787.86,441.75 789.21,441.75 790.55,441.75 791.89,441.75 793.24,441.75 794.58,441.75 795.93,441.75 797.27,441.75 798.61,441.75 799.96,441.76 801.30,441.76 802.65,441.76 803.99,441.76 805.33,441.76 806.68,441.76 808.02,441.76 809.37,441.76 810.71,441.76 812.05,441.76 813.40,441.76 814.74,441.76 816.09,441.76 817.43,441.76 818.77,441.76 820.12,441.76 821.46,441.76 822.80,441.76 824.15,441.76 825.49,441.76 826.84,441.76 828.18,441.77 829.52,441.77 830.87,441.77 832.21,441.77 833.56,441.77 834.90,441.77 836.24,441.77 837.59,441.77 838.93,441.77 840.28,441.77 841.62,441.77 842.96,441.77 844.31,441.77 845.65,441.77 846.99,441.77 848.34,441.77 849.68,441.77 851.03,441.77 852.37,441.77 853.71,441.77 855.06,441.77 856.40,441.78 857.75,441.78 859.09,441.78 860.43,441.78 861.78,441.78 863.12,441.78 864.47,441.78 865.81,441.78 867.15,441.78 868.50,441.78 869.84,441.78 871.19,441.78 872.53,441.78 873.87,441.78 875.22,441.78 876.56,441.78 877.90,441.78 879.25,441.78 880.59,441.78 881.94,441.78 883.28,441.78 884.62,441.79 885.97,441.79 887.31,441.79 888.66,441.79 890.00,441.79"/>
  <polyline fill="none" stroke="#d63384" stroke-width="2.2" points="85.00,202.77 86.34,207.47 87.69,212.23 89.03,217.07 90.38,222.00 91.72,227.02 93.06,232.13 94.41,237.36 95.75,242.69 97.10,248.13 98.44,253.67 99.78,259.33 101.13,265.10 102.47,270.99 103.81,276.98 105.16,283.08 106.50,289.29 107.85,295.61 109.19,302.04 110.53,308.57 111.88,315.20 113.22,321.93 114.57,328.76 115.91,335.67 117.25,342.65 118.60,349.71 119.94,356.82 121.29,363.96 122.63,371.11 123.97,378.24 125.32,385.31 126.66,392.28 128.01,399.09 129.35,405.68 130.69,411.98 132.04,417.90 133.38,423.38 134.72,428.34 136.07,432.72 137.41,436.48 138.76,439.61 140.10,442.11 141.44,444.03 142.79,445.40 144.13,446.31 145.48,446.82 146.82,447.00 148.16,446.94 149.51,446.68 150.85,446.27 152.20,445.77 153.54,445.21 154.88,444.62 156.23,444.01 157.57,443.40 158.91,442.80 160.26,442.23 161.60,441.68 162.95,441.17 164.29,440.69 165.63,440.24 166.98,439.83 168.32,439.45 169.67,439.10 171.01,438.79 172.35,438.50 173.70,438.24 175.04,438.00 176.39,437.79 177.73,437.60 179.07,437.44 180.42,437.29 181.76,437.16 183.11,437.04 184.45,436.94 185.79,436.85 187.14,436.77 188.48,436.71 189.82,436.65 191.17,436.60 192.51,436.56 193.86,436.53 195.20,436.50 196.54,436.48 197.89,436.47 199.23,436.46 200.58,436.46 201.92,436.45 203.26,436.46 204.61,436.46 205.95,436.47 207.30,436.48 208.64,436.49 209.98,436.51 211.33,436.52 212.67,436.54 214.02,436.56 215.36,436.58 216.70,436.60 218.05,436.62 219.39,436.65 220.73,436.67 222.08,436.70 223.42,436.72 224.77,436.75 226.11,436.78 227.45,436.80 228.80,436.83 230.14,436.86 231.49,436.89 232.83,436.92 234.17,436.94 235.52,436.97 236.86,437.00 238.21,437.03 239.55,437.06 240.89,437.09 242.24,437.12 243.58,437.15 244.92,437.18 246.27,437.21 247.61,437.25 248.96,437.28 250.30,437.31 251.64,437.34 252.99,437.37 254.33,437.40 255.68,437.43 257.02,437.46 258.36,437.49 259.71,437.52 261.05,437.55 262.40,437.58 263.74,437.62 265.08,437.65 266.43,437.68 267.77,437.71 269.12,437.74 270.46,437.77 271.80,437.80 273.15,437.83 274.49,437.86 275.83,437.89 277.18,437.92 278.52,437.95 279.87,437.98 281.21,438.01 282.55,438.04 283.90,438.08 285.24,438.11 286.59,438.14 287.93,438.17 289.27,438.20 290.62,438.23 291.96,438.26 293.31,438.28 294.65,438.31 295.99,438.34 297.34,438.37 298.68,438.40 300.03,438.43 301.37,438.46 302.71,438.49 304.06,438.52 305.40,438.55 306.74,438.58 308.09,438.61 309.43,438.63 310.78,438.66 312.12,438.69 313.46,438.72 314.81,438.75 316.15,438.77 317.50,438.80 318.84,438.83 320.18,438.86 321.53,438.89 322.87,438.91 324.22,438.94 325.56,438.97 326.90,438.99 328.25,439.02 329.59,439.05 330.93,439.08 332.28,439.10 333.62,439.13 334.97,439.16 336.31,439.18 337.65,439.21 339.00,439.23 340.34,439.26 341.69,439.29 343.03,439.31 344.37,439.34 345.72,439.36 347.06,439.39 348.41,439.41 349.75,439.44 351.09,439.46 352.44,439.49 353.78,439.51 355.13,439.54 356.47,439.56 357.81,439.59 359.16,439.61 360.50,439.64 361.84,439.66 363.19,439.69 364.53,439.71 365.88,439.73 367.22,439.76 368.56,439.78 369.91,439.81 371.25,439.83 372.60,439.85 373.94,439.88 375.28,439.90 376.63,439.92 377.97,439.94 379.32,439.97 380.66,439.99 382.00,440.01 383.35,440.04 384.69,440.06 386.04,440.08 387.38,440.10 388.72,440.12 390.07,440.15 391.41,440.17 392.75,440.19 394.10,440.21 395.44,440.23 396.79,440.25 398.13,440.28 399.47,440.30 400.82,440.32 402.16,440.34 403.51,440.36 404.85,440.38 406.19,440.40 407.54,440.42 408.88,440.44 410.23,440.46 411.57,440.48 412.91,440.50 414.26,440.52 415.60,440.54 416.94,440.56 418.29,440.58 419.63,440.60 420.98,440.62 422.32,440.64 423.66,440.66 425.01,440.68 426.35,440.70 427.70,440.72 429.04,440.74 430.38,440.76 431.73,440.78 433.07,440.80 434.42,440.81 435.76,440.83 437.10,440.85 438.45,440.87 439.79,440.89 441.14,440.91 442.48,440.93 443.82,440.94 445.17,440.96 446.51,440.98 447.85,441.00 449.20,441.01 450.54,441.03 451.89,441.05 453.23,441.07 454.57,441.08 455.92,441.10 457.26,441.12 458.61,441.14 459.95,441.15 461.29,441.17 462.64,441.19 463.98,441.20 465.33,441.22 466.67,441.24 468.01,441.25 469.36,441.27 470.70,441.28 472.05,441.30 473.39,441.32 474.73,441.33 476.08,441.35 477.42,441.36 478.76,441.38 480.11,441.40 481.45,441.41 482.80,441.43 484.14,441.44 485.48,441.46 486.83,441.47 488.17,441.49 489.52,441.50 490.86,441.52 492.20,441.53 493.55,441.55 494.89,441.56 496.24,441.58 497.58,441.59 498.92,441.61 500.27,441.62 501.61,441.63 502.95,441.65 504.30,441.66 505.64,441.68 506.99,441.69 508.33,441.70 509.67,441.72 511.02,441.73 512.36,441.75 513.71,441.76 515.05,441.77 516.39,441.79 517.74,441.80 519.08,441.81 520.43,441.83 521.77,441.84 523.11,441.85 524.46,441.87 525.80,441.88 527.15,441.89 528.49,441.90 529.83,441.92 531.18,441.93 532.52,441.94 533.86,441.95 535.21,441.97 536.55,441.98 537.90,441.99 539.24,442.00 540.58,442.02 541.93,442.03 543.27,442.04 544.62,442.05 545.96,442.06 547.30,442.08 548.65,442.09 549.99,442.10 551.34,442.11 552.68,442.12 554.02,442.13 555.37,442.15 556.71,442.16 558.06,442.17 559.40,442.18 560.74,442.19 562.09,442.20 563.43,442.21 564.77,442.22 566.12,442.24 567.46,442.25 568.81,442.26 570.15,442.27 571.49,442.28 572.84,442.29 574.18,442.30 575.53,442.31 576.87,442.32 578.21,442.33 579.56,442.34 580.90,442.35 582.25,442.36 583.59,442.37 584.93,442.38 586.28,442.39 587.62,442.40 588.96,442.41 590.31,442.42 591.65,442.43 593.00,442.44 594.34,442.45 595.68,442.46 597.03,442.47 598.37,442.48 599.72,442.49 601.06,442.50 602.40,442.51 603.75,442.52 605.09,442.53 606.44,442.54 607.78,442.54 609.12,442.55 610.47,442.56 611.81,442.57 613.16,442.58 614.50,442.59 615.84,442.60 617.19,442.61 618.53,442.62 619.87,442.62 621.22,442.63 622.56,442.64 623.91,442.65 625.25,442.66 626.59,442.67 627.94,442.68 629.28,442.68 630.63,442.69 631.97,442.70 633.31,442.71 634.66,442.72 636.00,442.72 637.35,442.73 638.69,442.74 640.03,442.75 641.38,442.76 642.72,442.76 644.07,442.77 645.41,442.78 646.75,442.79 648.10,442.80 649.44,442.80 650.78,442.81 652.13,442.82 653.47,442.83 654.82,442.83 656.16,442.84 657.50,442.85 658.85,442.86 660.19,442.86 661.54,442.87 662.88,442.88 664.22,442.88 665.57,442.89 666.91,442.90 668.26,442.91 669.60,442.91 670.94,442.92 672.29,442.93 673.63,442.93 674.97,442.94 676.32,442.95 677.66,442.95 679.01,442.96 680.35,442.97 681.69,442.97 683.04,442.98 684.38,442.99 685.73,442.99 687.07,443.00 688.41,443.01 689.76,443.01 691.10,443.02 692.45,443.03 693.79,443.03 695.13,443.04 696.48,443.05 697.82,443.05 699.17,443.06 700.51,443.06 701.85,443.07 703.20,443.08 704.54,443.08 705.88,443.09 707.23,443.09 708.57,443.10 709.92,443.11 711.26,443.11 712.60,443.12 713.95,443.12 715.29,443.13 716.64,443.14 717.98,443.14 719.32,443.15 720.67,443.15 722.01,443.16 723.36,443.16 724.70,443.17 726.04,443.18 727.39,443.18 728.73,443.19 730.08,443.19 731.42,443.20 732.76,443.20 734.11,443.21 735.45,443.21 736.79,443.22 738.14,443.22 739.48,443.23 740.83,443.24 742.17,443.24 743.51,443.25 744.86,443.25 746.20,443.26 747.55,443.26 748.89,443.27 750.23,443.27 751.58,443.28 752.92,443.28 754.27,443.29 755.61,443.29 756.95,443.30 758.30,443.30 759.64,443.31 760.98,443.31 762.33,443.32 763.67,443.32 765.02,443.33 766.36,443.33 767.70,443.34 769.05,443.34 770.39,443.34 771.74,443.35 773.08,443.35 774.42,443.36 775.77,443.36 777.11,443.37 778.46,443.37 779.80,443.38 781.14,443.38 782.49,443.39 783.83,443.39 785.18,443.39 786.52,443.40 787.86,443.40 789.21,443.41 790.55,443.41 791.89,443.42 793.24,443.42 794.58,443.43 795.93,443.43 797.27,443.43 798.61,443.44 799.96,443.44 801.30,443.45 802.65,443.45 803.99,443.46 805.33,443.46 806.68,443.46 808.02,443.47 809.37,443.47 810.71,443.48 812.05,443.48 813.40,443.48 814.74,443.49 816.09,443.49 817.43,443.50 818.77,443.50 820.12,443.50 821.46,443.51 822.80,443.51 824.15,443.52 825.49,443.52 826.84,443.52 828.18,443.53 829.52,443.53 830.87,443.53 832.21,443.54 833.56,443.54 834.90,443.55 836.24,443.55 837.59,443.55 838.93,443.56 840.28,443.56 841.62,443.56 842.96,443.57 844.31,443.57 845.65,443.58 846.99,443.58 848.34,443.58 849.68,443.59 851.03,443.59 852.37,443.59 853.71,443.60 855.06,443.60 856.40,443.60 857.75,443.61 859.09,443.61 860.43,443.62 861.78,443.62 863.12,443.62 864.47,443.63 865.81,443.63 867.15,443.63 868.50,443.64 869.84,443.64 871.19,443.64 872.53,443.65 873.87,443.65 875.22,443.65 876.56,443.66 877.90,443.66 879.25,443.66 880.59,443.67 881.94,443.67 883.28,443.67 884.62,443.68 885.97,443.68 887.31,443.68 888.66,443.69 890.00,443.69"/>
  <text x="882" y="503" font-size="12" font-family="monospace" fill="#222222">step</text>
  <text x="24" y="260.0" font-size="12" font-family="monospace" fill="#222222" transform="rotate(-90 24,260.0)">residual</text>
  <line x1="85" y1="494" x2="121" y2="494" stroke="#0b6efd" stroke-width="2.2"/>
  <text x="129" y="498" font-size="12" font-family="monospace" fill="#222222">u residual</text>
  <line x1="255" y1="494" x2="291" y2="494" stroke="#d63384" stroke-width="2.2"/>
  <text x="299" y="498" font-size="12" font-family="monospace" fill="#222222">p residual</text>
</svg>
