<?xml version="1.0" encoding="UTF-8"?>
<svg xmlns="http://www.w3.org/2000/svg" width="920" height="520" viewBox="0 0 920 520">
  <rect x="0" y="0" width="920" height="520" fill="white"/>
  <text x="85" y="32" font-size="20" font-family="monospace" fill="#111111">0098_stage01_iter007_final_attempt03</text>
  <text x="85" y="52" font-size="13" font-family="monospace" fill="#555555">IPCS residual history (log10 scale)</text>
  <rect x="85" y="65" width="805" height="390" fill="none" stroke="#222222" stroke-width="1.2"/>
  <line x1="85" y1="455.00" x2="890" y2="455.00" stroke="#d9d9d9" stroke-width="1"/>
  <text x="75" y="455.00" font-size="12" font-family="monospace" fill="#333333" text-anchor="end" dominant-baseline="middle">1.0e-05</text>
  <line x1="85" y1="325.00" x2="890" y2="325.00" stroke="#d9d9d9" stroke-width="1"/>
  <text x="75" y="325.00" font-size="12" font-family="monospace" fill="#333333" text-anchor="end" dominant-baseline="middle">1.0e-04</text>
  <line x1="85" y1="195.00" x2="890" y2="195.00" stroke="#d9d9d9" stroke-width="1"/>
  <text x="75" y="195.00" font-size="12" font-family="monospace" fill="#333333" text-anchor="end" dominant-baseline="middle">1.0e-03</text>
  <line x1="85" y1="65.00" x2="890" y2="65.00" stroke="#d9d9d9" stroke-width="1"/>
  <text x="75" y="65.00" font-size="12" font-family="monospace" fill="#333333" text-anchor="end" dominant-baseline="middle">1.0e-02</text>
  <line x1="85.00" y1="65" x2="85.00" y2="455" stroke="#e6e6e6" stroke-width="1"/>
  <text x="85.00" y="479" font-size="12" font-family="monospace" fill="#333333" text-anchor="middle">1</text>
  <line x1="246.00" y1="65" x2="246.00" y2="455" stroke="#e6e6e6" stroke-width="1"/>
  <text x="246.00" y="479" font-size="12" font-family="monospace" fill="#333333" text-anchor="middle">8</text>
  <line x1="407.00" y1="65" x2="407.00" y2="455" stroke="#e6e6e6" stroke-width="1"/>
  <text x="407.00" y="479" font-size="12" font-family="monospace" fill="#333333" text-anchor="middle">15</text>
  <line x1="568.00" y1="65" x2="568.00" y2="455" stroke="#e6e6e6" stroke-width="1"/>
  <text x="568.00" y="479" font-size="12" font-family="monospace" fill="#333333" text-anchor="middle">21</text>
  <line x1="729.00" y1="65" x2="729.00" y2="455" stroke="#e6e6e6" stroke-width="1"/>
  <text x="729.00" y="479" font-size="12" font-family="monospace" fill="#333333" text-anchor="middle">28</text>
  <line x1="890.00" y1="65" x2="890.00" y2="455" stroke="#e6e6e6" stroke-width="1"/>
  <text x="890.00" y="479" font-size="12" font-family="monospace" fill="#333333" text-anchor="middle">35</text>
  <line x1="85" y1="325.00" x2="890" y2="325.00" stroke="#0b6efd" stroke-width="1.2" stroke-dasharray="6 4"/>
  <line x1="85" y1="195.00" x2="890" y2="195.00" stroke="#d63384" stroke-width="1.2" stroke-dasharray="6 4"/>
  <polyline fill="none" stroke="#0b6efd" stroke-width="2.2" points="85.00,362.37 108.68,362.37 132.35,362.37 156.03,362.37 179.71,362.37 203.38,362.37 227.06,362.37 250.74,362.37 274.41,362.37 298.09,362.38 321.76,362.38 345.44,362.38 369.12,362.38 392.79,362.38 416.47,362.38 440.15,362.38 463.82,362.38 487.50,362.38 511.18,362.38 534.85,362.38 558.53,362.38 582.21,362.38 605.88,362.38 629.56,362.38 653.24,362.38 676.91,362.38 700.59,362.38 724.26,362.38 747.94,362.38 771.62,362.38 795.29,362.38 818.97,362.38 842.65,362.38 866.32,362.38 890.00,362.38"/>
  <polyline fill="none" stroke="#d63384" stroke-width="2.2" points="85.00,109.77 108.68,111.63 132.35,113.54 156.03,115.51 179.71,117.52 203.38,119.58 227.06,121.69 250.74,123.84 274.41,126.04 298.09,128.28 321.76,130.57 345.44,132.89 369.12,135.25 392.79,137.66 416.47,140.10 440.15,142.58 463.82,145.09 487.50,147.65 511.18,150.23 534.85,152.86 558.53,155.52 582.21,158.21 605.88,160.94 629.56,163.70 653.24,166.49 676.91,169.32 700.59,172.18 724.26,175.07 747.94,178.00 771.62,180.96 795.29,183.95 818.97,186.98 842.65,190.03 866.32,193.13 890.00,196.25"/>
  <text x="882" y="503" font-size="12" font-family="monospace" fill="#222222">step</text>
  <text x="24" y="260.0" font-size="12" font-family="monospace" fill="#222222" transform="rotate(-90 24,260.0)">residual</text>
  <line x1="85" y1="494" x2="121" y2="494" stroke="#0b6efd" stroke-width="2.2"/>
  <text x="129" y="498" font-size="12" font-family="monospace" fill="#222222">u residual</text>
  <line x1="255" y1="494" x2="291" y2="494" stroke="#d63384" stroke-width="2.2"/>
  <text x="299" y="498" font-size="12" font-family="monospace" fill="#222222">p residual</text>
</svg>
