<?xml version="1.0" encoding="UTF-8"?>
<svg xmlns="http://www.w3.org/2000/svg" width="920" height="520" viewBox="0 0 920 520">
  <rect x="0" y="0" width="920" height="520" fill="white"/>
  <text x="85" y="32" font-size="20" font-family="monospace" fill="#111111">0212_stage01_iter021_picard03_attempt02</text>
  <text x="85" y="52" font-size="13" font-family="monospace" fill="#555555">IPCS residual history (log10 scale)</text>
  <rect x="85" y="65" width="805" height="390" fill="none" stroke="#222222" stroke-width="1.2"/>
  <line x1="85" y1="455.00" x2="890" y2="455.00" stroke="#d9d9d9" stroke-width="1"/>
  <text x="75" y="455.00" font-size="12" font-family="monospace" fill="#333333" text-anchor="end" dominant-baseline="middle">1.0e-05</text>
  <line x1="85" y1="325.00" x2="890" y2="325.00" stroke="#d9d9d9" stroke-width="1"/>
  <text x="75" y="325.00" font-size="12" font-family="monospace" fill="#333333" text-anchor="end" dominant-baseline="middle">1.0e-04</text>
  <line x1="85" y1="195.00" x2="890" y2="195.00" stroke="#d9d9d9" stroke-width="1"/>
  <text x="75" y="195.00" font-size="12" font-family="monospace" fill="#333333" text-anchor="end" dominant-baseline="middle">1.0e-03</text>
  <line x1="85" y1="65.00" x2="890" y2="65.00" stroke="#d9d9d9" stroke-width="1"/>
  <text x="75" y="65.00" font-size="12" font-family="monospace" fill="#333333" text-anchor="end" dominant-baseline="middle">1.0e-02</text>
  <line x1="85.00" y1="65" x2="85.00" y2="455" stroke="#e6e6e6" stroke-width="1"/>
  <text x="85.00" y="479" font-size="12" font-family="monospace" fill="#333333" text-anchor="middle">1</text>
  <line x1="246.00" y1="65" x2="246.00" y2="455" stroke="#e6e6e6" stroke-width="1"/>
  <text x="246.00" y="479" font-size="12" font-family="monospace" fill="#333333" text-anchor="middle">5</text>
  <line x1="407.00" y1="65" x2="407.00" y2="455" stroke="#e6e6e6" stroke-width="1"/>
  <text x="407.00" y="479" font-size="12" font-family="monospace" fill="#333333" text-anchor="middle">10</text>
  <line x1="568.00" y1="65" x2="568.00" y2="455" stroke="#e6e6e6" stroke-width="1"/>
  <text x="568.00" y="479" font-size="12" font-family="monospace" fill="#333333" text-anchor="middle">14</text>
  <line x1="729.00" y1="65" x2="729.00" y2="455" stroke="#e6e6e6" stroke-width="1"/>
  <text x="729.00" y="479" font-size="12" font-family="monospace" fill="#333333" text-anchor="middle">19</text>
  <line x1="890.00" y1="65" x2="890.00" y2="455" stroke="#e6e6e6" stroke-width="1"/>
  <text x="890.00" y="479" font-size="12" font-family="monospace" fill="#333333" text-anchor="middle">23</text>
  <line x1="85" y1="325.00" x2="890" y2="325.00" stroke="#0b6efd" stroke-width="1.2" stroke-dasharray="6 4"/>
  <line x1="85" y1="195.00" x2="890" y2="195.00" stroke="#d63384" stroke-width="1.2" stroke-dasharray="6 4"/>
  <polyline fill="none" stroke="#0b6efd" stroke-width="2.2" points="85.00,338.39 121.59,338.39 158.18,338.39 194.77,338.39 231.36,338.39 267.95,338.39 304.55,338.39 341.14,338.39 377.73,338.38 414.32,338.38 450.91,338.38 487.50,338.38 524.09,338.38 560.68,338.38 597.27,338.38 633.86,338.38 670.45,338.38 707.05,338.38 743.64,338.38 780.23,338.38 816.82,338.38 853.41,338.38 890.00,338.38"/>
  <polyline fill="none" stroke="#d63384" stroke-width="2.2" points="85.00,123.29 121.59,125.96 158.18,128.72 194.77,131.55 231.36,134.47 267.95,137.47 304.55,140.53 341.14,143.67 377.73,146.88 414.32,150.15 450.91,153.48 487.50,156.87 524.09,160.32 560.68,163.82 597.27,167.36 633.86,170.95 670.45,174.58 707.05,178.25 743.64,181.95 780.23,185.68 816.82,189.44 853.41,193.22 890.00,197.02"/>
  <text x="882" y="503" font-size="12" font-family="monospace" fill="#222222">step</text>
  <text x="24" y="260.0" font-size="12" font-family="monospace" fill="#222222" transform="rotate(-90 24,260.0)">residual</text>
  <line x1="85" y1="494" x2="121" y2="494" stroke="#0b6efd" stroke-width="2.2"/>
  <text x="129" y="498" font-size="12" font-family="monospace" fill="#222222">u residual</text>
  <line x1="255" y1="494" x2="291" y2="494" stroke="#d63384" stroke-width="2.2"/>
  <text x="299" y="498" font-size="12" font-family="monospace" fill="#222222">p residual</text>
</svg>
