<?xml version="1.0"?>
<VTKFile type="UnstructuredGrid"  version="0.1"  >
<UnstructuredGrid>
<Piece  NumberOfPoints="165" NumberOfCells="256">
<Points>
<DataArray  type="Float64"  NumberOfComponents="3"  format="ascii">0 0 0  2 0 0  2 1 0  2 2 0  0 2 0  0 1 0  0.4999999999988219 0 0  0.9999999999973842 0 0  1.499999999998681 0 0  2 0.02781662118226185 0  2 0.05841490432699235 0  2 0.09207301548716586 0  2 0.1290969376898501 0  2 0.1698232521596229 0  2 0.214622198078255 0  2 0.263901038853365 0  2 0.3181077634719738 0  2 0.377735160202784 0  2 0.4433252969163891 0  2 0.5154744472750914 0  2 0.5948385124917116 0  2 0.6821389840404095 0  2 0.778169502336751 0  2 0.8838030724121422 0  2 1.116196927167973 0  2 1.221830497486254 0  2 1.317861015984792 0  2 1.405161487700385 0  2 1.484525553053348 0  2 1.556674703544246 0  2 1.622264840323494 0  2 1.681892237122333 0  2 1.736098961792252 0  2 1.785377802604432 0  2 1.830176748548059 0  2 1.870903063032639 0  2 1.907926985241549 0  2 1.941585096400842 0  2 1.972183379538844 0  1.500000000000694 2 0  1.000000000004119 2 0  0.500000000002081 2 0  0 1.972183378817708 0  0 1.941585095672932 0  0 1.907926984512722 0  0 1.870903062309992 0  0 1.830176747840114 0  0 1.785377801921358 0  0 1.736098961146102 0  0 1.681892236527323 0  0 1.622264839796312 0  0 1.556674703082417 0  0 1.484525552723596 0  0 1.405161487507133 0  0 1.317861015958639 0  0 1.221830497662552 0  0 1.116196927587473 0  0 0.8838030728317091 0  0 0.7781695025141827 0  0 0.682138984016358 0  0 0.5948385123013449 0  0 0.5154744469488468 0  0 0.4433252964578244 0  0 0.3777351596781195 0  0 0.3181077628789705 0  0 0.2639010382087844 0  0 0.2146221973963757 0  0 0.1698232514525531 0  0 0.1290969369678056 0  0 0.09207301475875462 0  0 0.05841490359934209 0  0 0.02781662046123923 0  0.4999999999988672 0.02781662064149489 0  0.4999999999989171 0.05841490378125466 0  0.4999999999989719 0.09207301494085744 0  0.4999999999990323 0.1290969371483167 0  0.4999999999990987 0.1698232516293205 0  0.4999999999991717 0.2146221975668455 0  0.4999999999992519 0.2639010383699296 0  0.4999999999993403 0.3181077630272213 0  0.4999999999994374 0.3777351598092856 0  0.4999999999995443 0.4433252965724655 0  0.499999999999662 0.5154744470304079 0  0.4999999999997911 0.5948385123489367 0  0.4999999999999334 0.6821389840223711 0  0.5000000000000899 0.7781695024698247 0  0.5000000000002622 0.8838030727268174 0  0.5000000000004514 1 0  0.5000000000006408 1.116196927482599 0  0.5000000000008129 1.221830497618477 0  0.5000000000009694 1.317861015965177 0  0.5000000000011118 1.405161487555446 0  0.500000000001241 1.484525552806034 0  0.5000000000013587 1.556674703197874 0  0.5000000000014655 1.622264839928107 0  0.5000000000015625 1.681892236676075 0  0.5000000000016509 1.73609896130764 0  0.5000000000017313 1.785377802092127 0  0.5000000000018043 1.8301767480171 0  0.5000000000018707 1.870903062490654 0  0.5000000000019309 1.907926984694928 0  0.5000000000019857 1.941585095854909 0  0.5000000000020357 1.972183378997992 0  0.9999999999974778 0.02781662082175054 0  0.9999999999975808 0.05841490396316722 0  0.9999999999976943 0.09207301512296022 0  0.9999999999978191 0.1290969373288278 0  0.9999999999979561 0.169823251806088 0  0.9999999999981068 0.2146221977373153 0  0.9999999999982727 0.2639010385310747 0  0.9999999999984555 0.3181077631754722 0  0.9999999999986562 0.3777351599404518 0  0.9999999999988769 0.4433252966871067 0  0.99999999999912 0.5154744471119691 0  0.9999999999993872 0.5948385123965284 0  0.9999999999996811 0.6821389840283839 0  1.000000000000004 0.7781695024254669 0  1.000000000000361 0.8838030726219257 0  1.000000000000751 1 0  1.000000000001143 1.116196927377723 0  1.000000000001498 1.221830497574403 0  1.000000000001822 1.317861015971715 0  1.000000000002116 1.405161487603759 0  1.000000000002383 1.484525552888472 0  1.000000000002626 1.556674703313331 0  1.000000000002847 1.622264840059903 0  1.000000000003048 1.681892236824828 0  1.00000000000323 1.736098961469177 0  1.000000000003396 1.785377802262895 0  1.000000000003547 1.830176748194086 0  1.000000000003684 1.870903062671315 0  1.000000000003809 1.907926984877135 0  1.000000000003922 1.941585096036887 0  1.000000000004025 1.972183379178276 0  1.499999999998709 0.02781662100200619 0  1.49999999999874 0.05841490414507979 0  1.499999999998774 0.09207301530506307 0  1.499999999998811 0.129096937509339 0  1.499999999998852 0.1698232519828555 0  1.499999999998898 0.2146221979077852 0  1.499999999998947 0.2639010386922198 0  1.499999999999001 0.3181077633237229 0  1.499999999999062 0.3777351600716179 0  1.499999999999128 0.4433252968017479 0  1.4999999999992 0.5154744471935303 0  1.49999999999928 0.5948385124441201 0  1.499999999999368 0.6821389840343968 0  1.499999999999464 0.778169502381109 0  1.499999999999571 0.883803072517034 0  1.499999999999688 1 0  1.499999999999804 1.116196927272848 0  1.499999999999911 1.221830497530328 0  1.500000000000008 1.317861015978253 0  1.500000000000096 1.405161487652072 0  1.500000000000175 1.48452555297091 0  1.500000000000248 1.556674703428789 0  1.500000000000314 1.622264840191698 0  1.500000000000374 1.681892236973581 0  1.500000000000429 1.736098961630715 0  1.500000000000478 1.785377802433664 0  1.500000000000523 1.830176748371073 0  1.500000000000564 1.870903062851977 0  1.500000000000602 1.907926985059342 0  1.500000000000635 1.941585096218864 0  1.500000000000666 1.97218337935856 0  </DataArray>
</Points>
<Cells>
<DataArray  type="UInt32"  Name="connectivity"  format="ascii">0 6 71  6 71 72  70 71 72  70 72 73  69 70 73  69 73 74  68 69 74  68 74 75  67 68 75  67 75 76  66 67 76  66 76 77  65 66 77  65 77 78  64 65 78  64 78 79  63 64 79  63 79 80  62 63 80  62 80 81  61 62 81  61 81 82  60 61 82  60 82 83  59 60 83  59 83 84  58 59 84  58 84 85  57 58 85  57 85 86  5 57 86  5 86 87  5 56 87  56 87 88  55 56 88  55 88 89  54 55 89  54 89 90  53 54 90  53 90 91  52 53 91  52 91 92  51 52 92  51 92 93  50 51 93  50 93 94  49 50 94  49 94 95  48 49 95  48 95 96  47 48 96  47 96 97  46 47 97  46 97 98  45 46 98  45 98 99  44 45 99  44 99 100  43 44 100  43 100 101  42 43 101  42 101 102  4 42 102  4 41 102  6 7 72  7 72 103  72 73 103  73 103 104  73 74 104  74 104 105  74 75 105  75 105 106  75 76 106  76 106 107  76 77 107  77 107 108  77 78 108  78 108 109  78 79 109  79 109 110  79 80 110  80 110 111  80 81 111  81 111 112  81 82 112  82 112 113  82 83 113  83 113 114  83 84 114  84 114 115  84 85 115  85 115 116  85 86 116  86 116 117  86 87 117  87 117 118  87 88 118  88 118 119  88 89 119  89 119 120  89 90 120  90 120 121  90 91 121  91 121 122  91 92 122  92 122 123  92 93 123  93 123 124  93 94 124  94 124 125  94 95 125  95 125 126  95 96 126  96 126 127  96 97 127  97 127 128  97 98 128  98 128 129  98 99 129  99 129 130  99 100 130  100 130 131  100 101 131  101 131 132  101 102 132  102 132 133  41 102 133  40 41 133  7 8 103  8 103 134  103 104 134  104 134 135  104 105 135  105 135 136  105 106 136  106 136 137  106 107 137  107 137 138  107 108 138  108 138 139  108 109 139  109 139 140  109 110 140  110 140 141  110 111 141  111 141 142  111 112 142  112 142 143  112 113 143  113 143 144  113 114 144  114 144 145  114 115 145  115 145 146  115 116 146  116 146 147  116 117 147  117 147 148  117 118 148  118 148 149  118 119 149  119 149 150  119 120 150  120 150 151  120 121 151  121 151 152  121 122 152  122 152 153  122 123 153  123 153 154  123 124 154  124 154 155  124 125 155  125 155 156  125 126 156  126 156 157  126 127 157  127 157 158  127 128 158  128 158 159  128 129 159  129 159 160  129 130 160  130 160 161  130 131 161  131 161 162  131 132 162  132 162 163  132 133 163  133 163 164  40 133 164  39 40 164  1 8 134  1 9 134  9 134 135  9 10 135  10 135 136  10 11 136  11 136 137  11 12 137  12 137 138  12 13 138  13 138 139  13 14 139  14 139 140  14 15 140  15 140 141  15 16 141  16 141 142  16 17 142  17 142 143  17 18 143  18 143 144  18 19 144  19 144 145  19 20 145  20 145 146  20 21 146  21 146 147  21 22 147  22 147 148  22 23 148  23 148 149  2 23 149  2 149 150  2 24 150  24 150 151  24 25 151  25 151 152  25 26 152  26 152 153  26 27 153  27 153 154  27 28 154  28 154 155  28 29 155  29 155 156  29 30 156  30 156 157  30 31 157  31 157 158  31 32 158  32 158 159  32 33 159  33 159 160  33 34 160  34 160 161  34 35 161  35 161 162  35 36 162  36 162 163  36 37 163  37 163 164  37 38 164  38 39 164  3 38 39  </DataArray>
<DataArray  type="UInt32"  Name="offsets"  format="ascii">3 6 9 12 15 18 21 24 27 30 33 36 39 42 45 48 51 54 57 60 63 66 69 72 75 78 81 84 87 90 93 96 99 102 105 108 111 114 117 120 123 126 129 132 135 138 141 144 147 150 153 156 159 162 165 168 171 174 177 180 183 186 189 192 195 198 201 204 207 210 213 216 219 222 225 228 231 234 237 240 243 246 249 252 255 258 261 264 267 270 273 276 279 282 285 288 291 294 297 300 303 306 309 312 315 318 321 324 327 330 333 336 339 342 345 348 351 354 357 360 363 366 369 372 375 378 381 384 387 390 393 396 399 402 405 408 411 414 417 420 423 426 429 432 435 438 441 444 447 450 453 456 459 462 465 468 471 474 477 480 483 486 489 492 495 498 501 504 507 510 513 516 519 522 525 528 531 534 537 540 543 546 549 552 555 558 561 564 567 570 573 576 579 582 585 588 591 594 597 600 603 606 609 612 615 618 621 624 627 630 633 636 639 642 645 648 651 654 657 660 663 666 669 672 675 678 681 684 687 690 693 696 699 702 705 708 711 714 717 720 723 726 729 732 735 738 741 744 747 750 753 756 759 762 765 768 </DataArray>
<DataArray  type="UInt8"  Name="types"  format="ascii">5 5 5 5 5 5 5 5 5 5 5 5 5 5 5 5 5 5 5 5 5 5 5 5 5 5 5 5 5 5 5 5 5 5 5 5 5 5 5 5 5 5 5 5 5 5 5 5 5 5 5 5 5 5 5 5 5 5 5 5 5 5 5 5 5 5 5 5 5 5 5 5 5 5 5 5 5 5 5 5 5 5 5 5 5 5 5 5 5 5 5 5 5 5 5 5 5 5 5 5 5 5 5 5 5 5 5 5 5 5 5 5 5 5 5 5 5 5 5 5 5 5 5 5 5 5 5 5 5 5 5 5 5 5 5 5 5 5 5 5 5 5 5 5 5 5 5 5 5 5 5 5 5 5 5 5 5 5 5 5 5 5 5 5 5 5 5 5 5 5 5 5 5 5 5 5 5 5 5 5 5 5 5 5 5 5 5 5 5 5 5 5 5 5 5 5 5 5 5 5 5 5 5 5 5 5 5 5 5 5 5 5 5 5 5 5 5 5 5 5 5 5 5 5 5 5 5 5 5 5 5 5 5 5 5 5 5 5 5 5 5 5 5 5 5 5 5 5 5 5 5 5 5 5 5 5 </DataArray>
</Cells>
<PointData  Vectors="f_167"> 
<DataArray  type="Float64"  Name="f_167"  NumberOfComponents="3" format="ascii">0.0000000000000000e+00 0.0000000000000000e+00 0.0000000000000000e+00  0.0000000000000000e+00 0.0000000000000000e+00 0.0000000000000000e+00  2.2000531880942347e+01 3.7866356569624974e-09 0.0000000000000000e+00  0.0000000000000000e+00 0.0000000000000000e+00 0.0000000000000000e+00  0.0000000000000000e+00 0.0000000000000000e+00 0.0000000000000000e+00  2.2000531880942347e+01 3.7866356569624974e-09 0.0000000000000000e+00  0.0000000000000000e+00 0.0000000000000000e+00 0.0000000000000000e+00  0.0000000000000000e+00 0.0000000000000000e+00 0.0000000000000000e+00  0.0000000000000000e+00 0.0000000000000000e+00 0.0000000000000000e+00  1.2070740013072200e+01 5.8527357464678156e-10 0.0000000000000000e+00  1.4868393567543485e+01 9.9114211077883092e-10 0.0000000000000000e+00  1.6079931143047826e+01 1.3905545085553425e-09 0.0000000000000000e+00  1.6958789602976349e+01 1.6767489662174887e-09 0.0000000000000000e+00  1.7681532280673270e+01 1.9837352660963273e-09 0.0000000000000000e+00  1.8311772088352619e+01 2.3248163556942703e-09 0.0000000000000000e+00  1.8879609583058027e+01 2.5804401128297035e-09 0.0000000000000000e+00  1.9401063237644770e+01 2.7975121559172130e-09 0.0000000000000000e+00  1.9884725699128190e+01 3.0088599711467312e-09 0.0000000000000000e+00  2.0334428538076743e+01 3.2007458880048687e-09 0.0000000000000000e+00  2.0750248542867254e+01 3.3664192250332065e-09 0.0000000000000000e+00  2.1128583465056515e+01 3.5028952141976140e-09 0.0000000000000000e+00  2.1461462600809490e+01 3.6063134098894082e-09 0.0000000000000000e+00  2.1734963963652802e+01 3.6776321643466674e-09 0.0000000000000000e+00  2.1926424890510933e+01 3.7319210247922362e-09 0.0000000000000000e+00  2.1926623699339700e+01 3.8460903345160731e-09 0.0000000000000000e+00  2.1734981859433937e+01 3.8963608001562021e-09 0.0000000000000000e+00  2.1461033902124296e+01 3.9255603713232930e-09 0.0000000000000000e+00  2.1127434307470210e+01 3.9210167708959425e-09 0.0000000000000000e+00  2.0748086567634932e+01 3.8813055920417557e-09 0.0000000000000000e+00  2.0330929051368500e+01 3.8095116561896508e-09 0.0000000000000000e+00  1.9879519761461506e+01 3.7097527167950325e-09 0.0000000000000000e+00  1.9393724715434992e+01 3.5909137234159908e-09 0.0000000000000000e+00  1.8869632172970690e+01 3.4542668786751785e-09 0.0000000000000000e+00  1.8298505066432767e+01 3.2661865590170446e-09 0.0000000000000000e+00  1.7663962309667941e+01 3.0334278001911193e-09 0.0000000000000000e+00  1.6934727903600869e+01 2.7664507059798515e-09 0.0000000000000000e+00  1.6042534830041369e+01 2.4138635864690003e-09 0.0000000000000000e+00  1.4785345305608068e+01 1.9788845985728544e-09 0.0000000000000000e+00  1.2027020696389757e+01 1.2205017062532197e-09 0.0000000000000000e+00  0.0000000000000000e+00 0.0000000000000000e+00 0.0000000000000000e+00  0.0000000000000000e+00 0.0000000000000000e+00 0.0000000000000000e+00  0.0000000000000000e+00 0.0000000000000000e+00 0.0000000000000000e+00  1.2027020696389757e+01 1.2205017062532197e-09 0.0000000000000000e+00  1.4785345305608068e+01 1.9788845985728544e-09 0.0000000000000000e+00  1.6042534830041369e+01 2.4138635864690003e-09 0.0000000000000000e+00  1.6934727903600869e+01 2.7664507059798515e-09 0.0000000000000000e+00  1.7663962309667941e+01 3.0334278001911193e-09 0.0000000000000000e+00  1.8298505066432767e+01 3.2661865590170446e-09 0.0000000000000000e+00  1.8869632172970690e+01 3.4542668786751785e-09 0.0000000000000000e+00  1.9393724715434992e+01 3.5909137234159908e-09 0.0000000000000000e+00  1.9879519761461506e+01 3.7097527167950325e-09 0.0000000000000000e+00  2.0330929051368500e+01 3.8095116561896508e-09 0.0000000000000000e+00  2.0748086567634932e+01 3.8813055920417557e-09 0.0000000000000000e+00  2.1127434307470210e+01 3.9210167708959425e-09 0.0000000000000000e+00  2.1461033902124296e+01 3.9255603713232930e-09 0.0000000000000000e+00  2.1734981859433937e+01 3.8963608001562021e-09 0.0000000000000000e+00  2.1926623699339700e+01 3.8460903345160731e-09 0.0000000000000000e+00  2.1926424890510933e+01 3.7319210247922362e-09 0.0000000000000000e+00  2.1734963963652802e+01 3.6776321643466674e-09 0.0000000000000000e+00  2.1461462600809490e+01 3.6063134098894082e-09 0.0000000000000000e+00  2.1128583465056515e+01 3.5028952141976140e-09 0.0000000000000000e+00  2.0750248542867254e+01 3.3664192250332065e-09 0.0000000000000000e+00  2.0334428538076743e+01 3.2007458880048687e-09 0.0000000000000000e+00  1.9884725699128190e+01 3.0088599711467312e-09 0.0000000000000000e+00  1.9401063237644770e+01 2.7975121559172130e-09 0.0000000000000000e+00  1.8879609583058027e+01 2.5804401128297035e-09 0.0000000000000000e+00  1.8311772088352619e+01 2.3248163556942703e-09 0.0000000000000000e+00  1.7681532280673270e+01 1.9837352660963273e-09 0.0000000000000000e+00  1.6958789602976349e+01 1.6767489662174887e-09 0.0000000000000000e+00  1.6079931143047826e+01 1.3905545085553425e-09 0.0000000000000000e+00  1.4868393567543485e+01 9.9114211077883092e-10 0.0000000000000000e+00  1.2070740013072200e+01 5.8527357464678156e-10 0.0000000000000000e+00  1.2070739967696980e+01 1.5056834457408743e-09 0.0000000000000000e+00  1.4868393567275822e+01 2.3888501786490710e-09 0.0000000000000000e+00  1.6079931143192514e+01 2.5947944220966821e-09 0.0000000000000000e+00  1.6958789600249261e+01 2.8773940159520236e-09 0.0000000000000000e+00  1.7681532277242255e+01 3.0046168885368225e-09 0.0000000000000000e+00  1.8311772085342799e+01 3.0978897868368982e-09 0.0000000000000000e+00  1.8879609580697966e+01 3.2306424521588073e-09 0.0000000000000000e+00  1.9401063235830666e+01 3.3484040852671136e-09 0.0000000000000000e+00  1.9884725697748781e+01 3.4496722729823601e-09 0.0000000000000000e+00  2.0334428537015398e+01 3.5404380521345851e-09 0.0000000000000000e+00  2.0750248542209555e+01 3.6212080625187089e-09 0.0000000000000000e+00  2.1128583464684215e+01 3.6864236689685461e-09 0.0000000000000000e+00  2.1461462600694290e+01 3.7341206590450439e-09 0.0000000000000000e+00  2.1734963963763931e+01 3.7634624407934365e-09 0.0000000000000000e+00  2.1926424890851656e+01 3.7836514303106554e-09 0.0000000000000000e+00  2.2000531881354771e+01 3.8226541031877616e-09 0.0000000000000000e+00  2.1926623699863281e+01 3.8804309788294313e-09 0.0000000000000000e+00  2.1734981860123419e+01 3.9407110829099498e-09 0.0000000000000000e+00  2.1461033902961415e+01 3.9814253980913123e-09 0.0000000000000000e+00  2.1127434308459506e+01 3.9955216094321904e-09 0.0000000000000000e+00  2.0748086568781183e+01 3.9820936944243252e-09 0.0000000000000000e+00  2.0330929052763729e+01 3.9425284993615129e-09 0.0000000000000000e+00  1.9879519762990071e+01 3.8814280391334922e-09 0.0000000000000000e+00  1.9393724717202367e+01 3.7959856760735304e-09 0.0000000000000000e+00  1.8869632175078781e+01 3.6902121503505175e-09 0.0000000000000000e+00  1.8298505068962442e+01 3.5680761441588856e-09 0.0000000000000000e+00  1.7663962312533474e+01 3.4138154070633878e-09 0.0000000000000000e+00  1.6934727906147877e+01 3.2298857592239541e-09 0.0000000000000000e+00  1.6042534830276193e+01 2.9892407985078375e-09 0.0000000000000000e+00  1.4785345304775465e+01 2.7592547457359239e-09 0.0000000000000000e+00  1.2027020725862233e+01 2.1984366005062220e-09 0.0000000000000000e+00  1.2070739958574084e+01 4.7929065526284362e-09 0.0000000000000000e+00  1.4868393569882334e+01 5.3707087635433748e-09 0.0000000000000000e+00  1.6079931150484430e+01 5.6522785875626002e-09 0.0000000000000000e+00  1.6958789607544979e+01 5.5645375390234377e-09 0.0000000000000000e+00  1.7681532283276788e+01 5.5305405897669379e-09 0.0000000000000000e+00  1.8311772090197397e+01 5.4665025595433594e-09 0.0000000000000000e+00  1.8879609584638466e+01 5.3771442517839180e-09 0.0000000000000000e+00  1.9401063239095780e+01 5.2676767556300534e-09 0.0000000000000000e+00  1.9884725700381772e+01 5.1505584980151379e-09 0.0000000000000000e+00  2.0334428539091192e+01 5.0298687933291603e-09 0.0000000000000000e+00  2.0750248543746650e+01 4.8986381163940946e-09 0.0000000000000000e+00  2.1128583465783432e+01 4.7609216397476069e-09 0.0000000000000000e+00  2.1461462601401308e+01 4.6233585864707683e-09 0.0000000000000000e+00  2.1734963964147042e+01 4.4903597641307038e-09 0.0000000000000000e+00  2.1926424890934197e+01 4.3813616482902350e-09 0.0000000000000000e+00  2.2000531881207369e+01 4.3244410203637907e-09 0.0000000000000000e+00  2.1926623699498208e+01 4.3452667088155252e-09 0.0000000000000000e+00  2.1734981859516466e+01 4.4162047950650946e-09 0.0000000000000000e+00  2.1461033902144742e+01 4.4927187368598313e-09 0.0000000000000000e+00  2.1127434307407942e+01 4.5567783626056679e-09 0.0000000000000000e+00  2.0748086567476602e+01 4.6011965212526439e-09 0.0000000000000000e+00  2.0330929051149703e+01 4.6218157330347787e-09 0.0000000000000000e+00  1.9879519761099235e+01 4.6210221846096389e-09 0.0000000000000000e+00  1.9393724714973111e+01 4.5997888886223378e-09 0.0000000000000000e+00  1.8869632172488732e+01 4.5513890736342397e-09 0.0000000000000000e+00  1.8298505065904095e+01 4.4817101764877529e-09 0.0000000000000000e+00  1.7663962308592247e+01 4.4061505557243387e-09 0.0000000000000000e+00  1.6934727900898981e+01 4.4010079393118116e-09 0.0000000000000000e+00  1.6042534824758203e+01 4.3477968273661034e-09 0.0000000000000000e+00  1.4785345304157948e+01 3.5974902362637190e-09 0.0000000000000000e+00  1.2027020728992145e+01 1.8221347891890495e-09 0.0000000000000000e+00  1.2070739991688862e+01 -1.7511347554784112e-09 0.0000000000000000e+00  1.4868393563111924e+01 -4.2234534100264079e-10 0.0000000000000000e+00  1.6079931144868805e+01 4.7639108493338500e-10 0.0000000000000000e+00  1.6958789604597023e+01 1.2316800506653442e-09 0.0000000000000000e+00  1.7681532281568291e+01 1.7626851435211372e-09 0.0000000000000000e+00  1.8311772089041259e+01 2.1493491475719387e-09 0.0000000000000000e+00  1.8879609583653490e+01 2.4949558432078340e-09 0.0000000000000000e+00  1.9401063238233590e+01 2.8269651952244852e-09 0.0000000000000000e+00  1.9884725699716842e+01 3.1102869767157995e-09 0.0000000000000000e+00  2.0334428538643824e+01 3.3484619593469925e-09 0.0000000000000000e+00  2.0750248543422277e+01 3.5441231196643535e-09 0.0000000000000000e+00  2.1128583465580750e+01 3.6915384448850230e-09 0.0000000000000000e+00  2.1461462601285263e+01 3.7906485125699940e-09 0.0000000000000000e+00  2.1734963964090714e+01 3.8485122477632534e-09 0.0000000000000000e+00  2.1926424890899384e+01 3.8753422934414072e-09 0.0000000000000000e+00  2.2000531881231723e+01 3.8929500563345073e-09 0.0000000000000000e+00  2.1926623699608726e+01 3.9216994273998892e-09 0.0000000000000000e+00  2.1734981859643241e+01 3.9439437715986427e-09 0.0000000000000000e+00  2.1461033902332900e+01 3.9408906377201996e-09 0.0000000000000000e+00  2.1127434307673354e+01 3.9016757643080102e-09 0.0000000000000000e+00  2.0748086567846688e+01 3.8220591503919943e-09 0.0000000000000000e+00  2.0330929051609704e+01 3.7024647905331035e-09 0.0000000000000000e+00  1.9879519761724868e+01 3.5444791842136992e-09 0.0000000000000000e+00  1.9393724715749620e+01 3.3518527985928097e-09 0.0000000000000000e+00  1.8869632173377482e+01 3.1284687171002978e-09 0.0000000000000000e+00  1.8298505066809923e+01 2.8949450304029741e-09 0.0000000000000000e+00  1.7663962309586914e+01 2.6274442036290856e-09 0.0000000000000000e+00  1.6934727902795661e+01 2.1813144984470197e-09 0.0000000000000000e+00  1.6042534829349485e+01 1.6083130894303084e-09 0.0000000000000000e+00  1.4785345309651527e+01 1.1078569077464881e-09 0.0000000000000000e+00  1.2027020713756327e+01 6.2485469398645880e-10 0.0000000000000000e+00  </DataArray> 
</PointData> 
</Piece>
</UnstructuredGrid>
</VTKFile>