<?xml version="1.0"?>
<VTKFile type="UnstructuredGrid"  version="0.1"  >
<UnstructuredGrid>
<Piece  NumberOfPoints="473" NumberOfCells="840">
<Points>
<DataArray  type="Float64"  NumberOfComponents="3"  format="ascii">0 0 0  0.2 0 0  0.4 0 0  0.6000000000000001 0 0  0.8 0 0  1 0 0  1.2 0 0  1.4 0 0  1.6 0 0  1.8 0 0  2 0 0  0 0.001708980888246768 0  0.2 0.001708980888246768 0  0.4 0.001708980888246768 0  0.6000000000000001 0.001708980888246768 0  0.8 0.001708980888246768 0  1 0.001708980888246768 0  1.2 0.001708980888246768 0  1.4 0.001708980888246768 0  1.6 0.001708980888246768 0  1.8 0.001708980888246768 0  2 0.001708980888246768 0  0 0.004187003176204581 0  0.2 0.004187003176204581 0  0.4 0.004187003176204581 0  0.6000000000000001 0.004187003176204581 0  0.8 0.004187003176204581 0  1 0.004187003176204581 0  1.2 0.004187003176204581 0  1.4 0.004187003176204581 0  1.6 0.004187003176204581 0  1.8 0.004187003176204581 0  2 0.004187003176204581 0  0 0.00778013549374341 0  0.2 0.00778013549374341 0  0.4 0.00778013549374341 0  0.6000000000000001 0.00778013549374341 0  0.8 0.00778013549374341 0  1 0.00778013549374341 0  1.2 0.00778013549374341 0  1.4 0.00778013549374341 0  1.6 0.00778013549374341 0  1.8 0.00778013549374341 0  2 0.00778013549374341 0  0 0.01299017735417471 0  0.2 0.01299017735417471 0  0.4 0.01299017735417471 0  0.6000000000000001 0.01299017735417471 0  0.8 0.01299017735417471 0  1 0.01299017735417471 0  1.2 0.01299017735417471 0  1.4 0.01299017735417471 0  1.6 0.01299017735417471 0  1.8 0.01299017735417471 0  2 0.01299017735417471 0  0 0.0205447380518001 0  0.2 0.0205447380518001 0  0.4 0.0205447380518001 0  0.6000000000000001 0.0205447380518001 0  0.8 0.0205447380518001 0  1 0.0205447380518001 0  1.2 0.0205447380518001 0  1.4 0.0205447380518001 0  1.6 0.0205447380518001 0  1.8 0.0205447380518001 0  2 0.0205447380518001 0  0 0.03149885106335691 0  0.2 0.03149885106335691 0  0.4 0.03149885106335691 0  0.6000000000000001 0.03149885106335691 0  0.8 0.03149885106335691 0  1 0.03149885106335691 0  1.2 0.03149885106335691 0  1.4 0.03149885106335691 0  1.6 0.03149885106335691 0  1.8 0.03149885106335691 0  2 0.03149885106335691 0  0 0.04738231493011429 0  0.2 0.04738231493011429 0  0.4 0.04738231493011429 0  0.6000000000000001 0.04738231493011429 0  0.8 0.04738231493011429 0  1 0.04738231493011429 0  1.2 0.04738231493011429 0  1.4 0.04738231493011429 0  1.6 0.04738231493011429 0  1.8 0.04738231493011429 0  2 0.04738231493011429 0  0 0.07041333753691248 0  0.2 0.07041333753691248 0  0.4 0.07041333753691248 0  0.6000000000000001 0.07041333753691248 0  0.8 0.07041333753691248 0  1 0.07041333753691248 0  1.2 0.07041333753691248 0  1.4 0.07041333753691248 0  1.6 0.07041333753691248 0  1.8 0.07041333753691248 0  2 0.07041333753691248 0  0 0.1038083203167699 0  0.2 0.1038083203167699 0  0.4 0.1038083203167699 0  0.6000000000000001 0.1038083203167699 0  0.8 0.1038083203167699 0  1 0.1038083203167699 0  1.2 0.1038083203167699 0  1.4 0.1038083203167699 0  1.6 0.1038083203167699 0  1.8 0.1038083203167699 0  2 0.1038083203167699 0  0 0.1522310453475631 0  0.2 0.1522310453475631 0  0.4 0.1522310453475631 0  0.6000000000000001 0.1522310453475631 0  0.8 0.1522310453475631 0  1 0.1522310453475631 0  1.2 0.1522310453475631 0  1.4 0.1522310453475631 0  1.6 0.1522310453475631 0  1.8 0.1522310453475631 0  2 0.1522310453475631 0  0 0.2293009503159664 0  0.2 0.2293009503159664 0  0.4 0.2293009503159664 0  0.6000000000000001 0.2293009503159664 0  0.8 0.2293009503159664 0  1 0.2293009503159664 0  1.2 0.2293009503159664 0  1.4 0.2293009503159664 0  1.6 0.2293009503159664 0  1.8 0.2293009503159664 0  2 0.2293009503159664 0  0 0.3063708552843698 0  0.2 0.3063708552843698 0  0.4 0.3063708552843698 0  0.6000000000000001 0.3063708552843698 0  0.8 0.3063708552843698 0  1 0.3063708552843698 0  1.2 0.3063708552843698 0  1.4 0.3063708552843698 0  1.6 0.3063708552843698 0  1.8 0.3063708552843698 0  2 0.3063708552843698 0  0 0.3834407602527732 0  0.2 0.3834407602527732 0  0.4 0.3834407602527732 0  0.6000000000000001 0.3834407602527732 0  0.8 0.3834407602527732 0  1 0.3834407602527732 0  1.2 0.3834407602527732 0  1.4 0.3834407602527732 0  1.6 0.3834407602527732 0  1.8 0.3834407602527732 0  2 0.3834407602527732 0  0 0.4605106652211766 0  0.2 0.4605106652211766 0  0.4 0.4605106652211766 0  0.6000000000000001 0.4605106652211766 0  0.8 0.4605106652211766 0  1 0.4605106652211766 0  1.2 0.4605106652211766 0  1.4 0.4605106652211766 0  1.6 0.4605106652211766 0  1.8 0.4605106652211766 0  2 0.4605106652211766 0  0 0.5375805701895799 0  0.2 0.5375805701895799 0  0.4 0.5375805701895799 0  0.6000000000000001 0.5375805701895799 0  0.8 0.5375805701895799 0  1 0.5375805701895799 0  1.2 0.5375805701895799 0  1.4 0.5375805701895799 0  1.6 0.5375805701895799 0  1.8 0.5375805701895799 0  2 0.5375805701895799 0  0 0.6146504751579832 0  0.2 0.6146504751579832 0  0.4 0.6146504751579832 0  0.6000000000000001 0.6146504751579832 0  0.8 0.6146504751579832 0  1 0.6146504751579832 0  1.2 0.6146504751579832 0  1.4 0.6146504751579832 0  1.6 0.6146504751579832 0  1.8 0.6146504751579832 0  2 0.6146504751579832 0  0 0.6917203801263866 0  0.2 0.6917203801263866 0  0.4 0.6917203801263866 0  0.6000000000000001 0.6917203801263866 0  0.8 0.6917203801263866 0  1 0.6917203801263866 0  1.2 0.6917203801263866 0  1.4 0.6917203801263866 0  1.6 0.6917203801263866 0  1.8 0.6917203801263866 0  2 0.6917203801263866 0  0 0.76879028509479 0  0.2 0.76879028509479 0  0.4 0.76879028509479 0  0.6000000000000001 0.76879028509479 0  0.8 0.76879028509479 0  1 0.76879028509479 0  1.2 0.76879028509479 0  1.4 0.76879028509479 0  1.6 0.76879028509479 0  1.8 0.76879028509479 0  2 0.76879028509479 0  0 0.8458601900631934 0  0.2 0.8458601900631934 0  0.4 0.8458601900631934 0  0.6000000000000001 0.8458601900631934 0  0.8 0.8458601900631934 0  1 0.8458601900631934 0  1.2 0.8458601900631934 0  1.4 0.8458601900631934 0  1.6 0.8458601900631934 0  1.8 0.8458601900631934 0  2 0.8458601900631934 0  0 0.9229300950315967 0  0.2 0.9229300950315967 0  0.4 0.9229300950315967 0  0.6000000000000001 0.9229300950315967 0  0.8 0.9229300950315967 0  1 0.9229300950315967 0  1.2 0.9229300950315967 0  1.4 0.9229300950315967 0  1.6 0.9229300950315967 0  1.8 0.9229300950315967 0  2 0.9229300950315967 0  0 1 0  0.2 1 0  0.4 1 0  0.6000000000000001 1 0  0.8 1 0  1 1 0  1.2 1 0  1.4 1 0  1.6 1 0  1.8 1 0  2 1 0  0 1.077069904968403 0  0.2 1.077069904968403 0  0.4 1.077069904968403 0  0.6000000000000001 1.077069904968403 0  0.8 1.077069904968403 0  1 1.077069904968403 0  1.2 1.077069904968403 0  1.4 1.077069904968403 0  1.6 1.077069904968403 0  1.8 1.077069904968403 0  2 1.077069904968403 0  0 1.154139809936807 0  0.2 1.154139809936807 0  0.4 1.154139809936807 0  0.6000000000000001 1.154139809936807 0  0.8 1.154139809936807 0  1 1.154139809936807 0  1.2 1.154139809936807 0  1.4 1.154139809936807 0  1.6 1.154139809936807 0  1.8 1.154139809936807 0  2 1.154139809936807 0  0 1.23120971490521 0  0.2 1.23120971490521 0  0.4 1.23120971490521 0  0.6000000000000001 1.23120971490521 0  0.8 1.23120971490521 0  1 1.23120971490521 0  1.2 1.23120971490521 0  1.4 1.23120971490521 0  1.6 1.23120971490521 0  1.8 1.23120971490521 0  2 1.23120971490521 0  0 1.308279619873614 0  0.2 1.308279619873614 0  0.4 1.308279619873614 0  0.6000000000000001 1.308279619873614 0  0.8 1.308279619873614 0  1 1.308279619873614 0  1.2 1.308279619873614 0  1.4 1.308279619873614 0  1.6 1.308279619873614 0  1.8 1.308279619873614 0  2 1.308279619873614 0  0 1.385349524842017 0  0.2 1.385349524842017 0  0.4 1.385349524842017 0  0.6000000000000001 1.385349524842017 0  0.8 1.385349524842017 0  1 1.385349524842017 0  1.2 1.385349524842017 0  1.4 1.385349524842017 0  1.6 1.385349524842017 0  1.8 1.385349524842017 0  2 1.385349524842017 0  0 1.46241942981042 0  0.2 1.46241942981042 0  0.4 1.46241942981042 0  0.6000000000000001 1.46241942981042 0  0.8 1.46241942981042 0  1 1.46241942981042 0  1.2 1.46241942981042 0  1.4 1.46241942981042 0  1.6 1.46241942981042 0  1.8 1.46241942981042 0  2 1.46241942981042 0  0 1.539489334778824 0  0.2 1.539489334778824 0  0.4 1.539489334778824 0  0.6000000000000001 1.539489334778824 0  0.8 1.539489334778824 0  1 1.539489334778824 0  1.2 1.539489334778824 0  1.4 1.539489334778824 0  1.6 1.539489334778824 0  1.8 1.539489334778824 0  2 1.539489334778824 0  0 1.616559239747227 0  0.2 1.616559239747227 0  0.4 1.616559239747227 0  0.6000000000000001 1.616559239747227 0  0.8 1.616559239747227 0  1 1.616559239747227 0  1.2 1.616559239747227 0  1.4 1.616559239747227 0  1.6 1.616559239747227 0  1.8 1.616559239747227 0  2 1.616559239747227 0  0 1.69362914471563 0  0.2 1.69362914471563 0  0.4 1.69362914471563 0  0.6000000000000001 1.69362914471563 0  0.8 1.69362914471563 0  1 1.69362914471563 0  1.2 1.69362914471563 0  1.4 1.69362914471563 0  1.6 1.69362914471563 0  1.8 1.69362914471563 0  2 1.69362914471563 0  0 1.770699049684034 0  0.2 1.770699049684034 0  0.4 1.770699049684034 0  0.6000000000000001 1.770699049684034 0  0.8 1.770699049684034 0  1 1.770699049684034 0  1.2 1.770699049684034 0  1.4 1.770699049684034 0  1.6 1.770699049684034 0  1.8 1.770699049684034 0  2 1.770699049684034 0  0 1.847768954652437 0  0.2 1.847768954652437 0  0.4 1.847768954652437 0  0.6000000000000001 1.847768954652437 0  0.8 1.847768954652437 0  1 1.847768954652437 0  1.2 1.847768954652437 0  1.4 1.847768954652437 0  1.6 1.847768954652437 0  1.8 1.847768954652437 0  2 1.847768954652437 0  0 1.89619167968323 0  0.2 1.89619167968323 0  0.4 1.89619167968323 0  0.6000000000000001 1.89619167968323 0  0.8 1.89619167968323 0  1 1.89619167968323 0  1.2 1.89619167968323 0  1.4 1.89619167968323 0  1.6 1.89619167968323 0  1.8 1.89619167968323 0  2 1.89619167968323 0  0 1.929586662463088 0  0.2 1.929586662463088 0  0.4 1.929586662463088 0  0.6000000000000001 1.929586662463088 0  0.8 1.929586662463088 0  1 1.929586662463088 0  1.2 1.929586662463088 0  1.4 1.929586662463088 0  1.6 1.929586662463088 0  1.8 1.929586662463088 0  2 1.929586662463088 0  0 1.952617685069886 0  0.2 1.952617685069886 0  0.4 1.952617685069886 0  0.6000000000000001 1.952617685069886 0  0.8 1.952617685069886 0  1 1.952617685069886 0  1.2 1.952617685069886 0  1.4 1.952617685069886 0  1.6 1.952617685069886 0  1.8 1.952617685069886 0  2 1.952617685069886 0  0 1.968501148936643 0  0.2 1.968501148936643 0  0.4 1.968501148936643 0  0.6000000000000001 1.968501148936643 0  0.8 1.968501148936643 0  1 1.968501148936643 0  1.2 1.968501148936643 0  1.4 1.968501148936643 0  1.6 1.968501148936643 0  1.8 1.968501148936643 0  2 1.968501148936643 0  0 1.9794552619482 0  0.2 1.9794552619482 0  0.4 1.9794552619482 0  0.6000000000000001 1.9794552619482 0  0.8 1.9794552619482 0  1 1.9794552619482 0  1.2 1.9794552619482 0  1.4 1.9794552619482 0  1.6 1.9794552619482 0  1.8 1.9794552619482 0  2 1.9794552619482 0  0 1.987009822645825 0  0.2 1.987009822645825 0  0.4 1.987009822645825 0  0.6000000000000001 1.987009822645825 0  0.8 1.987009822645825 0  1 1.987009822645825 0  1.2 1.987009822645825 0  1.4 1.987009822645825 0  1.6 1.987009822645825 0  1.8 1.987009822645825 0  2 1.987009822645825 0  0 1.992219864506257 0  0.2 1.992219864506257 0  0.4 1.992219864506257 0  0.6000000000000001 1.992219864506257 0  0.8 1.992219864506257 0  1 1.992219864506257 0  1.2 1.992219864506257 0  1.4 1.992219864506257 0  1.6 1.992219864506257 0  1.8 1.992219864506257 0  2 1.992219864506257 0  0 1.995812996823795 0  0.2 1.995812996823795 0  0.4 1.995812996823795 0  0.6000000000000001 1.995812996823795 0  0.8 1.995812996823795 0  1 1.995812996823795 0  1.2 1.995812996823795 0  1.4 1.995812996823795 0  1.6 1.995812996823795 0  1.8 1.995812996823795 0  2 1.995812996823795 0  0 1.998291019111753 0  0.2 1.998291019111753 0  0.4 1.998291019111753 0  0.6000000000000001 1.998291019111753 0  0.8 1.998291019111753 0  1 1.998291019111753 0  1.2 1.998291019111753 0  1.4 1.998291019111753 0  1.6 1.998291019111753 0  1.8 1.998291019111753 0  2 1.998291019111753 0  0 2 0  0.2 2 0  0.4 2 0  0.6000000000000001 2 0  0.8 2 0  1 2 0  1.2 2 0  1.4 2 0  1.6 2 0  1.8 2 0  2 2 0  </DataArray>
</Points>
<Cells>
<DataArray  type="UInt32"  Name="connectivity"  format="ascii">0 1 12  0 11 12  1 2 13  1 12 13  2 3 14  2 13 14  3 4 15  3 14 15  4 5 16  4 15 16  5 6 17  5 16 17  6 7 18  6 17 18  7 8 19  7 18 19  8 9 20  8 19 20  9 10 21  9 20 21  11 12 23  11 22 23  12 13 24  12 23 24  13 14 25  13 24 25  14 15 26  14 25 26  15 16 27  15 26 27  16 17 28  16 27 28  17 18 29  17 28 29  18 19 30  18 29 30  19 20 31  19 30 31  20 21 32  20 31 32  22 23 34  22 33 34  23 24 35  23 34 35  24 25 36  24 35 36  25 26 37  25 36 37  26 27 38  26 37 38  27 28 39  27 38 39  28 29 40  28 39 40  29 30 41  29 40 41  30 31 42  30 41 42  31 32 43  31 42 43  33 34 45  33 44 45  34 35 46  34 45 46  35 36 47  35 46 47  36 37 48  36 47 48  37 38 49  37 48 49  38 39 50  38 49 50  39 40 51  39 50 51  40 41 52  40 51 52  41 42 53  41 52 53  42 43 54  42 53 54  44 45 56  44 55 56  45 46 57  45 56 57  46 47 58  46 57 58  47 48 59  47 58 59  48 49 60  48 59 60  49 50 61  49 60 61  50 51 62  50 61 62  51 52 63  51 62 63  52 53 64  52 63 64  53 54 65  53 64 65  55 56 67  55 66 67  56 57 68  56 67 68  57 58 69  57 68 69  58 59 70  58 69 70  59 60 71  59 70 71  60 61 72  60 71 72  61 62 73  61 72 73  62 63 74  62 73 74  63 64 75  63 74 75  64 65 76  64 75 76  66 67 78  66 77 78  67 68 79  67 78 79  68 69 80  68 79 80  69 70 81  69 80 81  70 71 82  70 81 82  71 72 83  71 82 83  72 73 84  72 83 84  73 74 85  73 84 85  74 75 86  74 85 86  75 76 87  75 86 87  77 78 89  77 88 89  78 79 90  78 89 90  79 80 91  79 90 91  80 81 92  80 91 92  81 82 93  81 92 93  82 83 94  82 93 94  83 84 95  83 94 95  84 85 96  84 95 96  85 86 97  85 96 97  86 87 98  86 97 98  88 89 100  88 99 100  89 90 101  89 100 101  90 91 102  90 101 102  91 92 103  91 102 103  92 93 104  92 103 104  93 94 105  93 104 105  94 95 106  94 105 106  95 96 107  95 106 107  96 97 108  96 107 108  97 98 109  97 108 109  99 100 111  99 110 111  100 101 112  100 111 112  101 102 113  101 112 113  102 103 114  102 113 114  103 104 115  103 114 115  104 105 116  104 115 116  105 106 117  105 116 117  106 107 118  106 117 118  107 108 119  107 118 119  108 109 120  108 119 120  110 111 122  110 121 122  111 112 123  111 122 123  112 113 124  112 123 124  113 114 125  113 124 125  114 115 126  114 125 126  115 116 127  115 126 127  116 117 128  116 127 128  117 118 129  117 128 129  118 119 130  118 129 130  119 120 131  119 130 131  121 122 133  121 132 133  122 123 134  122 133 134  123 124 135  123 134 135  124 125 136  124 135 136  125 126 137  125 136 137  126 127 138  126 137 138  127 128 139  127 138 139  128 129 140  128 139 140  129 130 141  129 140 141  130 131 142  130 141 142  132 133 144  132 143 144  133 134 145  133 144 145  134 135 146  134 145 146  135 136 147  135 146 147  136 137 148  136 147 148  137 138 149  137 148 149  138 139 150  138 149 150  139 140 151  139 150 151  140 141 152  140 151 152  141 142 153  141 152 153  143 144 155  143 154 155  144 145 156  144 155 156  145 146 157  145 156 157  146 147 158  146 157 158  147 148 159  147 158 159  148 149 160  148 159 160  149 150 161  149 160 161  150 151 162  150 161 162  151 152 163  151 162 163  152 153 164  152 163 164  154 155 166  154 165 166  155 156 167  155 166 167  156 157 168  156 167 168  157 158 169  157 168 169  158 159 170  158 169 170  159 160 171  159 170 171  160 161 172  160 171 172  161 162 173  161 172 173  162 163 174  162 173 174  163 164 175  163 174 175  165 166 177  165 176 177  166 167 178  166 177 178  167 168 179  167 178 179  168 169 180  168 179 180  169 170 181  169 180 181  170 171 182  170 181 182  171 172 183  171 182 183  172 173 184  172 183 184  173 174 185  173 184 185  174 175 186  174 185 186  176 177 188  176 187 188  177 178 189  177 188 189  178 179 190  178 189 190  179 180 191  179 190 191  180 181 192  180 191 192  181 182 193  181 192 193  182 183 194  182 193 194  183 184 195  183 194 195  184 185 196  184 195 196  185 186 197  185 196 197  187 188 199  187 198 199  188 189 200  188 199 200  189 190 201  189 200 201  190 191 202  190 201 202  191 192 203  191 202 203  192 193 204  192 203 204  193 194 205  193 204 205  194 195 206  194 205 206  195 196 207  195 206 207  196 197 208  196 207 208  198 199 210  198 209 210  199 200 211  199 210 211  200 201 212  200 211 212  201 202 213  201 212 213  202 203 214  202 213 214  203 204 215  203 214 215  204 205 216  204 215 216  205 206 217  205 216 217  206 207 218  206 217 218  207 208 219  207 218 219  209 210 221  209 220 221  210 211 222  210 221 222  211 212 223  211 222 223  212 213 224  212 223 224  213 214 225  213 224 225  214 215 226  214 225 226  215 216 227  215 226 227  216 217 228  216 227 228  217 218 229  217 228 229  218 219 230  218 229 230  220 221 232  220 231 232  221 222 233  221 232 233  222 223 234  222 233 234  223 224 235  223 234 235  224 225 236  224 235 236  225 226 237  225 236 237  226 227 238  226 237 238  227 228 239  227 238 239  228 229 240  228 239 240  229 230 241  229 240 241  231 232 243  231 242 243  232 233 244  232 243 244  233 234 245  233 244 245  234 235 246  234 245 246  235 236 247  235 246 247  236 237 248  236 247 248  237 238 249  237 248 249  238 239 250  238 249 250  239 240 251  239 250 251  240 241 252  240 251 252  242 243 254  242 253 254  243 244 255  243 254 255  244 245 256  244 255 256  245 246 257  245 256 257  246 247 258  246 257 258  247 248 259  247 258 259  248 249 260  248 259 260  249 250 261  249 260 261  250 251 262  250 261 262  251 252 263  251 262 263  253 254 265  253 264 265  254 255 266  254 265 266  255 256 267  255 266 267  256 257 268  256 267 268  257 258 269  257 268 269  258 259 270  258 269 270  259 260 271  259 270 271  260 261 272  260 271 272  261 262 273  261 272 273  262 263 274  262 273 274  264 265 276  264 275 276  265 266 277  265 276 277  266 267 278  266 277 278  267 268 279  267 278 279  268 269 280  268 279 280  269 270 281  269 280 281  270 271 282  270 281 282  271 272 283  271 282 283  272 273 284  272 283 284  273 274 285  273 284 285  275 276 287  275 286 287  276 277 288  276 287 288  277 278 289  277 288 289  278 279 290  278 289 290  279 280 291  279 290 291  280 281 292  280 291 292  281 282 293  281 292 293  282 283 294  282 293 294  283 284 295  283 294 295  284 285 296  284 295 296  286 287 298  286 297 298  287 288 299  287 298 299  288 289 300  288 299 300  289 290 301  289 300 301  290 291 302  290 301 302  291 292 303  291 302 303  292 293 304  292 303 304  293 294 305  293 304 305  294 295 306  294 305 306  295 296 307  295 306 307  297 298 309  297 308 309  298 299 310  298 309 310  299 300 311  299 310 311  300 301 312  300 311 312  301 302 313  301 312 313  302 303 314  302 313 314  303 304 315  303 314 315  304 305 316  304 315 316  305 306 317  305 316 317  306 307 318  306 317 318  308 309 320  308 319 320  309 310 321  309 320 321  310 311 322  310 321 322  311 312 323  311 322 323  312 313 324  312 323 324  313 314 325  313 324 325  314 315 326  314 325 326  315 316 327  315 326 327  316 317 328  316 327 328  317 318 329  317 328 329  319 320 331  319 330 331  320 321 332  320 331 332  321 322 333  321 332 333  322 323 334  322 333 334  323 324 335  323 334 335  324 325 336  324 335 336  325 326 337  325 336 337  326 327 338  326 337 338  327 328 339  327 338 339  328 329 340  328 339 340  330 331 342  330 341 342  331 332 343  331 342 343  332 333 344  332 343 344  333 334 345  333 344 345  334 335 346  334 345 346  335 336 347  335 346 347  336 337 348  336 347 348  337 338 349  337 348 349  338 339 350  338 349 350  339 340 351  339 350 351  341 342 353  341 352 353  342 343 354  342 353 354  343 344 355  343 354 355  344 345 356  344 355 356  345 346 357  345 356 357  346 347 358  346 357 358  347 348 359  347 358 359  348 349 360  348 359 360  349 350 361  349 360 361  350 351 362  350 361 362  352 353 364  352 363 364  353 354 365  353 364 365  354 355 366  354 365 366  355 356 367  355 366 367  356 357 368  356 367 368  357 358 369  357 368 369  358 359 370  358 369 370  359 360 371  359 370 371  360 361 372  360 371 372  361 362 373  361 372 373  363 364 375  363 374 375  364 365 376  364 375 376  365 366 377  365 376 377  366 367 378  366 377 378  367 368 379  367 378 379  368 369 380  368 379 380  369 370 381  369 380 381  370 371 382  370 381 382  371 372 383  371 382 383  372 373 384  372 383 384  374 375 386  374 385 386  375 376 387  375 386 387  376 377 388  376 387 388  377 378 389  377 388 389  378 379 390  378 389 390  379 380 391  379 390 391  380 381 392  380 391 392  381 382 393  381 392 393  382 383 394  382 393 394  383 384 395  383 394 395  385 386 397  385 396 397  386 387 398  386 397 398  387 388 399  387 398 399  388 389 400  388 399 400  389 390 401  389 400 401  390 391 402  390 401 402  391 392 403  391 402 403  392 393 404  392 403 404  393 394 405  393 404 405  394 395 406  394 405 406  396 397 408  396 407 408  397 398 409  397 408 409  398 399 410  398 409 410  399 400 411  399 410 411  400 401 412  400 411 412  401 402 413  401 412 413  402 403 414  402 413 414  403 404 415  403 414 415  404 405 416  404 415 416  405 406 417  405 416 417  407 408 419  407 418 419  408 409 420  408 419 420  409 410 421  409 420 421  410 411 422  410 421 422  411 412 423  411 422 423  412 413 424  412 423 424  413 414 425  413 424 425  414 415 426  414 425 426  415 416 427  415 426 427  416 417 428  416 427 428  418 419 430  418 429 430  419 420 431  419 430 431  420 421 432  420 431 432  421 422 433  421 432 433  422 423 434  422 433 434  423 424 435  423 434 435  424 425 436  424 435 436  425 426 437  425 436 437  426 427 438  426 437 438  427 428 439  427 438 439  429 430 441  429 440 441  430 431 442  430 441 442  431 432 443  431 442 443  432 433 444  432 443 444  433 434 445  433 444 445  434 435 446  434 445 446  435 436 447  435 446 447  436 437 448  436 447 448  437 438 449  437 448 449  438 439 450  438 449 450  440 441 452  440 451 452  441 442 453  441 452 453  442 443 454  442 453 454  443 444 455  443 454 455  444 445 456  444 455 456  445 446 457  445 456 457  446 447 458  446 457 458  447 448 459  447 458 459  448 449 460  448 459 460  449 450 461  449 460 461  451 452 463  451 462 463  452 453 464  452 463 464  453 454 465  453 464 465  454 455 466  454 465 466  455 456 467  455 466 467  456 457 468  456 467 468  457 458 469  457 468 469  458 459 470  458 469 470  459 460 471  459 470 471  460 461 472  460 471 472  </DataArray>
<DataArray  type="UInt32"  Name="offsets"  format="ascii">3 6 9 12 15 18 21 24 27 30 33 36 39 42 45 48 51 54 57 60 63 66 69 72 75 78 81 84 87 90 93 96 99 102 105 108 111 114 117 120 123 126 129 132 135 138 141 144 147 150 153 156 159 162 165 168 171 174 177 180 183 186 189 192 195 198 201 204 207 210 213 216 219 222 225 228 231 234 237 240 243 246 249 252 255 258 261 264 267 270 273 276 279 282 285 288 291 294 297 300 303 306 309 312 315 318 321 324 327 330 333 336 339 342 345 348 351 354 357 360 363 366 369 372 375 378 381 384 387 390 393 396 399 402 405 408 411 414 417 420 423 426 429 432 435 438 441 444 447 450 453 456 459 462 465 468 471 474 477 480 483 486 489 492 495 498 501 504 507 510 513 516 519 522 525 528 531 534 537 540 543 546 549 552 555 558 561 564 567 570 573 576 579 582 585 588 591 594 597 600 603 606 609 612 615 618 621 624 627 630 633 636 639 642 645 648 651 654 657 660 663 666 669 672 675 678 681 684 687 690 693 696 699 702 705 708 711 714 717 720 723 726 729 732 735 738 741 744 747 750 753 756 759 762 765 768 771 774 777 780 783 786 789 792 795 798 801 804 807 810 813 816 819 822 825 828 831 834 837 840 843 846 849 852 855 858 861 864 867 870 873 876 879 882 885 888 891 894 897 900 903 906 909 912 915 918 921 924 927 930 933 936 939 942 945 948 951 954 957 960 963 966 969 972 975 978 981 984 987 990 993 996 999 1002 1005 1008 1011 1014 1017 1020 1023 1026 1029 1032 1035 1038 1041 1044 1047 1050 1053 1056 1059 1062 1065 1068 1071 1074 1077 1080 1083 1086 1089 1092 1095 1098 1101 1104 1107 1110 1113 1116 1119 1122 1125 1128 1131 1134 1137 1140 1143 1146 1149 1152 1155 1158 1161 1164 1167 1170 1173 1176 1179 1182 1185 1188 1191 1194 1197 1200 1203 1206 1209 1212 1215 1218 1221 1224 1227 1230 1233 1236 1239 1242 1245 1248 1251 1254 1257 1260 1263 1266 1269 1272 1275 1278 1281 1284 1287 1290 1293 1296 1299 1302 1305 1308 1311 1314 1317 1320 1323 1326 1329 1332 1335 1338 1341 1344 1347 1350 1353 1356 1359 1362 1365 1368 1371 1374 1377 1380 1383 1386 1389 1392 1395 1398 1401 1404 1407 1410 1413 1416 1419 1422 1425 1428 1431 1434 1437 1440 1443 1446 1449 1452 1455 1458 1461 1464 1467 1470 1473 1476 1479 1482 1485 1488 1491 1494 1497 1500 1503 1506 1509 1512 1515 1518 1521 1524 1527 1530 1533 1536 1539 1542 1545 1548 1551 1554 1557 1560 1563 1566 1569 1572 1575 1578 1581 1584 1587 1590 1593 1596 1599 1602 1605 1608 1611 1614 1617 1620 1623 1626 1629 1632 1635 1638 1641 1644 1647 1650 1653 1656 1659 1662 1665 1668 1671 1674 1677 1680 1683 1686 1689 1692 1695 1698 1701 1704 1707 1710 1713 1716 1719 1722 1725 1728 1731 1734 1737 1740 1743 1746 1749 1752 1755 1758 1761 1764 1767 1770 1773 1776 1779 1782 1785 1788 1791 1794 1797 1800 1803 1806 1809 1812 1815 1818 1821 1824 1827 1830 1833 1836 1839 1842 1845 1848 1851 1854 1857 1860 1863 1866 1869 1872 1875 1878 1881 1884 1887 1890 1893 1896 1899 1902 1905 1908 1911 1914 1917 1920 1923 1926 1929 1932 1935 1938 1941 1944 1947 1950 1953 1956 1959 1962 1965 1968 1971 1974 1977 1980 1983 1986 1989 1992 1995 1998 2001 2004 2007 2010 2013 2016 2019 2022 2025 2028 2031 2034 2037 2040 2043 2046 2049 2052 2055 2058 2061 2064 2067 2070 2073 2076 2079 2082 2085 2088 2091 2094 2097 2100 2103 2106 2109 2112 2115 2118 2121 2124 2127 2130 2133 2136 2139 2142 2145 2148 2151 2154 2157 2160 2163 2166 2169 2172 2175 2178 2181 2184 2187 2190 2193 2196 2199 2202 2205 2208 2211 2214 2217 2220 2223 2226 2229 2232 2235 2238 2241 2244 2247 2250 2253 2256 2259 2262 2265 2268 2271 2274 2277 2280 2283 2286 2289 2292 2295 2298 2301 2304 2307 2310 2313 2316 2319 2322 2325 2328 2331 2334 2337 2340 2343 2346 2349 2352 2355 2358 2361 2364 2367 2370 2373 2376 2379 2382 2385 2388 2391 2394 2397 2400 2403 2406 2409 2412 2415 2418 2421 2424 2427 2430 2433 2436 2439 2442 2445 2448 2451 2454 2457 2460 2463 2466 2469 2472 2475 2478 2481 2484 2487 2490 2493 2496 2499 2502 2505 2508 2511 2514 2517 2520 </DataArray>
<DataArray  type="UInt8"  Name="types"  format="ascii">5 5 5 5 5 5 5 5 5 5 5 5 5 5 5 5 5 5 5 5 5 5 5 5 5 5 5 5 5 5 5 5 5 5 5 5 5 5 5 5 5 5 5 5 5 5 5 5 5 5 5 5 5 5 5 5 5 5 5 5 5 5 5 5 5 5 5 5 5 5 5 5 5 5 5 5 5 5 5 5 5 5 5 5 5 5 5 5 5 5 5 5 5 5 5 5 5 5 5 5 5 5 5 5 5 5 5 5 5 5 5 5 5 5 5 5 5 5 5 5 5 5 5 5 5 5 5 5 5 5 5 5 5 5 5 5 5 5 5 5 5 5 5 5 5 5 5 5 5 5 5 5 5 5 5 5 5 5 5 5 5 5 5 5 5 5 5 5 5 5 5 5 5 5 5 5 5 5 5 5 5 5 5 5 5 5 5 5 5 5 5 5 5 5 5 5 5 5 5 5 5 5 5 5 5 5 5 5 5 5 5 5 5 5 5 5 5 5 5 5 5 5 5 5 5 5 5 5 5 5 5 5 5 5 5 5 5 5 5 5 5 5 5 5 5 5 5 5 5 5 5 5 5 5 5 5 5 5 5 5 5 5 5 5 5 5 5 5 5 5 5 5 5 5 5 5 5 5 5 5 5 5 5 5 5 5 5 5 5 5 5 5 5 5 5 5 5 5 5 5 5 5 5 5 5 5 5 5 5 5 5 5 5 5 5 5 5 5 5 5 5 5 5 5 5 5 5 5 5 5 5 5 5 5 5 5 5 5 5 5 5 5 5 5 5 5 5 5 5 5 5 5 5 5 5 5 5 5 5 5 5 5 5 5 5 5 5 5 5 5 5 5 5 5 5 5 5 5 5 5 5 5 5 5 5 5 5 5 5 5 5 5 5 5 5 5 5 5 5 5 5 5 5 5 5 5 5 5 5 5 5 5 5 5 5 5 5 5 5 5 5 5 5 5 5 5 5 5 5 5 5 5 5 5 5 5 5 5 5 5 5 5 5 5 5 5 5 5 5 5 5 5 5 5 5 5 5 5 5 5 5 5 5 5 5 5 5 5 5 5 5 5 5 5 5 5 5 5 5 5 5 5 5 5 5 5 5 5 5 5 5 5 5 5 5 5 5 5 5 5 5 5 5 5 5 5 5 5 5 5 5 5 5 5 5 5 5 5 5 5 5 5 5 5 5 5 5 5 5 5 5 5 5 5 5 5 5 5 5 5 5 5 5 5 5 5 5 5 5 5 5 5 5 5 5 5 5 5 5 5 5 5 5 5 5 5 5 5 5 5 5 5 5 5 5 5 5 5 5 5 5 5 5 5 5 5 5 5 5 5 5 5 5 5 5 5 5 5 5 5 5 5 5 5 5 5 5 5 5 5 5 5 5 5 5 5 5 5 5 5 5 5 5 5 5 5 5 5 5 5 5 5 5 5 5 5 5 5 5 5 5 5 5 5 5 5 5 5 5 5 5 5 5 5 5 5 5 5 5 5 5 5 5 5 5 5 5 5 5 5 5 5 5 5 5 5 5 5 5 5 5 5 5 5 5 5 5 5 5 5 5 5 5 5 5 5 5 5 5 5 5 5 5 5 5 5 5 5 5 5 5 5 5 5 5 5 5 5 5 5 5 5 5 5 5 5 5 5 5 5 5 5 5 5 5 5 5 5 5 5 5 5 5 5 5 5 5 5 5 5 5 5 5 5 5 5 5 5 5 5 5 5 5 5 5 5 5 5 5 5 5 5 5 5 5 5 5 5 5 5 5 5 5 5 5 5 5 5 5 5 5 5 5 5 5 5 5 5 5 5 5 5 5 5 5 5 5 5 5 5 5 5 5 5 5 5 5 5 5 5 5 5 5 5 5 5 5 5 5 5 5 5 5 5 5 5 5 5 5 5 </DataArray>
</Cells>
<PointData  Vectors="f_167"> 
<DataArray  type="Float64"  Name="f_167"  NumberOfComponents="3" format="ascii">0.0000000000000000e+00 0.0000000000000000e+00 0.0000000000000000e+00  0.0000000000000000e+00 0.0000000000000000e+00 0.0000000000000000e+00  0.0000000000000000e+00 0.0000000000000000e+00 0.0000000000000000e+00  0.0000000000000000e+00 0.0000000000000000e+00 0.0000000000000000e+00  0.0000000000000000e+00 0.0000000000000000e+00 0.0000000000000000e+00  0.0000000000000000e+00 0.0000000000000000e+00 0.0000000000000000e+00  0.0000000000000000e+00 0.0000000000000000e+00 0.0000000000000000e+00  0.0000000000000000e+00 0.0000000000000000e+00 0.0000000000000000e+00  0.0000000000000000e+00 0.0000000000000000e+00 0.0000000000000000e+00  0.0000000000000000e+00 0.0000000000000000e+00 0.0000000000000000e+00  0.0000000000000000e+00 0.0000000000000000e+00 0.0000000000000000e+00  9.3651098114758713e-01 1.7575018841729727e-15 0.0000000000000000e+00  9.3651098114748355e-01 -7.0234830485228664e-15 0.0000000000000000e+00  9.3651098114753484e-01 -2.1112337088006757e-15 0.0000000000000000e+00  9.3651098114754527e-01 -6.8676934676128218e-16 0.0000000000000000e+00  9.3651098114760989e-01 -1.2324342346238344e-16 0.0000000000000000e+00  9.3651098114762943e-01 -4.9102635199299020e-16 0.0000000000000000e+00  9.3651098114760911e-01 -2.0683297360557893e-16 0.0000000000000000e+00  9.3651098114764897e-01 -2.3932163065734578e-16 0.0000000000000000e+00  9.3651098114767450e-01 -2.7016928349434225e-16 0.0000000000000000e+00  9.3651098114761433e-01 -1.5226751378192286e-15 0.0000000000000000e+00  9.3651098114758713e-01 1.7575018841729727e-15 0.0000000000000000e+00  2.2933756845505759e+00 1.3225334552376347e-15 0.0000000000000000e+00  2.2933756845495727e+00 -1.3930904200743964e-14 0.0000000000000000e+00  2.2933756845503792e+00 -7.5135969154742957e-15 0.0000000000000000e+00  2.2933756845503916e+00 -5.9145521315715508e-16 0.0000000000000000e+00  2.2933756845503908e+00 -2.9098181784681211e-16 0.0000000000000000e+00  2.2933756845503890e+00 -1.8130079496786934e-16 0.0000000000000000e+00  2.2933756845504769e+00 -1.1861666217686428e-15 0.0000000000000000e+00  2.2933756845505213e+00 -5.5461069536369478e-16 0.0000000000000000e+00  2.2933756845504680e+00 -7.2811145535405975e-16 0.0000000000000000e+00  2.2933756845505444e+00 -1.6504606731005563e-15 0.0000000000000000e+00  2.2933756845505759e+00 1.3225334552376347e-15 0.0000000000000000e+00  4.2364594489330711e+00 -3.7507237649383439e-15 0.0000000000000000e+00  4.2364594489316021e+00 -1.8341869499795911e-14 0.0000000000000000e+00  4.2364594489328260e+00 -1.9674211698810220e-14 0.0000000000000000e+00  4.2364594489326555e+00 -6.6906708947641514e-16 0.0000000000000000e+00  4.2364594489327621e+00 -1.3281453634663646e-15 0.0000000000000000e+00  4.2364594489328695e+00 -8.5257877801749193e-16 0.0000000000000000e+00  4.2364594489329361e+00 -2.3433934532745653e-15 0.0000000000000000e+00  4.2364594489329006e+00 -4.5505693237446719e-16 0.0000000000000000e+00  4.2364594489330258e+00 -1.4077424426299781e-15 0.0000000000000000e+00  4.2364594489331129e+00 -2.2253521833596219e-15 0.0000000000000000e+00  4.2364594489330711e+00 -3.7507237649383439e-15 0.0000000000000000e+00  6.8496447739674107e+00 -1.0084963166041571e-14 0.0000000000000000e+00  6.8496447739656565e+00 -2.0567222315288512e-14 0.0000000000000000e+00  6.8496447739666486e+00 -4.1118803949429226e-14 0.0000000000000000e+00  6.8496447739666104e+00 2.7299122974519354e-16 0.0000000000000000e+00  6.8496447739668005e+00 -4.0454663904316675e-15 0.0000000000000000e+00  6.8496447739668866e+00 -1.2990461064059256e-15 0.0000000000000000e+00  6.8496447739669177e+00 -4.2053513522384166e-15 0.0000000000000000e+00  6.8496447739670554e+00 -2.2372847603471283e-15 0.0000000000000000e+00  6.8496447739671726e+00 -2.1439362403077691e-15 0.0000000000000000e+00  6.8496447739671575e+00 -3.2087794817471113e-15 0.0000000000000000e+00  6.8496447739674107e+00 -1.0084963166041571e-14 0.0000000000000000e+00  9.6231468983545021e+00 -1.4216195328201158e-14 0.0000000000000000e+00  9.6231468983526707e+00 -2.0886541795080737e-14 0.0000000000000000e+00  9.6231468983534096e+00 -6.0731439439931984e-14 0.0000000000000000e+00  9.6231468983535464e+00 -6.7888716741936239e-15 0.0000000000000000e+00  9.6231468983536388e+00 -7.0092088623448910e-15 0.0000000000000000e+00  9.6231468983537312e+00 -2.8933449717705073e-15 0.0000000000000000e+00  9.6231468983538964e+00 -8.3085715313984655e-15 0.0000000000000000e+00  9.6231468983540385e+00 -5.0390211307099482e-15 0.0000000000000000e+00  9.6231468983540420e+00 -3.9540382752434371e-15 0.0000000000000000e+00  9.6231468983542587e+00 -5.9703901776485835e-15 0.0000000000000000e+00  9.6231468983545021e+00 -1.4216195328201158e-14 0.0000000000000000e+00  1.1672772625680874e+01 -1.6690731786278588e-14 0.0000000000000000e+00  1.1672772625679437e+01 -1.9879690001423492e-14 0.0000000000000000e+00  1.1672772625679821e+01 -6.7425772189781431e-14 0.0000000000000000e+00  1.1672772625679913e+01 -2.2632846511953470e-14 0.0000000000000000e+00  1.1672772625680064e+01 -9.2989163424898911e-15 0.0000000000000000e+00  1.1672772625680283e+01 -9.2501727960475186e-15 0.0000000000000000e+00  1.1672772625680420e+01 -1.2462572815471962e-14 0.0000000000000000e+00  1.1672772625680439e+01 -8.9185488636840553e-15 0.0000000000000000e+00  1.1672772625680638e+01 -8.0577950832321653e-15 0.0000000000000000e+00  1.1672772625680834e+01 -9.4212194796436973e-15 0.0000000000000000e+00  1.1672772625680874e+01 -1.6690731786278588e-14 0.0000000000000000e+00  1.3058744746190753e+01 -1.8946028959178480e-14 0.0000000000000000e+00  1.3058744746189415e+01 -2.1451727047346764e-14 0.0000000000000000e+00  1.3058744746189449e+01 -6.2555065238008258e-14 0.0000000000000000e+00  1.3058744746189646e+01 -3.8301723735730875e-14 0.0000000000000000e+00  1.3058744746189861e+01 -1.6608988978320291e-14 0.0000000000000000e+00  1.3058744746189960e+01 -1.6443774607643566e-14 0.0000000000000000e+00  1.3058744746190055e+01 -1.6786450089640807e-14 0.0000000000000000e+00  1.3058744746190261e+01 -1.5983621414805288e-14 0.0000000000000000e+00  1.3058744746190435e+01 -1.2853945412413403e-14 0.0000000000000000e+00  1.3058744746190417e+01 -1.3945872690074596e-14 0.0000000000000000e+00  1.3058744746190753e+01 -1.8946028959178480e-14 0.0000000000000000e+00  1.4159781997358595e+01 -2.2551410265910970e-14 0.0000000000000000e+00  1.4159781997357133e+01 -2.5538314378352516e-14 0.0000000000000000e+00  1.4159781997357385e+01 -5.1718705552625525e-14 0.0000000000000000e+00  1.4159781997357479e+01 -5.1909682465211196e-14 0.0000000000000000e+00  1.4159781997357522e+01 -2.6578848962405487e-14 0.0000000000000000e+00  1.4159781997357669e+01 -2.2502202538405027e-14 0.0000000000000000e+00  1.4159781997357902e+01 -2.5877237043129898e-14 0.0000000000000000e+00  1.4159781997357996e+01 -2.3651635777492973e-14 0.0000000000000000e+00  1.4159781997358042e+01 -1.9309988007250491e-14 0.0000000000000000e+00  1.4159781997358284e+01 -2.1148741067827652e-14 0.0000000000000000e+00  1.4159781997358595e+01 -2.2551410265910970e-14 0.0000000000000000e+00  1.5169960059184909e+01 -3.0638477722355531e-14 0.0000000000000000e+00  1.5169960059183875e+01 -3.0306207545077188e-14 0.0000000000000000e+00  1.5169960059184030e+01 -4.3516850712504262e-14 0.0000000000000000e+00  1.5169960059183934e+01 -5.8026231012581293e-14 0.0000000000000000e+00  1.5169960059184143e+01 -3.5889334881409138e-14 0.0000000000000000e+00  1.5169960059184298e+01 -3.3255163796970927e-14 0.0000000000000000e+00  1.5169960059184348e+01 -3.5530091214194760e-14 0.0000000000000000e+00  1.5169960059184422e+01 -3.0828597341062782e-14 0.0000000000000000e+00  1.5169960059184659e+01 -2.9898811571547280e-14 0.0000000000000000e+00  1.5169960059184870e+01 -3.0336696099290030e-14 0.0000000000000000e+00  1.5169960059184909e+01 -3.0638477722355531e-14 0.0000000000000000e+00  1.6168418050049393e+01 -4.0139513070719486e-14 0.0000000000000000e+00  1.6168418050048285e+01 -4.2296311339781945e-14 0.0000000000000000e+00  1.6168418050048189e+01 -4.2334705086384567e-14 0.0000000000000000e+00  1.6168418050048466e+01 -6.0128544085777695e-14 0.0000000000000000e+00  1.6168418050048572e+01 -4.6829806018709481e-14 0.0000000000000000e+00  1.6168418050048530e+01 -4.3074362829868347e-14 0.0000000000000000e+00  1.6168418050048697e+01 -4.4206828154490121e-14 0.0000000000000000e+00  1.6168418050048910e+01 -4.3896296433132151e-14 0.0000000000000000e+00  1.6168418050048988e+01 -4.2197565143022075e-14 0.0000000000000000e+00  1.6168418050048970e+01 -4.1434540264275594e-14 0.0000000000000000e+00  1.6168418050049393e+01 -4.0139513070719486e-14 0.0000000000000000e+00  1.7271743090562151e+01 -5.0976705809907046e-14 0.0000000000000000e+00  1.7271743090560950e+01 -5.0812347553377298e-14 0.0000000000000000e+00  1.7271743090561262e+01 -4.3292658628486391e-14 0.0000000000000000e+00  1.7271743090561337e+01 -6.3621188409744665e-14 0.0000000000000000e+00  1.7271743090561213e+01 -5.4264552551922387e-14 0.0000000000000000e+00  1.7271743090561468e+01 -5.2235865966664839e-14 0.0000000000000000e+00  1.7271743090561660e+01 -5.3215139858743452e-14 0.0000000000000000e+00  1.7271743090561632e+01 -5.3998645811770639e-14 0.0000000000000000e+00  1.7271743090561706e+01 -4.9938395518312934e-14 0.0000000000000000e+00  1.7271743090561973e+01 -5.4599561114648329e-14 0.0000000000000000e+00  1.7271743090562151e+01 -5.0976705809907046e-14 0.0000000000000000e+00  1.8074738514768370e+01 -5.1689893118240896e-14 0.0000000000000000e+00  1.8074738514767635e+01 -5.6936216473306327e-14 0.0000000000000000e+00  1.8074738514767667e+01 -4.0110811227409330e-14 0.0000000000000000e+00  1.8074738514767517e+01 -6.0000836089566596e-14 0.0000000000000000e+00  1.8074738514767844e+01 -5.7629779133346433e-14 0.0000000000000000e+00  1.8074738514767976e+01 -5.7946576197003287e-14 0.0000000000000000e+00  1.8074738514767869e+01 -5.5947910409549819e-14 0.0000000000000000e+00  1.8074738514768050e+01 -5.6643343899008023e-14 0.0000000000000000e+00  1.8074738514768274e+01 -5.4415807483203786e-14 0.0000000000000000e+00  1.8074738514768303e+01 -5.7257986127887211e-14 0.0000000000000000e+00  1.8074738514768370e+01 -5.1689893118240896e-14 0.0000000000000000e+00  1.8704418571371832e+01 -5.3810594935443006e-14 0.0000000000000000e+00  1.8704418571370905e+01 -5.8521805568669944e-14 0.0000000000000000e+00  1.8704418571370731e+01 -3.6351541156277692e-14 0.0000000000000000e+00  1.8704418571371082e+01 -6.0166915857387678e-14 0.0000000000000000e+00  1.8704418571371132e+01 -5.6349531064030082e-14 0.0000000000000000e+00  1.8704418571371015e+01 -5.8982224727789574e-14 0.0000000000000000e+00  1.8704418571371310e+01 -5.9007841675258671e-14 0.0000000000000000e+00  1.8704418571371484e+01 -5.6594500331765916e-14 0.0000000000000000e+00  1.8704418571371399e+01 -5.6921920139672613e-14 0.0000000000000000e+00  1.8704418571371495e+01 -5.7210869661540930e-14 0.0000000000000000e+00  1.8704418571371832e+01 -5.3810594935443006e-14 0.0000000000000000e+00  1.9215480149071663e+01 -5.1489918761969166e-14 0.0000000000000000e+00  1.9215480149070654e+01 -5.5843208254325167e-14 0.0000000000000000e+00  1.9215480149070910e+01 -3.6887026139977549e-14 0.0000000000000000e+00  1.9215480149070970e+01 -5.3968271903960922e-14 0.0000000000000000e+00  1.9215480149070803e+01 -5.3700237553787817e-14 0.0000000000000000e+00  1.9215480149071180e+01 -5.9528370190188334e-14 0.0000000000000000e+00  1.9215480149071276e+01 -5.7558767665158148e-14 0.0000000000000000e+00  1.9215480149071183e+01 -5.4424370587648564e-14 0.0000000000000000e+00  1.9215480149071386e+01 -5.8002087369555991e-14 0.0000000000000000e+00  1.9215480149071627e+01 -5.6403035037493089e-14 0.0000000000000000e+00  1.9215480149071663e+01 -5.1489918761969166e-14 0.0000000000000000e+00  1.9635873813550877e+01 -4.8976660059684476e-14 0.0000000000000000e+00  1.9635873813550187e+01 -5.1472075491134171e-14 0.0000000000000000e+00  1.9635873813550198e+01 -3.3561774222336603e-14 0.0000000000000000e+00  1.9635873813550013e+01 -4.6647509771442120e-14 0.0000000000000000e+00  1.9635873813550401e+01 -5.2331614925123408e-14 0.0000000000000000e+00  1.9635873813550493e+01 -5.3480242457035631e-14 0.0000000000000000e+00  1.9635873813550358e+01 -5.3847126931216850e-14 0.0000000000000000e+00  1.9635873813550621e+01 -5.4189848041886087e-14 0.0000000000000000e+00  1.9635873813550759e+01 -5.3389745087947908e-14 0.0000000000000000e+00  1.9635873813550720e+01 -5.1131875252233171e-14 0.0000000000000000e+00  1.9635873813550877e+01 -4.8976660059684476e-14 0.0000000000000000e+00  1.9981109772440881e+01 -4.2421115509136387e-14 0.0000000000000000e+00  1.9981109772439975e+01 -4.6885002364200186e-14 0.0000000000000000e+00  1.9981109772439812e+01 -3.1612771446705946e-14 0.0000000000000000e+00  1.9981109772440146e+01 -4.1343773921576345e-14 0.0000000000000000e+00  1.9981109772440238e+01 -4.6241401320429904e-14 0.0000000000000000e+00  1.9981109772440110e+01 -4.7535238500527995e-14 0.0000000000000000e+00  1.9981109772440387e+01 -5.0604998784032063e-14 0.0000000000000000e+00  1.9981109772440508e+01 -4.7501519352613281e-14 0.0000000000000000e+00  1.9981109772440437e+01 -4.7145991515631379e-14 0.0000000000000000e+00  1.9981109772440615e+01 -4.7363834996420632e-14 0.0000000000000000e+00  1.9981109772440881e+01 -4.2421115509136387e-14 0.0000000000000000e+00  2.0259876646703031e+01 -3.7248410245915291e-14 0.0000000000000000e+00  2.0259876646702150e+01 -4.2674706386328019e-14 0.0000000000000000e+00  2.0259876646702310e+01 -2.7680603804324536e-14 0.0000000000000000e+00  2.0259876646702359e+01 -3.6103792015774363e-14 0.0000000000000000e+00  2.0259876646702249e+01 -3.9377677306093493e-14 0.0000000000000000e+00  2.0259876646702569e+01 -4.2850791003513629e-14 0.0000000000000000e+00  2.0259876646702686e+01 -4.2766590006514330e-14 0.0000000000000000e+00  2.0259876646702562e+01 -4.0680526827265951e-14 0.0000000000000000e+00  2.0259876646702775e+01 -4.1321246607868696e-14 0.0000000000000000e+00  2.0259876646702935e+01 -3.9872891210585051e-14 0.0000000000000000e+00  2.0259876646703031e+01 -3.7248410245915291e-14 0.0000000000000000e+00  2.0476613181232803e+01 -3.3194896087783461e-14 0.0000000000000000e+00  2.0476613181232103e+01 -3.4747453271592435e-14 0.0000000000000000e+00  2.0476613181232022e+01 -2.3595877865722462e-14 0.0000000000000000e+00  2.0476613181231958e+01 -2.9582507523545830e-14 0.0000000000000000e+00  2.0476613181232288e+01 -3.3075944940853021e-14 0.0000000000000000e+00  2.0476613181232352e+01 -3.5595505971425712e-14 0.0000000000000000e+00  2.0476613181232253e+01 -3.4281361977319581e-14 0.0000000000000000e+00  2.0476613181232473e+01 -3.4088412493052314e-14 0.0000000000000000e+00  2.0476613181232626e+01 -3.2080055081480304e-14 0.0000000000000000e+00  2.0476613181232597e+01 -3.2677781318418594e-14 0.0000000000000000e+00  2.0476613181232803e+01 -3.3194896087783461e-14 0.0000000000000000e+00  2.0632835578040982e+01 -2.5001920995816294e-14 0.0000000000000000e+00  2.0632835578040083e+01 -2.6044866412908106e-14 0.0000000000000000e+00  2.0632835578040080e+01 -1.9316183570069717e-14 0.0000000000000000e+00  2.0632835578040300e+01 -2.2471825503901628e-14 0.0000000000000000e+00  2.0632835578040307e+01 -2.5450527367142386e-14 0.0000000000000000e+00  2.0632835578040243e+01 -2.7304263158245993e-14 0.0000000000000000e+00  2.0632835578040506e+01 -2.5696790094666332e-14 0.0000000000000000e+00  2.0632835578040595e+01 -2.7563577544114075e-14 0.0000000000000000e+00  2.0632835578040538e+01 -2.3449389059040092e-14 0.0000000000000000e+00  2.0632835578040709e+01 -2.4770540774505014e-14 0.0000000000000000e+00  2.0632835578040982e+01 -2.5001920995816294e-14 0.0000000000000000e+00  2.0727958280923730e+01 -1.6864560634522642e-14 0.0000000000000000e+00  2.0727958280922952e+01 -1.7605430634213610e-14 0.0000000000000000e+00  2.0727958280923094e+01 -1.2693907090085719e-14 0.0000000000000000e+00  2.0727958280923062e+01 -1.6291270899928445e-14 0.0000000000000000e+00  2.0727958280923030e+01 -1.5732658846473115e-14 0.0000000000000000e+00  2.0727958280923357e+01 -1.7096122929078203e-14 0.0000000000000000e+00  2.0727958280923360e+01 -1.9083770676835638e-14 0.0000000000000000e+00  2.0727958280923321e+01 -1.8205080608683851e-14 0.0000000000000000e+00  2.0727958280923549e+01 -1.5426135898012404e-14 0.0000000000000000e+00  2.0727958280923684e+01 -1.6317905381486478e-14 0.0000000000000000e+00  2.0727958280923730e+01 -1.6864560634522642e-14 0.0000000000000000e+00  2.0760089411422275e+01 -8.0731583705364900e-15 0.0000000000000000e+00  2.0760089411421617e+01 -7.4291275958418248e-15 0.0000000000000000e+00  2.0760089411421379e+01 -5.6141496668553030e-15 0.0000000000000000e+00  2.0760089411421507e+01 -8.9499585351810998e-15 0.0000000000000000e+00  2.0760089411421749e+01 -6.8937366233451415e-15 0.0000000000000000e+00  2.0760089411421724e+01 -8.9443427368826315e-15 0.0000000000000000e+00  2.0760089411421692e+01 -9.0303112646045034e-15 0.0000000000000000e+00  2.0760089411421983e+01 -8.2907331058397803e-15 0.0000000000000000e+00  2.0760089411422001e+01 -9.3756503337713049e-15 0.0000000000000000e+00  2.0760089411422008e+01 -7.5676857954178254e-15 0.0000000000000000e+00  2.0760089411422275e+01 -8.0731583705364900e-15 0.0000000000000000e+00  2.0727957143769078e+01 -4.1053939827101822e-16 0.0000000000000000e+00  2.0727957143768133e+01 1.3687416014926409e-15 0.0000000000000000e+00  2.0727957143768172e+01 1.6243726876389716e-15 0.0000000000000000e+00  2.0727957143768393e+01 1.5084279651252775e-15 0.0000000000000000e+00  2.0727957143768290e+01 1.6840127774580245e-15 0.0000000000000000e+00  2.0727957143768371e+01 -8.5626896837254603e-16 0.0000000000000000e+00  2.0727957143768656e+01 -6.4986334600468456e-17 0.0000000000000000e+00  2.0727957143768624e+01 1.0169878792796595e-15 0.0000000000000000e+00  2.0727957143768617e+01 -1.0991582853887120e-15 0.0000000000000000e+00  2.0727957143768901e+01 -1.3762278013711623e-16 0.0000000000000000e+00  2.0727957143769078e+01 -4.1053939827101822e-16 0.0000000000000000e+00  2.0632838276152675e+01 9.0298678486748688e-15 0.0000000000000000e+00  2.0632838276151933e+01 8.0277225219371408e-15 0.0000000000000000e+00  2.0632838276152025e+01 6.5266086902688509e-15 0.0000000000000000e+00  2.0632838276151929e+01 1.0023303675346018e-14 0.0000000000000000e+00  2.0632838276152061e+01 8.8114505499208788e-15 0.0000000000000000e+00  2.0632838276152270e+01 9.6359875765967265e-15 0.0000000000000000e+00  2.0632838276152203e+01 1.0184496480453326e-14 0.0000000000000000e+00  2.0632838276152295e+01 9.4066956202548632e-15 0.0000000000000000e+00  2.0632838276152533e+01 7.1542768930049618e-15 0.0000000000000000e+00  2.0632838276152519e+01 7.1653398900386248e-15 0.0000000000000000e+00  2.0632838276152675e+01 9.0298678486748688e-15 0.0000000000000000e+00  2.0476621838497266e+01 1.6026617556289816e-14 0.0000000000000000e+00  2.0476621838496424e+01 1.5794018033268458e-14 0.0000000000000000e+00  2.0476621838496339e+01 1.2065394880971452e-14 0.0000000000000000e+00  2.0476621838496481e+01 1.3316614000223403e-14 0.0000000000000000e+00  2.0476621838496648e+01 1.5261871379561201e-14 0.0000000000000000e+00  2.0476621838496584e+01 2.0238147061333244e-14 0.0000000000000000e+00  2.0476621838496708e+01 1.8239349707293947e-14 0.0000000000000000e+00  2.0476621838496889e+01 1.7519922593221708e-14 0.0000000000000000e+00  2.0476621838496886e+01 1.7820078155783963e-14 0.0000000000000000e+00  2.0476621838496975e+01 1.6522121017140381e-14 0.0000000000000000e+00  2.0476621838497266e+01 1.6026617556289816e-14 0.0000000000000000e+00  2.0259893178341667e+01 2.3399055557036650e-14 0.0000000000000000e+00  2.0259893178340882e+01 2.5190971280878570e-14 0.0000000000000000e+00  2.0259893178340945e+01 1.3825679780598922e-14 0.0000000000000000e+00  2.0259893178341024e+01 1.7520782917025917e-14 0.0000000000000000e+00  2.0259893178341034e+01 2.4991291585003502e-14 0.0000000000000000e+00  2.0259893178341191e+01 2.3531275258992589e-14 0.0000000000000000e+00  2.0259893178341329e+01 2.4976117088223250e-14 0.0000000000000000e+00  2.0259893178341351e+01 2.7901260955822862e-14 0.0000000000000000e+00  2.0259893178341450e+01 2.5760551066675525e-14 0.0000000000000000e+00  2.0259893178341606e+01 2.5569097706858243e-14 0.0000000000000000e+00  2.0259893178341667e+01 2.3399055557036650e-14 0.0000000000000000e+00  1.9981137927424339e+01 2.9317399809160849e-14 0.0000000000000000e+00  1.9981137927423543e+01 3.2652315319620184e-14 0.0000000000000000e+00  1.9981137927423489e+01 1.7244033998022752e-14 0.0000000000000000e+00  1.9981137927423557e+01 2.3874887909720139e-14 0.0000000000000000e+00  1.9981137927423749e+01 2.8476468908492224e-14 0.0000000000000000e+00  1.9981137927423816e+01 2.7887071868415835e-14 0.0000000000000000e+00  1.9981137927423827e+01 3.3563766040560945e-14 0.0000000000000000e+00  1.9981137927423983e+01 3.2624266204789313e-14 0.0000000000000000e+00  1.9981137927424097e+01 3.3281723556580727e-14 0.0000000000000000e+00  1.9981137927424136e+01 3.5209962786553099e-14 0.0000000000000000e+00  1.9981137927424339e+01 2.9317399809160849e-14 0.0000000000000000e+00  1.9635921126232937e+01 3.3806121518603231e-14 0.0000000000000000e+00  1.9635921126232056e+01 4.0806753548395941e-14 0.0000000000000000e+00  1.9635921126232116e+01 1.8807411123216751e-14 0.0000000000000000e+00  1.9635921126232255e+01 2.7707497850572508e-14 0.0000000000000000e+00  1.9635921126232219e+01 3.3171799589673410e-14 0.0000000000000000e+00  1.9635921126232329e+01 3.4004513686809241e-14 0.0000000000000000e+00  1.9635921126232539e+01 3.5918901500241870e-14 0.0000000000000000e+00  1.9635921126232557e+01 3.9028763146283060e-14 0.0000000000000000e+00  1.9635921126232631e+01 4.2799596935976593e-14 0.0000000000000000e+00  1.9635921126232738e+01 3.8862402180242759e-14 0.0000000000000000e+00  1.9635921126232937e+01 3.3806121518603231e-14 0.0000000000000000e+00  1.9215561597832163e+01 4.1651590991151393e-14 0.0000000000000000e+00  1.9215561597831343e+01 4.4509176981573315e-14 0.0000000000000000e+00  1.9215561597831424e+01 1.7179246819978842e-14 0.0000000000000000e+00  1.9215561597831414e+01 3.3549306065186314e-14 0.0000000000000000e+00  1.9215561597831506e+01 3.6659273226129291e-14 0.0000000000000000e+00  1.9215561597831687e+01 3.8624292424880598e-14 0.0000000000000000e+00  1.9215561597831716e+01 4.0244672700635855e-14 0.0000000000000000e+00  1.9215561597831790e+01 4.4616475262929215e-14 0.0000000000000000e+00  1.9215561597832000e+01 4.3284698934862517e-14 0.0000000000000000e+00  1.9215561597832014e+01 4.2634025659705201e-14 0.0000000000000000e+00  1.9215561597832163e+01 4.1651590991151393e-14 0.0000000000000000e+00  1.8704564755154440e+01 4.0205837327860454e-14 0.0000000000000000e+00  1.8704564755153523e+01 4.6079654440016967e-14 0.0000000000000000e+00  1.8704564755153477e+01 1.8445443121112398e-14 0.0000000000000000e+00  1.8704564755153640e+01 3.6667598455423171e-14 0.0000000000000000e+00  1.8704564755153854e+01 3.8910346696381494e-14 0.0000000000000000e+00  1.8704564755153804e+01 4.5478710033861297e-14 0.0000000000000000e+00  1.8704564755153889e+01 4.2743288255702577e-14 0.0000000000000000e+00  1.8704564755154106e+01 4.3808692496803015e-14 0.0000000000000000e+00  1.8704564755154060e+01 4.5259458744775821e-14 0.0000000000000000e+00  1.8704564755154227e+01 4.4425975488924792e-14 0.0000000000000000e+00  1.8704564755154440e+01 4.0205837327860454e-14 0.0000000000000000e+00  1.8075017936703883e+01 3.7342979457760574e-14 0.0000000000000000e+00  1.8075017936702903e+01 4.8932370311041230e-14 0.0000000000000000e+00  1.8075017936703045e+01 8.5253345108452645e-15 0.0000000000000000e+00  1.8075017936703176e+01 4.1045653761734957e-14 0.0000000000000000e+00  1.8075017936703105e+01 4.6799046874532539e-14 0.0000000000000000e+00  1.8075017936703293e+01 4.4915799138619583e-14 0.0000000000000000e+00  1.8075017936703478e+01 4.2321423179223990e-14 0.0000000000000000e+00  1.8075017936703457e+01 4.4843041457347597e-14 0.0000000000000000e+00  1.8075017936703595e+01 4.3078147695515850e-14 0.0000000000000000e+00  1.8075017936703787e+01 4.1186231884482979e-14 0.0000000000000000e+00  1.8075017936703883e+01 3.7342979457760574e-14 0.0000000000000000e+00  1.7272365311532837e+01 3.1377894038041127e-14 0.0000000000000000e+00  1.7272365311531910e+01 4.2392600059782172e-14 0.0000000000000000e+00  1.7272365311531999e+01 -5.6502969509065371e-16 0.0000000000000000e+00  1.7272365311531892e+01 4.8091889215759700e-14 0.0000000000000000e+00  1.7272365311532166e+01 4.3599098980571627e-14 0.0000000000000000e+00  1.7272365311532319e+01 4.2419433134601946e-14 0.0000000000000000e+00  1.7272365311532216e+01 4.1657310008028308e-14 0.0000000000000000e+00  1.7272365311532436e+01 3.7440900242504247e-14 0.0000000000000000e+00  1.7272365311532614e+01 3.8635107376182040e-14 0.0000000000000000e+00  1.7272365311532610e+01 3.8570599813010991e-14 0.0000000000000000e+00  1.7272365311532837e+01 3.1377894038041127e-14 0.0000000000000000e+00  1.6169517037062242e+01 2.4414300214011311e-14 0.0000000000000000e+00  1.6169517037061127e+01 4.1190023958577218e-14 0.0000000000000000e+00  1.6169517037061166e+01 -7.2906541152424370e-15 0.0000000000000000e+00  1.6169517037061379e+01 5.6404925321422393e-14 0.0000000000000000e+00  1.6169517037061475e+01 3.8286344948025825e-14 0.0000000000000000e+00  1.6169517037061411e+01 3.8637707603415442e-14 0.0000000000000000e+00  1.6169517037061691e+01 3.3434986987319314e-14 0.0000000000000000e+00  1.6169517037061858e+01 3.0509951976146900e-14 0.0000000000000000e+00  1.6169517037061798e+01 3.4264812828876571e-14 0.0000000000000000e+00  1.6169517037061997e+01 2.7758119472405492e-14 0.0000000000000000e+00  1.6169517037062242e+01 2.4414300214011311e-14 0.0000000000000000e+00  1.5172151855000811e+01 2.4903423749752516e-14 0.0000000000000000e+00  1.5172151854999756e+01 2.9335920102739118e-14 0.0000000000000000e+00  1.5172151854999967e+01 5.7314815798807569e-15 0.0000000000000000e+00  1.5172151854999957e+01 6.3493798210139621e-14 0.0000000000000000e+00  1.5172151854999942e+01 3.2109174539887352e-14 0.0000000000000000e+00  1.5172151855000251e+01 2.9041960123448997e-14 0.0000000000000000e+00  1.5172151855000397e+01 2.5930101329153882e-14 0.0000000000000000e+00  1.5172151855000349e+01 2.7920689317844168e-14 0.0000000000000000e+00  1.5172151855000614e+01 2.3719895861496061e-14 0.0000000000000000e+00  1.5172151855000809e+01 2.1742358002994335e-14 0.0000000000000000e+00  1.5172151855000811e+01 2.4903423749752516e-14 0.0000000000000000e+00  1.4164797749784475e+01 1.8113596984065632e-14 0.0000000000000000e+00  1.4164797749783332e+01 2.0024071462488779e-14 0.0000000000000000e+00  1.4164797749783332e+01 2.6959626095918349e-14 0.0000000000000000e+00  1.4164797749783409e+01 6.2254646543172773e-14 0.0000000000000000e+00  1.4164797749783645e+01 1.7200474349739827e-14 0.0000000000000000e+00  1.4164797749783766e+01 2.3003252132164978e-14 0.0000000000000000e+00  1.4164797749783764e+01 2.1315328034677770e-14 0.0000000000000000e+00  1.4164797749784055e+01 1.7388396453632167e-14 0.0000000000000000e+00  1.4164797749784238e+01 1.6744343126254879e-14 0.0000000000000000e+00  1.4164797749784196e+01 1.8971674048025611e-14 0.0000000000000000e+00  1.4164797749784475e+01 1.8113596984065632e-14 0.0000000000000000e+00  1.3069722354183387e+01 1.4000390747263291e-14 0.0000000000000000e+00  1.3069722354181907e+01 1.8874640859643959e-14 0.0000000000000000e+00  1.3069722354182153e+01 4.4820394476706774e-14 0.0000000000000000e+00  1.3069722354182362e+01 5.0660868274614412e-14 0.0000000000000000e+00  1.3069722354182458e+01 6.5431505545384601e-15 0.0000000000000000e+00  1.3069722354182502e+01 1.8933269997770120e-14 0.0000000000000000e+00  1.3069722354182806e+01 1.2519863532977938e-14 0.0000000000000000e+00  1.3069722354182931e+01 1.1320560103238387e-14 0.0000000000000000e+00  1.3069722354182929e+01 1.4809218814250117e-14 0.0000000000000000e+00  1.3069722354183160e+01 1.0534731151859549e-14 0.0000000000000000e+00  1.3069722354183387e+01 1.4000390747263291e-14 0.0000000000000000e+00  1.1687881869379574e+01 1.4642923251467594e-14 0.0000000000000000e+00  1.1687881869378142e+01 1.3131474124183687e-14 0.0000000000000000e+00  1.1687881869378607e+01 5.8912580011804856e-14 0.0000000000000000e+00  1.1687881869378680e+01 3.6331958578616514e-14 0.0000000000000000e+00  1.1687881869378810e+01 -2.6999560821181780e-15 0.0000000000000000e+00  1.1687881869379064e+01 1.2932816513810784e-14 0.0000000000000000e+00  1.1687881869379183e+01 7.9953172965132218e-15 0.0000000000000000e+00  1.1687881869379149e+01 9.3745320250174442e-15 0.0000000000000000e+00  1.1687881869379396e+01 8.3062532424533801e-15 0.0000000000000000e+00  1.1687881869379613e+01 6.0190623746812600e-15 0.0000000000000000e+00  1.1687881869379574e+01 1.4642923251467594e-14 0.0000000000000000e+00  9.6259280231017961e+00 8.2209771950285712e-15 0.0000000000000000e+00  9.6259280231001334e+00 1.0926749555375625e-14 0.0000000000000000e+00  9.6259280231008155e+00 6.9077601288453771e-14 0.0000000000000000e+00  9.6259280231008368e+00 1.2212389292634191e-14 0.0000000000000000e+00  9.6259280231010607e+00 -6.9426512380688045e-15 0.0000000000000000e+00  9.6259280231011779e+00 1.1774181002446493e-14 0.0000000000000000e+00  9.6259280231011743e+00 4.3641118232164173e-15 0.0000000000000000e+00  9.6259280231013911e+00 4.4703768878395242e-15 0.0000000000000000e+00  9.6259280231015456e+00 5.3378654381863987e-15 0.0000000000000000e+00  9.6259280231015136e+00 5.6883236475780868e-15 0.0000000000000000e+00  9.6259280231017961e+00 8.2209771950285712e-15 0.0000000000000000e+00  6.8369647697307983e+00 2.9404545635205192e-15 0.0000000000000000e+00  6.8369647697286631e+00 1.7091809720254517e-14 0.0000000000000000e+00  6.8369647697300611e+00 5.3034726801909425e-14 0.0000000000000000e+00  6.8369647697299447e+00 -5.9178556973405245e-15 0.0000000000000000e+00  6.8369647697300362e+00 1.8545376286289515e-16 0.0000000000000000e+00  6.8369647697300913e+00 7.1978418311771168e-15 0.0000000000000000e+00  6.8369647697302600e+00 -4.3570810981535668e-16 0.0000000000000000e+00  6.8369647697304048e+00 3.4221644525355397e-15 0.0000000000000000e+00  6.8369647697303160e+00 4.5523856166956066e-15 0.0000000000000000e+00  6.8369647697304803e+00 1.8162861454211007e-15 0.0000000000000000e+00  6.8369647697307983e+00 2.9404545635205192e-15 0.0000000000000000e+00  4.2248114150488565e+00 1.6681882317199754e-15 0.0000000000000000e+00  4.2248114150473368e+00 1.5130504205582679e-14 0.0000000000000000e+00  4.2248114150488059e+00 2.7971462959690882e-14 0.0000000000000000e+00  4.2248114150484444e+00 -5.1746237292717321e-15 0.0000000000000000e+00  4.2248114150486025e+00 2.3019142487345373e-15 0.0000000000000000e+00  4.2248114150487490e+00 9.6124441455661324e-16 0.0000000000000000e+00  4.2248114150487703e+00 2.9936609889043350e-16 0.0000000000000000e+00  4.2248114150487615e+00 2.6996742927170554e-15 0.0000000000000000e+00  4.2248114150488787e+00 1.1359486464689565e-15 0.0000000000000000e+00  4.2248114150490217e+00 4.0512490210183515e-16 0.0000000000000000e+00  4.2248114150488565e+00 1.6681882317199754e-15 0.0000000000000000e+00  2.2866228040971750e+00 -7.5936781049535865e-16 0.0000000000000000e+00  2.2866228040963463e+00 1.0745853069033362e-14 0.0000000000000000e+00  2.2866228040971257e+00 1.3212037298266725e-14 0.0000000000000000e+00  2.2866228040969809e+00 -2.2573798234049663e-15 0.0000000000000000e+00  2.2866228040971621e+00 1.1935613130038403e-15 0.0000000000000000e+00  2.2866228040971395e+00 9.3938096166433215e-16 0.0000000000000000e+00  2.2866228040971066e+00 2.1361231733685617e-18 0.0000000000000000e+00  2.2866228040972234e+00 3.3705433594605322e-17 0.0000000000000000e+00  2.2866228040973073e+00 9.0392232519394765e-16 0.0000000000000000e+00  2.2866228040972096e+00 1.1036261487395204e-15 0.0000000000000000e+00  2.2866228040971750e+00 -7.5936781049535865e-16 0.0000000000000000e+00  9.3371387454563948e-01 -6.8946821768378760e-16 0.0000000000000000e+00  9.3371387454491417e-01 5.3133333168388822e-15 0.0000000000000000e+00  9.3371387454540145e-01 3.9057397093557171e-15 0.0000000000000000e+00  9.3371387454537602e-01 -5.6395010664334035e-16 0.0000000000000000e+00  9.3371387454537225e-01 1.1582033337083053e-15 0.0000000000000000e+00  9.3371387454537325e-01 5.0075887327196812e-16 0.0000000000000000e+00  9.3371387454542842e-01 -6.0163107744681024e-16 0.0000000000000000e+00  9.3371387454544119e-01 6.7346222886681304e-16 0.0000000000000000e+00  9.3371387454537424e-01 8.8173825363289481e-16 0.0000000000000000e+00  9.3371387454540944e-01 -5.6059362681535289e-16 0.0000000000000000e+00  9.3371387454563948e-01 -6.8946821768378760e-16 0.0000000000000000e+00  0.0000000000000000e+00 0.0000000000000000e+00 0.0000000000000000e+00  0.0000000000000000e+00 0.0000000000000000e+00 0.0000000000000000e+00  0.0000000000000000e+00 0.0000000000000000e+00 0.0000000000000000e+00  0.0000000000000000e+00 0.0000000000000000e+00 0.0000000000000000e+00  0.0000000000000000e+00 0.0000000000000000e+00 0.0000000000000000e+00  0.0000000000000000e+00 0.0000000000000000e+00 0.0000000000000000e+00  0.0000000000000000e+00 0.0000000000000000e+00 0.0000000000000000e+00  0.0000000000000000e+00 0.0000000000000000e+00 0.0000000000000000e+00  0.0000000000000000e+00 0.0000000000000000e+00 0.0000000000000000e+00  0.0000000000000000e+00 0.0000000000000000e+00 0.0000000000000000e+00  0.0000000000000000e+00 0.0000000000000000e+00 0.0000000000000000e+00  </DataArray> 
</PointData> 
</Piece>
</UnstructuredGrid>
</VTKFile>